<svg width="960" height="960" viewBox="0 0 960 960" fill="none" xmlns="http://www.w3.org/2000/svg">
<g clip-path="url(#clip0_46_119)">
<g clip-path="url(#clip1_46_119)">
<path fill-rule="evenodd" clip-rule="evenodd" d="M287.116 354.144C289.194 354.33 291.261 354.568 293.329 354.837L293.247 355.492C292.943 364.197 292.647 372.902 292.358 381.607C292.414 383.158 292.132 384.704 291.531 386.135C289.981 389.143 286.114 389.939 282.754 390.394C279.337 391.012 275.85 391.147 272.395 390.794C268.959 390.277 265.551 388.649 263.659 385.728C261.767 382.807 261.694 379.091 261.777 375.607C261.972 368.217 262.645 360.848 263.793 353.545V353.4C271.575 353.152 279.365 353.4 287.116 354.144ZM324.728 378.388L324.614 377.726C361.087 371.523 397.634 365.093 433.085 354.632C437.124 353.447 441.149 352.203 445.16 350.9C460.102 346.093 474.728 340.353 488.951 333.712C512.429 322.681 534.533 308.9 553.845 291.635C562.271 284.099 570.614 274.898 571.327 263.608C571.549 258.508 570.441 253.438 568.112 248.896C565.031 242.466 560.193 236.532 555.52 231.073C552.805 227.899 549.761 224.56 546.205 222.544C544.326 221.427 542.205 220.778 540.023 220.652C534.146 220.394 529.074 224.415 524.546 228.158C511.615 238.848 498.268 249.094 484.446 258.636C470.086 268.594 455.137 277.674 439.681 285.826C432.448 289.627 425.083 293.177 417.588 296.475C378.747 313.575 336.783 321.897 294.406 319.85V319.736C291.77 320.157 289.899 316.479 290.24 313.657C290.343 312.785 290.538 311.903 290.733 311.022C291.204 308.893 291.674 306.77 290.84 304.818C289.237 301.107 284.223 300.704 280.181 300.869C278.857 300.926 277.534 300.98 276.211 301.034C274.888 301.089 273.564 301.143 272.241 301.2C258.032 301.793 243.82 302.389 229.605 302.989L229.016 303.02C224.354 303.247 219.06 304.064 216.848 308.106C216.076 309.519 215.823 311.114 215.569 312.712C215.409 313.724 215.249 314.737 214.956 315.706C213.498 320.544 208.867 323.842 204.028 325.279C200.104 326.444 195.984 326.617 191.876 326.79C190.918 326.83 189.96 326.87 189.006 326.923C156.926 328.711 126.759 345.563 105.172 369.362C83.5849 393.161 70.0519 423.442 62.4429 454.654C54.8339 485.866 52.8289 518.174 52.0739 550.295C51.9499 555.141 51.9999 560.426 54.9999 564.241C55.9023 565.374 57.0061 566.331 58.2559 567.063C62.2049 569.399 67.4779 569.73 72.2439 569.844C78.3129 569.979 84.8669 569.968 90.0779 567.115C90.8805 566.695 91.6419 566.2 92.3519 565.637C98.6889 560.674 100.075 551.802 101.005 543.802C104.562 513.241 108.356 482.196 120.545 453.941C132.537 426.13 154 400.905 182.668 391.352C181.032 435.477 175.714 479.389 166.768 522.629C166.013 526.298 165.268 530.321 167.068 533.598C168.363 535.807 170.477 537.415 172.951 538.075C175.908 538.894 178.971 539.266 182.038 539.181C224.611 539.378 267.319 539.368 309.562 534.033C310.792 533.878 312.053 533.702 313.304 533.464C318.143 532.564 322.898 530.854 325.328 526.754C327.851 522.505 326.951 517.14 326.093 512.26C318.38 468.188 321.544 423.019 324.728 378.388ZM520.715 245.38C521.372 244.83 521.459 243.852 520.909 243.195C520.36 242.538 519.382 242.451 518.725 243C467.819 285.581 406.733 314.222 341.442 326.12C340.599 326.274 340.04 327.081 340.194 327.924C340.347 328.767 341.155 329.325 341.998 329.172C407.817 317.177 469.397 288.305 520.715 245.38Z" fill="url(#paint0_linear_46_119)"/>
<path fill-rule="evenodd" clip-rule="evenodd" d="M785.558 205.309L641.086 267.333L640.286 267.674L814.695 290.294L815.615 290.346C816.316 277.164 815.536 263.944 813.289 250.936C810.231 233.381 804.495 216.401 796.282 200.588L794.99 201.26L788.415 204.083C799.189 225.163 805.055 248.646 805.262 272.76C805.27 273.616 804.581 274.316 803.725 274.324C802.868 274.331 802.168 273.643 802.161 272.786C801.956 249.089 796.175 226.012 785.558 205.309Z" fill="#171717"/>
<path fill-rule="evenodd" clip-rule="evenodd" d="M794.991 201.26L796.283 200.588V200.587C782.398 173.795 761.612 151.196 736.072 135.124C715.365 122.238 692.03 114.161 667.787 111.49C650.382 108.791 632.623 109.402 615.444 113.29L615.961 115.637L640.283 265.482L641.083 267.333L785.558 205.31C778.351 191.256 768.916 178.297 757.484 166.98C729.21 138.99 691.016 123.316 651.231 123.375C650.374 123.376 649.679 122.683 649.678 121.826C649.676 120.97 650.37 120.274 651.226 120.273C691.83 120.212 730.81 136.209 759.666 164.775C771.385 176.376 781.048 189.668 788.415 204.083L794.991 201.26Z" fill="url(#paint1_linear_46_119)"/>
<path d="M314.761 176.386C315.071 182.586 310.15 188.079 304.412 190.457C300.518 191.933 296.388 192.687 292.223 192.68C290.166 192.732 288.108 192.701 286.072 192.67C273.966 192.463 261.863 192.263 249.763 192.07C242.113 191.946 233.304 192.339 228.59 198.37C224.982 202.97 225.065 209.37 225.313 215.211C225.561 221.052 225.799 226.893 226.047 232.735L225.768 232.745C223.99 238.845 215.668 241.884 210.374 238.369C211.616 235.547 212.849 232.732 214.074 229.923C212.13 232.923 208.347 236.291 205.565 234.038C203.311 232.218 204.542 228.414 206.744 226.538C208.946 224.662 211.882 223.685 213.784 221.503C216.431 218.474 216.369 213.935 215.521 210.003C214.673 206.071 213.174 202.177 213.443 198.166C213.96 190.319 221.259 184.344 228.878 182.41C236.497 180.476 244.499 181.61 252.346 182.131C260.193 182.652 268.546 182.441 275.204 178.264C272.154 174.315 274.615 167.522 279.494 166.437C283.753 165.496 288.178 169.28 288.494 173.498C288.432 174.129 288.38 174.739 288.36 175.338C288.492 174.734 288.537 174.115 288.494 173.498C288.97 169.104 290.675 164.307 294.842 164.142C298.419 163.987 301.014 167.988 300.787 171.555C300.56 175.122 298.378 178.223 296.287 181.118C301.581 177.168 308.22 175.467 314.761 176.386Z" fill="#171717"/>
<path d="M140.6 874.849C137.634 873.331 135.181 870.972 133.549 868.067C130.749 862.967 131.119 856.798 131.585 850.998C139.871 746.214 153.65 641.937 172.866 538.598L172.949 538.071C175.906 538.89 178.969 539.262 182.036 539.177C224.61 539.377 267.318 539.363 309.56 534.029C310.79 533.874 312.052 533.698 313.302 533.46C305.508 635.431 297.713 737.396 289.917 839.357C289.441 845.622 288.894 852.094 285.854 857.584C284.425 860.12 282.535 862.367 280.282 864.211C275.835 867.771 270.556 870.142 264.94 871.1C256.504 872.661 247.83 871.71 239.301 870.748C234.949 870.262 230.172 869.518 226.461 867.409C224.56 866.383 222.966 864.87 221.84 863.026C219.566 859.19 219.876 854.404 220.258 849.958C228.086 759.205 235.913 668.446 243.737 577.682C243.913 575.697 243.861 573.247 242.124 572.254C239.663 570.848 237.048 573.805 235.838 576.369C226.238 596.725 223.515 619.542 221.085 641.915C213.931 707.564 208.094 773.337 203.572 839.234C202.848 849.758 201.628 861.369 195.188 869.288C194.174 870.538 193.035 871.681 191.788 872.7C183.538 879.43 171.856 879.389 161.207 879.006C154.268 878.767 146.483 878.033 140.6 874.849Z" fill="#171717"/>
<path d="M287.116 354.144C289.194 354.33 291.262 354.568 293.329 354.837L293.246 355.488C292.946 364.193 292.65 372.898 292.357 381.603C292.413 383.154 292.131 384.7 291.53 386.131C289.979 389.139 286.113 389.936 282.753 390.39C279.336 391.008 275.849 391.143 272.394 390.79C268.962 390.273 265.54 388.64 263.658 385.724C261.776 382.808 261.694 379.087 261.776 375.603C261.971 368.213 262.645 360.844 263.792 353.541V353.4C271.575 353.152 279.365 353.401 287.116 354.144V354.144Z" fill="url(#paint2_linear_46_119)"/>
<path d="M264.01 250.336C266.998 251.422 270.823 252.321 272.953 249.964C274.553 248.175 274.253 245.436 273.863 243.064C272.168 232.901 270.476 222.738 268.787 212.576C268.467 210.612 268.177 208.42 269.314 206.786C270.514 205.07 272.808 204.615 274.886 204.377C278.767 203.934 282.675 203.775 286.579 203.901" stroke="#171717" stroke-width="3.102" stroke-linecap="round" stroke-linejoin="round"/>
<path d="M253.971 216.778C253.864 216.441 253.74 216.11 253.599 215.786L253.971 216.778Z" stroke="#171717" stroke-width="3.102" stroke-linecap="round" stroke-linejoin="round"/>
<path d="M253.971 216.778C253.981 216.799 253.981 216.809 253.992 216.83" stroke="#171717" stroke-width="3.102" stroke-linecap="round" stroke-linejoin="round"/>
<path d="M254.478 222.671C254.773 220.713 254.607 218.713 253.992 216.83" stroke="#171717" stroke-width="3.102" stroke-linecap="round" stroke-linejoin="round"/>
<path d="M281.306 221.689C281.151 219.259 280.986 216.83 280.83 214.389" stroke="#171717" stroke-width="3.102" stroke-linecap="round" stroke-linejoin="round"/>
<path d="M264.4 260.086C262.744 260.981 260.892 261.45 259.01 261.452C257.128 261.454 255.275 260.988 253.617 260.096C252.895 259.693 252.221 259.208 251.611 258.649C249.421 256.665 248.09 253.906 247.9 250.957C245.708 253.769 243.454 256.674 242.514 260.117C241.766 262.709 242.071 265.492 243.362 267.86C243.811 268.629 244.409 269.3 245.12 269.835C247.963 271.985 252.988 270.848 253.794 267.385" stroke="#171717" stroke-width="3.102" stroke-linecap="round" stroke-linejoin="round"/>
<path d="M243.25 268.884C243.271 268.543 243.312 268.191 243.364 267.86C243.727 265.713 244.69 263.714 246.143 262.092C247.596 260.471 249.479 259.295 251.573 258.7" stroke="#171717" stroke-width="3.102" stroke-linecap="round" stroke-linejoin="round"/>
<path d="M272.322 301.687C272.291 301.522 272.26 301.367 272.239 301.201C271.395 297.518 271.092 293.733 271.339 289.963C271.773 286.055 273.531 282.095 276.808 279.924C279.972 277.836 284.097 277.639 287.229 275.509C292.264 272.097 293.081 265.14 293.329 259.071C294.209 237.201 293.846 215.299 292.243 193.471" stroke="#171717" stroke-width="3.102" stroke-linecap="round" stroke-linejoin="round"/>
<path d="M288.5 173.5C288.18 169.282 283.755 165.5 279.5 166.439C274.62 167.525 272.16 174.317 275.21 178.266C268.552 182.443 260.199 182.66 252.352 182.133C244.505 181.606 236.503 180.489 228.884 182.412C221.265 184.335 213.966 190.321 213.449 198.168C213.18 202.179 214.679 206.068 215.527 210.005C216.375 213.942 216.437 218.472 213.79 221.505C211.89 223.686 208.962 224.658 206.75 226.54C204.538 228.422 203.318 232.216 205.571 234.04C208.352 236.294 212.136 232.923 214.08 229.925C212.85 232.737 211.617 235.552 210.38 238.371C215.673 241.886 223.996 238.847 225.774 232.747" stroke="#171717" stroke-width="3.102" stroke-linecap="round" stroke-linejoin="round"/>
<path d="M288.5 173.5C288.438 174.131 288.386 174.741 288.366 175.34C288.498 174.736 288.543 174.117 288.5 173.5Z" stroke="#171717" stroke-width="3.102" stroke-linecap="round" stroke-linejoin="round"/>
<path d="M228.963 301.946C227.991 278.871 227.019 255.799 226.048 232.73C225.8 226.889 225.555 221.048 225.314 215.206C225.066 209.364 224.983 202.965 228.591 198.365C233.305 192.338 242.114 191.945 249.764 192.065C261.87 192.261 273.973 192.461 286.073 192.665C288.11 192.696 290.167 192.727 292.224 192.675C296.389 192.682 300.519 191.928 304.413 190.452C310.151 188.074 315.072 182.584 314.762 176.381C308.224 175.468 301.59 177.171 296.3 181.12C298.388 178.22 300.559 175.12 300.8 171.557C301.041 167.994 298.433 163.989 294.855 164.144C290.689 164.309 288.983 169.106 288.507 173.5" stroke="#171717" stroke-width="3.102" stroke-linecap="round" stroke-linejoin="round"/>
<path d="M184.042 390.908C183.587 391.053 183.122 391.197 182.667 391.353C153.999 400.906 132.536 426.131 120.544 453.942C108.355 482.2 104.561 513.243 101 543.8C100.07 551.8 98.6839 560.672 92.3469 565.635C91.6369 566.198 90.8755 566.693 90.0729 567.113C84.8619 569.966 78.3079 569.977 72.2389 569.842C67.4729 569.728 62.1999 569.397 58.2509 567.061C57.0032 566.329 55.9011 565.374 54.9999 564.242C51.9999 560.427 51.9499 555.142 52.0739 550.296C52.8289 518.175 54.8339 485.867 62.4429 454.655C70.0519 423.443 83.5849 393.162 105.172 369.363C126.759 345.564 156.924 328.712 189 326.924C194.045 326.645 199.183 326.717 204.022 325.28C208.861 323.843 213.492 320.545 214.95 315.707C215.705 313.207 215.581 310.414 216.842 308.107C219.054 304.065 224.348 303.248 229.01 303.021L229.599 302.99C243.814 302.39 258.026 301.794 272.235 301.201C274.882 301.087 277.528 300.984 280.175 300.87C284.217 300.705 289.231 301.108 290.834 304.819C292.013 307.579 290.586 310.681 290.234 313.658C289.893 316.48 291.764 320.158 294.4 319.737C294.544 319.717 294.686 319.683 294.824 319.637" stroke="#171717" stroke-width="3.102" stroke-linecap="round" stroke-linejoin="round"/>
<path d="M294.374 319.852H294.405C336.782 321.899 378.746 313.577 417.587 296.477C425.082 293.179 432.447 289.629 439.68 285.828C455.137 277.676 470.086 268.596 484.445 258.638C498.267 249.096 511.614 238.85 524.545 228.16C529.073 224.417 534.145 220.396 540.022 220.654C542.205 220.78 544.325 221.429 546.204 222.546C549.76 224.562 552.804 227.901 555.519 231.075C560.192 236.534 565.03 242.468 568.111 248.898C570.441 253.44 571.548 258.51 571.326 263.61C570.613 274.9 562.27 284.101 553.844 291.637C534.532 308.902 512.428 322.683 488.95 333.714C474.728 340.354 460.102 346.094 445.16 350.9C441.149 352.203 437.124 353.447 433.085 354.632C397.635 365.094 361.085 371.525 324.614 377.732L323.549 377.918" stroke="#171717" stroke-width="3.102" stroke-linecap="round" stroke-linejoin="round"/>
<path d="M182.7 390.484C182.69 390.773 182.679 391.063 182.669 391.352C181.033 435.477 175.715 479.389 166.769 522.629C166.014 526.299 165.269 530.321 167.069 533.598C168.365 535.806 170.479 537.415 172.952 538.075C175.909 538.894 178.972 539.266 182.039 539.181C224.613 539.381 267.321 539.367 309.563 534.033C310.793 533.878 312.055 533.702 313.305 533.464C318.143 532.564 322.899 530.859 325.329 526.754C327.852 522.505 326.952 517.139 326.094 512.26C318.382 468.187 321.545 423.019 324.729 378.388" stroke="#171717" stroke-width="3.102" stroke-linecap="round" stroke-linejoin="round"/>
<path d="M172.866 538.6C153.65 641.939 139.871 746.216 131.585 851C131.12 856.8 130.748 862.972 133.549 868.069C135.181 870.974 137.633 873.333 140.6 874.851C146.483 878.035 154.267 878.769 161.2 879.007C171.849 879.39 183.531 879.431 191.781 872.701C193.028 871.683 194.168 870.54 195.181 869.289C201.622 861.37 202.842 849.76 203.565 839.235C208.083 773.359 213.921 707.586 221.078 641.916C223.508 619.544 226.227 596.727 235.831 576.37C237.041 573.806 239.656 570.849 242.117 572.255C243.854 573.247 243.906 575.698 243.73 577.683C235.91 668.443 228.085 759.2 220.256 849.953C219.873 854.399 219.563 859.185 221.838 863.021C222.963 864.865 224.558 866.378 226.459 867.404C230.17 869.513 234.947 870.257 239.299 870.743C247.828 871.704 256.499 872.656 264.938 871.095C270.553 870.138 275.832 867.769 280.28 864.21C282.533 862.367 284.423 860.119 285.852 857.583C288.891 852.093 289.439 845.621 289.915 839.356C297.71 737.385 305.505 635.421 313.3 533.463C313.3 533.422 313.31 533.37 313.31 533.329" stroke="#171717" stroke-width="3.102" stroke-linecap="round" stroke-linejoin="round"/>
<path d="M546.414 222.185C546.766 213.635 547.22 204.692 551.583 197.331C552.385 195.747 553.651 194.445 555.212 193.599C556.001 193.198 556.904 193.079 557.769 193.263C558.635 193.448 559.411 193.924 559.968 194.612C560.55 195.749 560.733 197.049 560.485 198.303C560.115 202.315 559.459 206.295 558.521 210.213C558.521 210.234 558.511 210.244 558.511 210.265" stroke="#171717" stroke-width="3.102" stroke-linecap="round" stroke-linejoin="round"/>
<path d="M568.838 248.558C585.586 237.413 602.52 225.493 613.521 208.652C614.338 207.401 615.144 205.912 614.71 204.486C614.183 202.78 612.105 202.056 610.327 202.139C607.739 202.362 605.279 203.359 603.266 205C601.996 205.959 600.778 206.984 599.617 208.071C592.608 214.439 585.605 220.806 578.609 227.171" stroke="#171717" stroke-width="3.102" stroke-linecap="round" stroke-linejoin="round"/>
<path d="M603.172 204.889C605.436 203.256 606.772 200.489 607.959 197.962C609.146 195.435 608.693 191.883 606.222 190.57C605.439 190.209 604.583 190.033 603.72 190.056C602.858 190.079 602.012 190.301 601.25 190.704C599.699 191.448 597.383 193.681 596.133 194.86C594.83 196.09 593.524 197.257 592.214 198.36C584.708 204.79 577.203 209.619 569.688 216.7" stroke="#171717" stroke-width="3.102" stroke-linecap="round" stroke-linejoin="round"/>
<path d="M591.934 198.034C594.192 195.908 595.795 193.183 596.555 190.177C597.547 186.941 596.297 182.754 593.081 181.7C589.681 180.594 586.33 183.3 583.776 185.8C575.454 193.967 567.135 202.128 558.819 210.281" stroke="#171717" stroke-width="3.102" stroke-linecap="round" stroke-linejoin="round"/>
<path d="M90.045 567.116H90.076C95.3193 566.789 100.578 566.792 105.821 567.126C107.584 567.178 109.315 567.608 110.897 568.387C111.683 568.788 112.343 569.397 112.804 570.148C113.266 570.9 113.511 571.764 113.513 572.646C113.431 573.311 113.207 573.952 112.858 574.524C112.509 575.096 112.041 575.588 111.487 575.965C110.374 576.707 109.139 577.246 107.838 577.557C102.388 579.091 96.6723 579.432 91.079 578.557C90.407 578.457 89.745 578.33 89.084 578.195" stroke="#171717" stroke-width="3.102" stroke-linecap="round" stroke-linejoin="round"/>
<path d="M58.1308 567.281C55.7838 583.947 53.4308 600.85 55.5308 617.546C55.6473 619.367 56.1664 621.14 57.0508 622.736C57.5074 623.525 58.189 624.16 59.0085 624.56C59.8279 624.959 60.7479 625.105 61.6508 624.979C63.9048 624.452 64.9698 621.919 65.6208 619.696C65.8898 618.776 66.1478 617.856 66.3858 616.925C69.333 605.685 70.4158 594.037 69.5908 582.446" stroke="#171717" stroke-width="3.102" stroke-linecap="round" stroke-linejoin="round"/>
<path d="M66.3696 616.285C66.3696 616.502 66.3696 616.709 66.3796 616.926C66.2994 618.685 66.5557 620.443 67.1346 622.106C67.4647 623.036 68.0499 623.853 68.8233 624.466C69.5967 625.078 70.527 625.461 71.5076 625.569C72.3453 625.539 73.1632 625.307 73.8909 624.891C74.6186 624.475 75.2342 623.888 75.6846 623.181C76.5617 621.755 77.1843 620.188 77.5246 618.549C77.6176 618.197 77.7106 617.836 77.7936 617.484C80.8944 605.242 82.2929 592.631 81.9496 580.007" stroke="#171717" stroke-width="3.102" stroke-linecap="round" stroke-linejoin="round"/>
<path d="M78.2491 617.009C78.1597 617.179 78.0925 617.36 78.0491 617.547C77.9318 618.371 78.1251 619.21 78.5914 619.899C79.0576 620.589 79.7636 621.081 80.5721 621.279C81.4954 621.418 82.4392 621.301 83.3011 620.942C84.1631 620.583 84.9104 619.995 85.4621 619.242C86.545 617.713 87.292 615.973 87.6541 614.135C90.5381 602.959 90.7871 591.297 91.0241 579.76" stroke="#171717" stroke-width="3.102" stroke-linecap="round" stroke-linejoin="round"/>
<path d="M140.7 874.57C140.669 874.663 140.638 874.756 140.6 874.849C137.519 883.233 128.266 887.472 119.892 890.698C111.425 893.965 102.017 897.966 98.636 906.392C97.644 908.853 97.468 912.109 99.556 913.743C100.784 914.529 102.213 914.942 103.671 914.932C127.809 916.976 152.106 916.052 176.019 912.182C181.447 911.314 187.091 910.176 191.382 906.744C196.572 902.598 198.908 895.682 199.012 889.044C199.116 882.406 197.296 875.904 195.487 869.525" stroke="#171717" stroke-width="3.102" stroke-linecap="round" stroke-linejoin="round"/>
<path d="M226.244 867.788C225.644 877.788 225.041 887.778 224.435 897.759C224.29 900.24 224.177 902.897 225.5 904.996C227.413 908.046 231.486 908.739 235.073 909.049C261.86 911.354 288.802 908.542 315.473 905.193C319.973 904.624 324.612 903.993 328.51 901.668C332.408 899.343 335.385 894.845 334.517 890.399C333.307 884.227 326.112 881.591 320.017 880.05C310.413 877.631 300.801 875.208 291.183 872.782C286.427 871.582 280.658 869.246 280.39 864.336" stroke="#171717" stroke-width="3.102" stroke-linecap="round" stroke-linejoin="round"/>
<path d="M280.262 319.252C263.556 319.428 246.852 319.607 230.152 319.79" stroke="#171717" stroke-width="3.102" stroke-linecap="round" stroke-linejoin="round"/>
<path d="M296.762 355.313C295.625 355.148 294.477 354.982 293.33 354.837C291.262 354.568 289.195 354.33 287.117 354.144C279.366 353.4 271.576 353.152 263.794 353.4C262.471 353.441 261.158 353.493 259.834 353.565" stroke="#171717" stroke-width="3.102" stroke-linecap="round" stroke-linejoin="round"/>
<path d="M263.793 353.545C262.646 360.848 261.972 368.217 261.777 375.607C261.694 379.091 261.767 382.807 263.659 385.728C265.551 388.649 268.959 390.277 272.395 390.794C275.85 391.147 279.337 391.012 282.754 390.394C286.114 389.939 289.981 389.143 291.531 386.135C292.132 384.704 292.414 383.158 292.358 381.607C292.647 372.902 292.943 364.197 293.247 355.492" stroke="#171717" stroke-width="3.102" stroke-linecap="round" stroke-linejoin="round"/>
<path d="M286 370.076C286.372 364.762 286.744 359.452 287.117 354.145C287.386 350.372 287.644 346.598 287.917 342.824" stroke="#171717" stroke-width="3.102" stroke-linecap="round" stroke-linejoin="round"/>
<path d="M433.374 355.6C427.078 425.167 420.912 494.734 414.874 564.3C404.874 678.746 394.87 793.206 384.862 907.68" stroke="#171717" stroke-width="3.102" stroke-linecap="round" stroke-linejoin="round"/>
<path d="M457.845 77.2C451.88 146.715 445.677 215.983 439.536 285.56" stroke="#171717" stroke-width="3.102" stroke-linecap="round" stroke-linejoin="round"/>
<path d="M457.845 77.199L860.67 45.46L824.548 545.715L470.974 561.771L415.033 564.314" stroke="#171717" stroke-width="3.102" stroke-linecap="round" stroke-linejoin="round"/>
<path d="M667.787 111.492C692.03 114.163 715.365 122.24 736.072 135.126C761.611 151.199 782.397 173.797 796.283 200.588C804.496 216.401 810.231 233.382 813.29 250.936C817.585 275.993 816.478 301.678 810.044 326.272C803.855 349.924 792.763 372.011 777.488 391.1C762.657 409.622 744.125 424.846 723.077 435.8C694.092 450.879 661.237 456.877 628.794 453.012C596.351 449.146 565.825 435.598 541.194 414.131C535.6 409.281 530.333 404.066 525.428 398.52C509.6 380.62 496.274 356.67 489.037 333.905" stroke="#171717" stroke-width="3.17" stroke-linecap="round" stroke-linejoin="round"/>
<path d="M483.99 257.977C484.962 241.828 491.165 225.287 497.368 209.777C503.568 195.303 512.876 182.897 522.18 170.491C528.201 163.437 534.769 156.868 541.823 150.848C563.296 132.528 588.635 119.223 615.443 113.289C632.622 109.401 650.381 108.79 667.786 111.489" stroke="#171717" stroke-width="3.17" stroke-linecap="round" stroke-linejoin="round"/>
<path d="M541.038 414.355L541.193 414.128L640.287 267.674" stroke="#171717" stroke-width="3.17" stroke-linecap="round" stroke-linejoin="round"/>
<path d="M640.287 265.482L615.96 115.637" stroke="#171717" stroke-width="3.17" stroke-linecap="round" stroke-linejoin="round"/>
<path d="M640.287 267.674L814.695 290.294" stroke="#171717" stroke-width="3.17" stroke-linecap="round" stroke-linejoin="round"/>
<path d="M470.974 561.771L472.432 900.385" stroke="#171717" stroke-width="3.17" stroke-linecap="round" stroke-linejoin="round"/>
<path d="M824.548 545.715L790.617 896.001" stroke="#171717" stroke-width="3.17" stroke-linecap="round" stroke-linejoin="round"/>
<path d="M835.496 397.938L886.217 895.277" stroke="#171717" stroke-width="3.17" stroke-linecap="round" stroke-linejoin="round"/>
<path d="M459.113 511.91C477.928 496.814 495.427 480.147 511.421 462.089" stroke="#171717" stroke-width="3.102" stroke-linecap="round" stroke-linejoin="round"/>
<path d="M507.923 481.977L507.758 483.325L512.303 461.631L487.69 463.315L489.109 462.195" stroke="#171717" stroke-width="3.102" stroke-linecap="round" stroke-linejoin="round"/>
<path d="M600.371 470.408L582.361 471.408L581.929 529.117C586.997 526.348 592.667 524.864 598.442 524.796" stroke="#171717" stroke-width="3.102" stroke-linecap="round" stroke-linejoin="round"/>
<path d="M640.323 477.066L618.208 479.133L618.492 502.317C621.203 500.562 624.309 499.512 627.528 499.264C630.747 499.015 633.977 499.575 636.924 500.893C638.724 501.722 640.571 503.101 640.771 505.076C640.984 507.171 639.237 508.968 637.385 509.97C632.285 512.729 626.069 511.828 620.328 510.994C614.587 510.16 608.245 509.594 603.438 512.843" stroke="#171717" stroke-width="3.102" stroke-linecap="round" stroke-linejoin="round"/>
<path d="M670.91 502.881C675.799 495.372 679.258 487.025 681.115 478.259C679.407 484.641 680.3 491.826 684.139 497.203C687.978 502.58 694.886 505.814 701.387 504.636C707.888 503.458 713.41 497.536 713.496 490.936C713.525 488.714 712.609 486.091 710.443 485.592C709.734 485.492 709.011 485.563 708.334 485.799C707.658 486.035 707.047 486.429 706.554 486.949C701.887 491.265 704.173 499.831 709.624 503.101C715.075 506.371 722.091 505.522 728.048 503.301C734.081 501.014 739.57 497.491 744.162 492.958C748.753 488.425 752.347 482.982 754.712 476.979C752.956 479.851 752.193 483.222 752.541 486.57C752.89 489.919 754.331 493.06 756.641 495.509C758.952 497.958 762.004 499.578 765.327 500.121C768.65 500.663 772.059 500.097 775.028 498.51C780.276 495.705 784.797 489.669 790.606 490.957C795.513 492.045 797.633 497.722 798.936 502.576" stroke="#171717" stroke-width="3.102" stroke-linecap="round" stroke-linejoin="round"/>
<path d="M808.691 102.457C797.091 109.206 791.005 124.204 794.623 137.128C795.798 141.328 798.523 145.741 802.847 146.304C808.017 146.978 811.952 141.961 814.713 137.539C816.038 135.417 817.403 133.172 817.522 130.674C817.641 128.176 816.016 125.405 813.522 125.19C811.422 125.008 809.607 126.611 808.275 128.245C805.73 131.407 803.884 135.073 802.858 139C801.833 142.928 801.651 147.028 802.325 151.031L803.025 150.176" stroke="#171717" stroke-width="3.102" stroke-linecap="round" stroke-linejoin="round"/>
<path d="M825.414 118.347L835.37 100.633C831.046 129.361 827.687 158.212 825.292 187.186L826.372 185.939" stroke="#171717" stroke-width="3.102" stroke-linecap="round" stroke-linejoin="round"/>
<path d="M544.694 123.174C543.53 115.504 540.599 108.21 536.134 101.866" stroke="#171717" stroke-width="3.102" stroke-linecap="round" stroke-linejoin="round"/>
<path d="M532.2 118.7L548.261 104.841" stroke="#171717" stroke-width="3.102" stroke-linecap="round" stroke-linejoin="round"/>
<path d="M509.014 155.862L497.45 149.1" stroke="#171717" stroke-width="3.102" stroke-linecap="round" stroke-linejoin="round"/>
<path d="M499.509 159.7C501.694 154.833 503.878 149.967 506.062 145.1" stroke="#171717" stroke-width="3.102" stroke-linecap="round" stroke-linejoin="round"/>
<path d="M352.554 151.03L345.318 139.316" stroke="#171717" stroke-width="3.102" stroke-linecap="round" stroke-linejoin="round"/>
<path d="M341.955 148.933L354.469 140.333" stroke="#171717" stroke-width="3.102" stroke-linecap="round" stroke-linejoin="round"/>
<path d="M312.573 112.29L302.333 105.026" stroke="#171717" stroke-width="3.102" stroke-linecap="round" stroke-linejoin="round"/>
<path d="M302.958 115.776L312.5 99.7549" stroke="#171717" stroke-width="3.102" stroke-linecap="round" stroke-linejoin="round"/>
<path d="M40.49 465.432C39.699 454.871 41.0041 444.257 44.33 434.202C47.656 424.147 52.9373 414.849 59.87 406.842" stroke="#171717" stroke-width="3.102" stroke-linecap="round" stroke-linejoin="round"/>
<path d="M588.511 250.976C601.12 245.145 611.926 236.026 619.794 224.576" stroke="#171717" stroke-width="3.102" stroke-linecap="round" stroke-linejoin="round"/>
<path d="M603.194 252.509C606.594 249.83 609.998 247.152 613.404 244.473" stroke="#171717" stroke-width="3.102" stroke-linecap="round" stroke-linejoin="round"/>
<path d="M519.67 296.636L524.911 284.426" stroke="#171717" stroke-width="3.102" stroke-linecap="round" stroke-linejoin="round"/>
<path d="M482.28 297.318L471.026 292.607" stroke="#171717" stroke-width="3.102" stroke-linecap="round" stroke-linejoin="round"/>
<path d="M439.322 336.494L445.522 325.719" stroke="#171717" stroke-width="3.102" stroke-linecap="round" stroke-linejoin="round"/>
<path d="M406.792 329.138L398.524 325.238" stroke="#171717" stroke-width="3.102" stroke-linecap="round" stroke-linejoin="round"/>
<path d="M369.211 356.414L373.945 347.587" stroke="#171717" stroke-width="3.102" stroke-linecap="round" stroke-linejoin="round"/>
<path d="M338.677 345.2L331.377 341.8" stroke="#171717" stroke-width="3.102" stroke-linecap="round" stroke-linejoin="round"/>
<path d="M309.49 369.621L315.799 360.852" stroke="#171717" stroke-width="3.102" stroke-linecap="round" stroke-linejoin="round"/>
<path d="M302.54 336.146L296.731 331.246" stroke="#171717" stroke-width="3.102" stroke-linecap="round" stroke-linejoin="round"/>
<path d="M237.431 356.931L243.273 349.636" stroke="#171717" stroke-width="3.102" stroke-linecap="round" stroke-linejoin="round"/>
<path d="M256.54 418.12L248.209 410.401" stroke="#171717" stroke-width="3.102" stroke-linecap="round" stroke-linejoin="round"/>
<path d="M223.827 409L230.152 401.216" stroke="#171717" stroke-width="3.102" stroke-linecap="round" stroke-linejoin="round"/>
<path d="M233.018 449.337L238.871 442.537" stroke="#171717" stroke-width="3.102" stroke-linecap="round" stroke-linejoin="round"/>
<path d="M289.858 433.224L297.674 423.032" stroke="#171717" stroke-width="3.102" stroke-linecap="round" stroke-linejoin="round"/>
<path d="M285.338 463.354C282.085 460.771 279.103 457.863 276.438 454.677" stroke="#171717" stroke-width="3.102" stroke-linecap="round" stroke-linejoin="round"/>
<path d="M249.209 498.116L255.022 492.253" stroke="#171717" stroke-width="3.102" stroke-linecap="round" stroke-linejoin="round"/>
<path d="M224.759 516.071C222.727 513.712 220.695 511.353 218.664 508.995" stroke="#171717" stroke-width="3.102" stroke-linecap="round" stroke-linejoin="round"/>
<path d="M288.294 513.353C286.084 511.866 284.161 509.991 282.619 507.818" stroke="#171717" stroke-width="3.102" stroke-linecap="round" stroke-linejoin="round"/>
<path d="M301.41 490.478C303.378 488.39 305.345 486.302 307.31 484.215" stroke="#171717" stroke-width="3.102" stroke-linecap="round" stroke-linejoin="round"/>
<path d="M217.225 474.951L212.469 468.729" stroke="#171717" stroke-width="3.102" stroke-linecap="round" stroke-linejoin="round"/>
<path d="M185.631 502.409L191.025 495.387" stroke="#171717" stroke-width="3.102" stroke-linecap="round" stroke-linejoin="round"/>
<path d="M206.279 438.979C204.204 437.7 202.403 436.025 200.979 434.048" stroke="#171717" stroke-width="3.102" stroke-linecap="round" stroke-linejoin="round"/>
<path d="M215.568 382.235L210.947 376.396" stroke="#171717" stroke-width="3.102" stroke-linecap="round" stroke-linejoin="round"/>
<path d="M190.282 355.263C192.635 352.508 194.988 349.753 197.342 346.997" stroke="#171717" stroke-width="3.102" stroke-linecap="round" stroke-linejoin="round"/>
<path d="M147.44 387.177C145.641 387.041 143.897 386.493 142.343 385.578C140.789 384.662 139.465 383.402 138.474 381.895" stroke="#171717" stroke-width="3.102" stroke-linecap="round" stroke-linejoin="round"/>
<path d="M100.581 417.247L102.111 408.015" stroke="#171717" stroke-width="3.102" stroke-linecap="round" stroke-linejoin="round"/>
<path d="M129.444 412.408C126.722 412.467 124.034 411.795 121.66 410.462" stroke="#171717" stroke-width="3.102" stroke-linecap="round" stroke-linejoin="round"/>
<path d="M101.62 444.828L90.9902 441.662" stroke="#171717" stroke-width="3.102" stroke-linecap="round" stroke-linejoin="round"/>
<path d="M74.4678 476.141C75.7644 474.033 77.0618 471.925 78.3598 469.816" stroke="#171717" stroke-width="3.102" stroke-linecap="round" stroke-linejoin="round"/>
<path d="M93.8689 501.979C91.8856 499.742 89.9023 497.505 87.9189 495.267" stroke="#171717" stroke-width="3.102" stroke-linecap="round" stroke-linejoin="round"/>
<path d="M71.7334 537.119L79.9584 527.835" stroke="#171717" stroke-width="3.102" stroke-linecap="round" stroke-linejoin="round"/>
<path d="M370.705 105.854L372.262 113.89C372.309 114.133 372.28 114.384 372.18 114.609C372.08 114.835 371.913 115.025 371.702 115.153C371.491 115.281 371.245 115.342 370.999 115.326C370.752 115.31 370.516 115.22 370.323 115.066L363.915 109.973C363.728 109.824 363.501 109.734 363.263 109.715C363.025 109.695 362.787 109.746 362.578 109.862L355.417 113.826C355.201 113.946 354.953 113.996 354.708 113.971C354.462 113.945 354.23 113.845 354.043 113.684C353.856 113.523 353.722 113.308 353.661 113.069C353.599 112.83 353.613 112.578 353.699 112.346L356.563 104.678C356.647 104.454 356.662 104.211 356.608 103.978C356.553 103.746 356.431 103.535 356.256 103.372L350.273 97.7861C350.093 97.6174 349.968 97.3976 349.916 97.1561C349.865 96.9146 349.888 96.6631 349.984 96.4354C350.079 96.2076 350.242 96.0146 350.451 95.8823C350.659 95.7499 350.903 95.6846 351.15 95.6951L359.328 96.0491C359.567 96.0591 359.804 95.9979 360.008 95.8733C360.212 95.7487 360.375 95.5662 360.475 95.3491L363.939 87.9331C364.044 87.7093 364.214 87.5229 364.428 87.3991C364.642 87.2752 364.888 87.2198 365.134 87.2402C365.381 87.2607 365.615 87.3561 365.805 87.5136C365.995 87.6711 366.133 87.8831 366.199 88.1211L368.389 96.0081C368.453 96.2382 368.584 96.4443 368.765 96.6002C368.946 96.7561 369.169 96.8549 369.406 96.8841L377.53 97.8841C377.775 97.9141 378.005 98.0187 378.189 98.1836C378.373 98.3486 378.502 98.566 378.559 98.8066C378.616 99.0472 378.597 99.2993 378.506 99.529C378.415 99.7587 378.255 99.9549 378.049 100.091L371.225 104.611C371.024 104.743 370.868 104.932 370.775 105.153C370.683 105.375 370.658 105.619 370.705 105.854V105.854Z" fill="#171717"/>
<path d="M167.318 151.522C150.318 157.393 134.618 168.647 126.387 184.635C118.156 200.623 118.626 221.559 130.033 235.462C131.574 237.568 133.653 239.222 136.052 240.25C143.093 242.787 150.629 234.117 148.362 226.984C146.095 219.851 136.939 216.52 129.888 219.03C122.837 221.54 118.082 228.475 116.282 235.739C114.482 243.003 115.182 250.632 116.104 258.059C117.026 265.486 118.161 272.997 117.196 280.419C114.625 300.203 95.2227 316.278 75.3057 315.126" stroke="#171717" stroke-width="3.102" stroke-linecap="round" stroke-linejoin="round"/>
<path d="M905.8 220.789C896.125 232.587 889.364 246.498 886.063 261.394C882.762 276.291 883.015 291.755 886.8 306.536C888.986 314.773 892.851 323.366 900.431 327.262C908.011 331.158 919.624 327.137 920.231 318.636C920.751 311.319 912.37 305.525 905.191 307.027C898.012 308.529 892.891 315.403 891.432 322.593C889.973 329.783 891.532 337.229 893.58 344.272C898.168 360.058 905.235 375.072 909.216 391.024C913.197 406.976 913.797 424.663 905.882 439.072C900.819 448.289 889.925 456.095 880.214 452.061" stroke="#171717" stroke-width="3.102" stroke-linecap="round" stroke-linejoin="round"/>
<path d="M522.414 650.845C528.602 640.392 544.308 638.645 554.582 645.131C564.856 651.617 570.124 663.972 571.442 676.048C572.224 683.215 571.607 691.096 566.921 696.574C562.235 702.052 552.412 703.332 548.121 697.536C544.674 692.877 546.403 685.76 550.753 681.93C555.103 678.1 561.285 677.03 567.071 677.365C577.62 678.022 587.514 682.703 594.711 690.443C605.419 702.064 609.435 719.843 623.023 727.914C627.81 730.757 633.354 732.061 638.906 731.651C644.459 731.241 649.751 729.137 654.069 725.622C658.386 722.107 661.521 717.351 663.048 711.997C664.576 706.644 664.423 700.95 662.61 695.686" stroke="#171717" stroke-width="3.102" stroke-linecap="round" stroke-linejoin="round"/>
<path d="M42.5435 689.348C37.2925 704.963 46.2435 723.933 61.6295 729.811C67.6925 732.127 75.2055 732.311 80.0375 727.98C84.8695 723.649 84.3765 714.048 78.2375 711.948C73.2375 710.238 67.6925 714.484 66.3785 719.605C65.0645 724.726 66.9225 730.139 69.4695 734.773C73.5505 742.2 79.3895 748.521 83.7405 755.793C88.0915 763.065 90.9155 771.993 88.1575 780.007C85.3995 788.021 75.2575 793.607 67.9875 789.263" stroke="#171717" stroke-width="3.102" stroke-linecap="round" stroke-linejoin="round"/>
<path d="M118.6 892.337C118.981 896.275 122.928 899.128 126.865 899.522C130.802 899.916 134.665 898.416 138.242 896.715C147.99 892.068 156.849 885.748 164.416 878.043" stroke="#171717" stroke-width="3.102" stroke-linecap="round" stroke-linejoin="round"/>
<path d="M256.048 871.187C266.693 878.794 278.739 884.216 291.491 887.142C295.499 888.059 299.722 888.719 303.691 887.636C307.66 886.553 311.291 883.301 311.619 879.202" stroke="#171717" stroke-width="3.102" stroke-linecap="round" stroke-linejoin="round"/>
<path d="M98.5049 907.273C132.063 913.488 166.72 909.274 197.812 895.2" stroke="#171717" stroke-width="3.102" stroke-linecap="round" stroke-linejoin="round"/>
<path d="M225.5 896.9C261.265 902.784 297.831 901.677 333.175 893.642" stroke="#171717" stroke-width="3.102" stroke-linecap="round" stroke-linejoin="round"/>
<g opacity="0.1">
<path d="M259.248 191.53C252.179 187.724 240.495 190.593 234.085 194.564C224.27 200.645 223.217 212.098 223.397 222.638C223.616 235.438 224.582 248.138 225.391 260.905C225.805 267.44 226.327 273.986 226.547 280.53C226.776 287.33 225.78 294.745 228.796 300.972C231.871 307.323 240.337 304.596 242.418 299.192C244.353 294.166 242.955 287.769 242.649 282.492C242.349 277.265 242.301 272.027 242.191 266.792C241.959 255.662 241.92 244.556 241.491 233.43C241.296 228.418 240.884 223.422 240.639 218.414C240.451 214.556 239.886 210.041 240.729 206.299C242.873 196.784 252.613 199.13 259.25 195.253C259.571 195.059 259.836 194.786 260.02 194.46C260.204 194.134 260.3 193.765 260.3 193.391C260.3 193.016 260.204 192.648 260.02 192.322C259.836 191.996 259.571 191.723 259.25 191.529L259.248 191.53Z" fill="#171717"/>
</g>
<g opacity="0.1">
<path d="M225.3 303.425C221.75 305.4 218.013 307.885 215.479 311.077C212.83 314.413 210.979 318.877 209.55 322.849C205.922 332.955 224.362 336.638 224.595 324.885C224.859 318.822 226.527 312.902 229.469 307.594C229.788 307.011 229.91 306.341 229.816 305.683C229.722 305.026 229.417 304.416 228.947 303.947C228.478 303.477 227.868 303.172 227.21 303.078C226.553 302.984 225.882 303.106 225.3 303.425V303.425Z" fill="#171717"/>
</g>
<g opacity="0.1">
<path d="M181.929 378.525C175.565 379.087 168.729 380.085 162.929 382.771C157.357 385.358 152.083 388.544 147.199 392.271C136.729 400.299 127.472 409.797 119.716 420.471C102.46 443.862 93.1401 472.041 87.9811 500.388C84.7411 518.174 82.8501 536.2 81.4001 554.2C80.9601 559.683 86.3901 564.372 91.5721 564.372C97.4411 564.372 101.302 559.698 101.743 554.2C104.582 518.846 107.848 482.057 123.554 449.669C129.867 436.326 138.396 424.149 148.777 413.655C153.891 408.645 159.447 404.107 165.377 400.097C171.643 395.797 177.877 391.467 184.359 387.518C188.185 385.187 186.92 378.08 181.922 378.518L181.929 378.525Z" fill="#171717"/>
</g>
<g opacity="0.1">
<path d="M322.47 377.122C327.126 376.78 331.698 377.636 336.319 377.022C341.344 376.355 346.329 375.56 351.319 374.654C360.887 372.916 370.471 371.164 379.961 369.04C398.596 364.87 416.877 359.125 434.926 352.915C453.457 346.538 471.726 339.388 489.726 331.645C504.733 325.191 519.538 317.91 533.079 308.726C548.579 298.212 564.879 285.545 572.019 267.726C574.934 260.454 564.909 256.747 560.11 260.794C548.31 270.745 538.221 281.944 525.159 290.423C511.865 299.053 497.645 306.1 483.244 312.66C450.181 327.721 416.028 338.75 381.376 349.429C371.508 352.47 361.61 355.483 351.619 358.094C346.779 359.359 341.908 360.508 337.073 361.794C331.536 363.264 326.634 365.963 321.173 367.544C316.073 369.02 316.812 377.535 322.473 377.12L322.47 377.122Z" fill="#171717"/>
</g>
</g>
</g>
<defs>
<linearGradient id="paint0_linear_46_119" x1="311.697" y1="220.64" x2="311.697" y2="569.887" gradientUnits="userSpaceOnUse">
<stop stop-color="#42E670"/>
<stop offset="1" stop-color="#07AA50"/>
</linearGradient>
<linearGradient id="paint1_linear_46_119" x1="705.864" y1="109.837" x2="705.864" y2="267.333" gradientUnits="userSpaceOnUse">
<stop stop-color="#42E670"/>
<stop offset="1" stop-color="#07AA50"/>
</linearGradient>
<linearGradient id="paint2_linear_46_119" x1="277.543" y1="353.307" x2="277.543" y2="390.981" gradientUnits="userSpaceOnUse">
<stop stop-color="#42E670"/>
<stop offset="1" stop-color="#07AA50"/>
</linearGradient>
<clipPath id="clip0_46_119">
<rect width="960" height="960" fill="white"/>
</clipPath>
<clipPath id="clip1_46_119">
<rect width="884" height="875" fill="white" transform="translate(38 43)"/>
</clipPath>
</defs>
</svg>
