<svg width="960" height="960" viewBox="0 0 960 960" fill="none" xmlns="http://www.w3.org/2000/svg">
<g clip-path="url(#clip0_38_4073)">
<path fill-rule="evenodd" clip-rule="evenodd" d="M507.908 606.578L507.966 606.555C518.314 633.979 527.488 661.77 535.49 689.926C545.996 726.849 554.466 764.321 560.859 802.174C592.13 801.167 622.51 791.512 648.623 774.279L649.392 774.072C634.658 719.432 618.154 665.295 601.238 611.272C596.269 595.442 591.292 579.621 586.308 563.807L586.297 563.635C584.606 563.745 582.908 563.711 581.221 563.535L569.3 562.501L544.038 560.293C533.396 559.373 522.758 558.447 512.123 557.514L482.08 554.895C476.76 554.435 471.435 553.972 466.105 553.506C462.442 568.711 449.754 581.489 434.454 584.789C419.088 588.111 401.931 581.404 393.271 568.289C385.646 556.747 384.853 541.76 387.897 528.266C389.138 522.917 390.824 517.681 392.938 512.613C365.914 504.82 337.127 505.683 310.618 515.082C305.037 544.914 309.562 576.707 324.79 602.914C339.696 628.328 363.697 647.132 391.939 655.524C399.879 657.846 408.069 659.203 416.332 659.567C453.737 661.14 490.601 639.768 507.908 606.578ZM586.258 587.983C585.958 587.081 584.982 586.593 584.08 586.894C583.177 587.194 582.689 588.17 582.99 589.072C601.293 644.021 617.162 699.627 630.597 755.888C630.818 756.813 631.747 757.384 632.672 757.163C633.597 756.942 634.168 756.013 633.947 755.088C620.49 698.729 604.593 643.028 586.258 587.983Z" fill="#171717"/>
<path d="M694.2 217.578L694.039 217.52C670.232 208.126 644.92 198.479 622.468 186.18C675.087 177.606 725.795 159.874 772.29 133.788L772.313 133.822C789.391 184.135 810.993 233.07 839.118 278.135L838.624 278.445C813.004 266.341 787.378 254.241 761.748 242.145C759.991 251.275 758.091 260.378 756.048 269.455C748.732 301.931 739.657 333.985 728.864 365.476L728.956 365.705C693.251 379.748 655.927 389.262 617.856 394.026C649.3 334.65 672.043 281.006 694.2 217.578Z" fill="url(#paint0_linear_38_4073)"/>
<path d="M793.491 347.215C794.605 347.858 795.696 348.547 796.752 349.27C807.359 356.444 816.313 365.797 823.017 376.707C823.517 377.533 824.017 378.36 824.498 379.199C827.829 385.056 830.482 392.417 827.232 398.32C824.453 403.327 818.432 405.395 812.945 407.014C809.454 408.036 805.963 409.047 802.46 410.023C795.899 386.903 783.633 365.803 766.789 348.662C772.474 345.837 778.489 343.184 784.717 343.988C787.825 344.477 790.807 345.573 793.491 347.215V347.215Z" fill="url(#paint1_linear_38_4073)"/>
<path d="M670.573 897.293L617.148 892.917C616.648 892.871 616.137 892.837 615.632 892.791C608.11 892.182 600.163 891.413 594.032 887.003C587.232 882.122 583.949 873.474 583.547 865.113C583.156 856.856 585.235 848.713 587.291 840.698C592.556 841.276 597.877 841.094 603.091 840.158C616.382 838.101 629.289 834.059 641.38 828.168C644.292 826.811 647.059 825.16 649.637 823.241L649.775 823.414C655.586 834.531 665.819 842.857 677.062 848.427C688.305 853.997 700.605 857.051 712.847 859.785C716.017 860.497 719.439 861.335 721.518 863.839C723.769 866.539 723.803 870.454 723.091 873.888C721.509 881.322 717.109 887.854 710.815 892.113C700.015 899.337 685.962 898.545 673.015 897.488C672.2 897.419 671.389 897.35 670.573 897.293Z" fill="url(#paint2_linear_38_4073)"/>
<path d="M702.408 433.576L702.431 433.702C675.741 495.649 641.024 557.137 601.242 611.274C596.292 595.448 591.315 579.627 586.312 563.809L586.301 563.637C588.405 563.582 590.422 562.789 592.001 561.397C593.885 559.583 594.539 556.884 595.101 554.334C596.789 546.72 598.473 539.102 600.154 531.48C606.413 503.137 612.68 474.791 618.954 446.439L619.103 446.473C646.858 443.154 674.719 438.859 702.408 433.576Z" fill="url(#paint3_linear_38_4073)"/>
<path d="M626.99 260.601C634.765 264.116 625.819 277.966 619.525 283.731C613.496 289.255 605.353 291.954 597.2 292.746C596.832 292.792 596.476 292.827 596.109 292.846C587.599 293.489 577.963 292.065 569.522 290.824L569.511 290.801C574.3 287.746 579.02 284.601 583.728 281.465C588.265 278.444 593.228 274.436 595.017 269.647C598.876 265.685 606.134 253.489 612.945 258.22C613.456 258.667 613.82 259.258 613.99 259.916C614.16 260.574 614.128 261.267 613.898 261.907C611.75 267.007 602.598 274.964 605.181 276.641C607.283 277.987 618.928 256.947 626.99 260.601Z" fill="#171717"/>
<path d="M600.151 531.482C598.463 539.107 596.779 546.725 595.098 554.336C594.535 556.885 593.881 559.584 591.998 561.398C590.419 562.79 588.402 563.583 586.298 563.638C584.606 563.748 582.908 563.714 581.222 563.538L569.3 562.501C572.722 551.437 575.441 540.167 577.442 528.76C584.93 529.656 592.421 530.548 599.917 531.436L600.151 531.482Z" fill="url(#paint4_linear_38_4073)"/>
<path d="M595.017 269.649C593.226 274.438 588.265 278.449 583.728 281.467C579.02 284.602 574.3 287.749 569.511 290.803C561.106 296.28 552.339 301.18 543.269 305.469C542.086 306.009 540.306 306.881 538.169 307.846C533.695 309.966 529.015 311.625 524.204 312.796C517.221 314.266 511.272 313.244 511.789 304.964C512.103 302.174 513.106 299.506 514.706 297.2C515.016 296.7 515.338 296.2 515.659 295.719C528.769 276.288 548.462 262.253 571.107 256.201L572.037 255.96C576.528 254.823 581.271 254.019 585.784 255.075C590.297 256.131 594.558 259.428 595.5 263.964C595.888 265.866 595.72 267.839 595.017 269.649Z" fill="url(#paint5_linear_38_4073)"/>
<path d="M544.038 560.295C545.382 548.605 547.135 536.975 549.298 525.405C558.681 526.531 568.064 527.649 577.446 528.759C575.444 540.167 572.723 551.436 569.3 562.5L544.038 560.295Z" fill="url(#paint6_linear_38_4073)"/>
<path d="M530.728 523.201L549.298 525.401C547.139 536.966 545.386 548.596 544.038 560.291C533.392 559.361 522.754 558.435 512.123 557.512L512.135 557.397C513.535 545.419 515.476 533.525 517.957 521.715C522.218 522.191 526.467 522.701 530.728 523.201Z" fill="url(#paint7_linear_38_4073)"/>
<path d="M538.239 307.984C539.008 319.33 539.502 330.692 539.72 342.07C536.326 346.017 532.254 349.327 527.696 351.843C526.387 352.555 524.549 353.118 523.608 351.969C523.356 351.532 523.205 351.044 523.167 350.541C523.129 350.038 523.205 349.533 523.389 349.064C524.193 345.492 525.005 341.916 525.824 338.337C523.875 339.72 521.669 340.699 519.335 341.215C517.002 341.732 514.589 341.777 512.238 341.346C510.561 341.036 508.62 340.094 508.575 338.383C508.529 336.603 510.538 335.604 512.146 334.846C516.204 332.843 519.591 329.703 521.893 325.808C524.196 321.912 525.314 317.431 525.112 312.911L524.205 312.796C529.016 311.625 533.695 309.966 538.17 307.846L538.239 307.984Z" fill="#171717"/>
<path d="M250.59 897.994C238.957 854.078 220.89 812.171 202.896 770.46L203.538 770.184C274.638 737.81 331.152 705.011 391.847 655.823L391.939 655.523C399.879 657.845 408.069 659.202 416.333 659.566C453.738 661.139 490.602 639.766 507.909 606.577L507.966 606.554C518.3 633.944 527.476 661.736 535.495 689.931L535.194 690.011C533.102 692.584 530.847 695.019 528.441 697.303C503.176 726.014 476.762 748.983 448.051 774.249C436.566 783.436 426.231 791.475 414.747 800.663C362.011 839.641 308.138 871.751 250.715 898.257L250.59 897.994Z" fill="url(#paint8_linear_38_4073)"/>
<path d="M514.615 297.142C506.84 288.793 505.531 275.448 510.607 265.242C515.683 255.036 526.444 248.165 537.756 246.752C549.068 245.339 561.816 249.084 571.004 255.836L571.104 256.204C548.46 262.257 528.767 276.292 515.657 295.722C515.336 296.204 515.014 296.698 514.704 297.203L514.615 297.142Z" fill="url(#paint9_linear_38_4073)"/>
<path d="M517.957 521.72C515.477 533.526 513.536 545.42 512.135 557.402L512.123 557.517L482.08 554.901L482.126 554.43C483.401 542.61 485.33 530.871 487.903 519.265V519.219C489.12 519.254 490.337 519.311 491.555 519.38C500.375 519.859 509.172 520.721 517.957 521.72Z" fill="url(#paint10_linear_38_4073)"/>
<path d="M466.105 553.509L461.339 553.095C460.13 553.141 458.951 552.712 458.055 551.901C457.125 550.787 457.469 549.133 457.848 547.732C460.19 539.142 462.541 530.548 464.9 521.95L465.083 521.995C472.295 519.262 480.151 518.941 487.903 519.216V519.262C485.329 530.868 483.401 542.607 482.126 554.427L482.08 554.898C476.751 554.439 471.426 553.976 466.105 553.509Z" fill="url(#paint11_linear_38_4073)"/>
<path d="M394 447.311C397.617 450.895 398.157 456.579 397.457 461.621C396.757 466.663 395.033 471.578 394.942 476.666L394.93 476.953C379.449 476.264 363.968 475.568 348.487 474.863C341.493 474.541 333.96 474.38 327.942 477.757L327.425 476.849C317.75 470.627 307.463 465.412 296.725 461.288C294.825 460.666 293.017 459.791 291.35 458.688C290.515 458.132 289.811 457.402 289.285 456.547C288.76 455.693 288.426 454.735 288.307 453.739C288.356 451.943 288.879 450.192 289.823 448.663C291.706 444.896 293.586 441.136 295.462 437.385C298.115 432.091 301.112 426.452 306.418 423.822C312.118 421.008 318.89 422.432 325.034 424.017C325.402 424.109 325.781 424.212 326.148 424.304C343.903 428.932 361.417 434.388 378.724 440.44C381.17 441.29 383.616 442.162 386.051 443.035C388.9 444.073 391.847 445.175 394 447.311Z" fill="url(#paint12_linear_38_4073)"/>
<path d="M349.791 303.481C350.226 303.072 350.717 302.728 351.25 302.459C354.512 300.828 358.35 302.712 361.494 304.549C365.318 306.789 369.152 309.01 372.994 311.21C361.422 328.577 350.732 346.515 340.964 364.957L340.907 365.106C333.707 362.419 326.472 359.762 319.201 357.136C322.567 350.05 326.115 343.06 329.847 336.166C335.291 326.094 341.125 316.244 347.347 306.616C348.028 305.474 348.849 304.421 349.791 303.481V303.481Z" fill="url(#paint13_linear_38_4073)"/>
<path d="M574.782 377.578C574.759 377.478 574.748 377.372 574.725 377.268C573.943 373.941 573.683 370.513 573.955 367.105C574.415 363.613 576.149 360.099 579.227 358.388C581.684 357.021 584.682 356.952 587.22 355.712C593.249 352.772 594.409 344.825 594.776 338.118L597.257 293.398" stroke="#171717" stroke-width="3.445" stroke-linecap="round" stroke-linejoin="round"/>
<path d="M538.239 307.983C539.009 319.33 539.502 330.692 539.72 342.069C539.938 353.53 539.869 364.991 539.513 376.453V376.625" stroke="#171717" stroke-width="3.445" stroke-linecap="round" stroke-linejoin="round"/>
<path d="M525.112 312.91C525.314 317.43 524.196 321.912 521.893 325.807C519.591 329.702 516.204 332.843 512.146 334.845C510.538 335.603 508.529 336.602 508.575 338.382C508.62 340.093 510.561 341.035 512.238 341.345C514.589 341.776 517.002 341.732 519.335 341.215C521.669 340.698 523.875 339.719 525.824 338.336C525.009 341.919 524.198 345.494 523.389 349.063C523.205 349.533 523.13 350.038 523.167 350.541C523.205 351.043 523.356 351.531 523.608 351.968C524.549 353.117 526.387 352.554 527.696 351.842C532.254 349.326 536.326 346.017 539.72 342.069C539.759 342.016 539.801 341.966 539.847 341.919" stroke="#171717" stroke-width="3.445" stroke-linecap="round" stroke-linejoin="round"/>
<path d="M569.511 290.801C574.3 287.746 579.02 284.601 583.728 281.465C588.265 278.444 593.228 274.436 595.018 269.647C595.72 267.837 595.888 265.864 595.5 263.962C594.558 259.426 590.309 256.118 585.784 255.073C581.259 254.028 576.528 254.821 572.037 255.958L571.107 256.199C548.463 262.251 528.77 276.286 515.66 295.717C515.339 296.199 515.017 296.693 514.707 297.198C513.107 299.504 512.104 302.172 511.79 304.962C511.273 313.242 517.222 314.262 524.205 312.794C529.016 311.623 533.696 309.964 538.17 307.844C540.306 306.879 542.086 306.007 543.27 305.467C552.339 301.178 561.106 296.278 569.511 290.801V290.801Z" stroke="#171717" stroke-width="3.445" stroke-linecap="round" stroke-linejoin="round"/>
<path d="M571 255.833C561.812 249.081 549.065 245.325 537.752 246.749C526.439 248.173 515.679 255.029 510.603 265.239C505.527 275.449 506.837 288.794 514.612 297.139" stroke="#171717" stroke-width="3.445" stroke-linecap="round" stroke-linejoin="round"/>
<path d="M594.789 269.878L595.018 269.649C598.876 265.687 606.134 253.491 612.945 258.222C613.456 258.669 613.82 259.26 613.99 259.918C614.16 260.576 614.128 261.269 613.898 261.908C611.75 267.008 602.599 274.965 605.182 276.642C607.282 277.986 618.928 256.942 626.99 260.598C634.765 264.113 625.82 277.963 619.526 283.728C613.497 289.252 605.354 291.952 597.201 292.744C596.833 292.79 596.476 292.824 596.109 292.843C587.599 293.487 577.963 292.063 569.522 290.822" stroke="#171717" stroke-width="3.445" stroke-linecap="round" stroke-linejoin="round"/>
<path d="M586.967 300.301C581.317 299.611 575.667 298.926 570.016 298.245C569.681 298.154 569.329 298.137 568.986 298.194C568.643 298.252 568.317 298.383 568.029 298.578C567.815 298.859 567.664 299.183 567.586 299.529C567.509 299.874 567.507 300.232 567.581 300.578C568.377 310.825 569.944 320.998 572.267 331.011C572.554 332.217 572.749 333.721 571.773 334.479C571.176 334.85 570.474 335.016 569.773 334.95C567.706 334.996 565.639 335.031 563.573 335.077" stroke="#171717" stroke-width="3.445" stroke-linecap="round" stroke-linejoin="round"/>
<path d="M584.773 311.246C583.382 310.37 581.786 309.874 580.144 309.808C578.502 309.741 576.871 310.106 575.414 310.867" stroke="#171717" stroke-width="3.445" stroke-linecap="round" stroke-linejoin="round"/>
<path d="M558.646 311.59C556.971 310.355 554.895 309.789 552.824 310.001C550.824 310.219 547.897 312.424 547.897 312.436" stroke="#171717" stroke-width="3.445" stroke-linecap="round" stroke-linejoin="round"/>
<path d="M560.737 348.052C558.306 347.973 555.953 347.178 553.972 345.767C552.996 345.044 552.25 344.055 551.822 342.918C551.395 341.781 551.304 340.545 551.561 339.358" stroke="#171717" stroke-width="3.445" stroke-linecap="round" stroke-linejoin="round"/>
<path d="M539.514 376.453C537.768 376.487 536.022 376.545 534.277 376.614C531.704 376.714 528.959 376.901 526.938 378.474C525.416 379.771 524.403 381.566 524.079 383.539C523.765 385.494 523.68 387.479 523.826 389.453C523.826 389.568 523.837 389.683 523.837 389.809C523.797 390.395 523.886 390.983 524.098 391.531C524.311 392.079 524.641 392.573 525.066 392.979C525.773 393.376 526.577 393.567 527.386 393.53C548.402 394.518 569.419 395.498 590.435 396.47C591.177 396.541 591.925 396.494 592.652 396.332C592.961 396.251 593.253 396.116 593.513 395.932C594.613 395.163 594.857 393.658 595.006 392.315C595.282 389.708 595.506 387.089 595.695 384.482C595.821 382.76 595.902 380.922 595.018 379.441C593.1 376.248 588.38 376.524 585.21 376.822C582.121 377.098 579.525 377.622 576.367 377.385C575.816 377.339 575.276 377.305 574.725 377.27C566.259 376.662 557.787 376.352 549.31 376.34C546.048 376.327 542.775 376.372 539.514 376.453Z" stroke="#171717" stroke-width="3.445" stroke-linecap="round" stroke-linejoin="round"/>
<path d="M523.677 389.821C472.399 365.703 422.17 339.5 372.99 311.21C369.143 309.006 365.31 306.785 361.49 304.549C358.343 302.712 354.508 300.828 351.246 302.459C350.713 302.728 350.222 303.072 349.787 303.481C348.845 304.421 348.023 305.474 347.341 306.616C341.128 316.24 335.295 326.09 329.841 336.166C326.108 343.056 322.559 350.046 319.195 357.136C326.462 359.755 333.697 362.412 340.901 365.106C391.868 384.17 441.09 405.049 490.232 429.224C490.243 429.235 490.266 429.235 490.278 429.247" stroke="#171717" stroke-width="3.445" stroke-linecap="round" stroke-linejoin="round"/>
<path d="M592.686 396.482C601.08 395.907 609.472 395.088 617.86 394.024C655.93 389.26 693.254 379.744 728.96 365.701C741.202 360.867 753.18 355.503 764.894 349.611C765.526 349.289 766.158 348.979 766.789 348.658C772.474 345.832 778.489 343.18 784.717 343.983C787.825 344.473 790.806 345.57 793.491 347.211C794.605 347.854 795.696 348.543 796.752 349.266C807.358 356.44 816.312 365.794 823.017 376.703C823.517 377.529 824.017 378.356 824.498 379.195C827.829 385.052 830.482 392.414 827.232 398.317C824.453 403.324 818.432 405.392 812.945 407.011C809.454 408.033 805.963 409.044 802.46 410.02C769.626 419.311 736.138 427.165 702.408 433.573C674.719 438.856 646.858 443.151 619.1 446.473" stroke="#171717" stroke-width="3.445" stroke-linecap="round" stroke-linejoin="round"/>
<path d="M620.26 440.513L618.951 446.439C612.679 474.794 606.413 503.141 600.151 531.481C598.463 539.107 596.778 546.725 595.098 554.335C594.535 556.884 593.881 559.583 591.998 561.397C590.419 562.789 588.402 563.582 586.298 563.637C584.606 563.747 582.908 563.714 581.222 563.537L569.3 562.5L544.034 560.295C533.388 559.365 522.749 558.439 512.119 557.516L482.08 554.9C476.751 554.441 471.426 553.978 466.105 553.511L461.339 553.097C460.13 553.143 458.951 552.715 458.055 551.903C457.125 550.789 457.469 549.135 457.848 547.734C460.19 539.144 462.541 530.55 464.9 521.952C473.341 491.048 481.786 460.139 490.234 429.227C490.266 429.137 490.293 429.045 490.314 428.951" stroke="#171717" stroke-width="3.445" stroke-linecap="round" stroke-linejoin="round"/>
<path d="M465.083 521.995C472.295 519.262 480.151 518.941 487.903 519.216C489.12 519.251 490.337 519.308 491.555 519.377C500.375 519.859 509.172 520.721 517.955 521.72C522.216 522.191 526.465 522.696 530.726 523.201L549.296 525.401C558.679 526.527 568.062 527.645 577.444 528.755C584.932 529.651 592.424 530.543 599.919 531.431" stroke="#171717" stroke-width="3.445" stroke-linecap="round" stroke-linejoin="round"/>
<path d="M487.9 519.262C485.326 530.868 483.398 542.607 482.123 554.427" stroke="#171717" stroke-width="3.445" stroke-linecap="round" stroke-linejoin="round"/>
<path d="M517.957 521.707V521.719C515.477 533.525 513.536 545.419 512.135 557.401" stroke="#171717" stroke-width="3.445" stroke-linecap="round" stroke-linejoin="round"/>
<path d="M549.379 524.97C549.356 525.119 549.321 525.257 549.298 525.406C547.139 536.971 545.386 548.601 544.038 560.296C544.291 560.135 544.544 559.986 544.796 559.825" stroke="#171717" stroke-width="3.445" stroke-linecap="round" stroke-linejoin="round"/>
<path d="M577.6 527.967C577.554 528.231 577.508 528.496 577.45 528.76C575.447 540.167 572.724 551.437 569.3 562.501V562.512" stroke="#171717" stroke-width="3.445" stroke-linecap="round" stroke-linejoin="round"/>
<path d="M340.96 364.957C350.727 346.515 361.418 328.577 372.99 311.21C373.005 311.177 373.024 311.146 373.047 311.118" stroke="#171717" stroke-width="3.445" stroke-linecap="round" stroke-linejoin="round"/>
<path d="M802.494 410.148C802.483 410.102 802.471 410.068 802.46 410.022C795.899 386.903 783.633 365.803 766.789 348.661C766.698 348.569 766.606 348.461 766.514 348.374" stroke="#171717" stroke-width="3.445" stroke-linecap="round" stroke-linejoin="round"/>
<path d="M828.84 338.371C827.404 339.841 825.918 341.334 824.384 342.85" stroke="#171717" stroke-width="3.445" stroke-linecap="round" stroke-linejoin="round"/>
<path d="M793.525 347.639L793.491 347.214C793.169 343.929 791.883 340.814 790.918 337.659C789.918 334.351 789.276 330.745 790.447 327.495C791.618 324.245 795.179 321.672 798.486 322.66C800.586 323.28 802.092 325.129 803.264 326.99C806.121 331.532 807.853 336.689 808.317 342.034C817.746 330.274 827.473 318.261 840.473 310.647C841.863 309.714 843.452 309.116 845.113 308.902C845.947 308.817 846.787 308.989 847.52 309.395C848.253 309.802 848.844 310.424 849.213 311.176C849.948 313.076 848.673 315.115 847.444 316.734C841.787 324.224 835.669 331.354 829.127 338.084" stroke="#171717" stroke-width="3.445" stroke-linecap="round" stroke-linejoin="round"/>
<path d="M823.258 376.556C840.278 366.381 853.933 358.262 865.888 342.448C867.099 341.041 867.972 339.375 868.438 337.578C868.653 336.677 868.593 335.733 868.265 334.867C867.938 334.001 867.357 333.253 866.6 332.72C864.682 331.606 862.271 332.548 860.295 333.547C854.388 336.467 848.663 339.74 843.149 343.347C840.163 345.323 837.249 347.436 834.398 349.747C834.198 349.885 834.008 350.047 833.812 350.207" stroke="#171717" stroke-width="3.445" stroke-linecap="round" stroke-linejoin="round"/>
<path d="M833.824 350.108C834.024 349.981 834.214 349.855 834.398 349.74C837.427 347.764 840.348 345.628 843.149 343.34C849.432 338.23 855.04 332.341 859.836 325.815C860.847 324.591 861.622 323.189 862.121 321.681C862.424 320.904 862.492 320.055 862.317 319.24C862.141 318.425 861.73 317.679 861.134 317.095C860.538 316.512 859.784 316.116 858.965 315.958C858.146 315.799 857.299 315.884 856.528 316.203C854.918 316.75 853.425 317.596 852.128 318.695C844.065 324.671 836.383 331.146 829.128 338.081C829.036 338.181 828.928 338.276 828.84 338.368C827.359 339.803 825.9 341.273 824.44 342.778" stroke="#171717" stroke-width="3.445" stroke-linecap="round" stroke-linejoin="round"/>
<path d="M349.746 303.642C349.757 303.584 349.78 303.542 349.791 303.481C351.349 297.43 350.893 291.036 348.491 285.267C348.07 284.071 347.387 282.984 346.491 282.086C346.038 281.643 345.476 281.327 344.861 281.169C344.247 281.011 343.602 281.017 342.991 281.186C341.406 281.749 340.691 283.552 340.246 285.16C339.04 289.395 338.282 293.744 337.984 298.137C337.949 298.55 337.926 298.964 337.903 299.377" stroke="#171717" stroke-width="3.445" stroke-linecap="round" stroke-linejoin="round"/>
<path d="M337.813 298.129C330.675 285.8 319.748 276.105 306.656 270.486C303.693 269.223 299.756 268.396 297.687 270.865C297.106 271.691 296.764 272.66 296.699 273.668C296.634 274.675 296.849 275.68 297.319 276.573C298.296 278.343 299.597 279.913 301.155 281.201C309.033 288.528 317.03 295.728 325.146 302.801C325.189 302.847 325.235 302.889 325.284 302.928" stroke="#171717" stroke-width="3.445" stroke-linecap="round" stroke-linejoin="round"/>
<path d="M325.123 302.826C315.832 294.569 304.669 288.907 292.967 284.716C290.44 283.797 287.11 283.216 285.479 285.347C285.046 286.006 284.796 286.767 284.754 287.554C284.711 288.341 284.878 289.125 285.238 289.826C285.971 291.22 286.965 292.46 288.166 293.478C295.1 300.255 302.758 306.251 311 311.359C313.492 312.875 316.087 314.308 318.787 315.659" stroke="#171717" stroke-width="3.445" stroke-linecap="round" stroke-linejoin="round"/>
<path d="M319.059 315.736C316.441 314.151 313.742 312.693 310.997 311.36C304.152 308.03 296.956 305.476 289.544 303.746C287.489 303.264 285.157 302.885 283.389 304.046C281.012 305.596 280.943 309.283 282.489 311.671C284.035 314.059 286.704 315.438 289.242 316.713C302.575 323.397 316.027 329.839 329.598 336.041C329.632 335.525 329.655 334.996 329.69 334.468" stroke="#171717" stroke-width="3.445" stroke-linecap="round" stroke-linejoin="round"/>
<path d="M466.163 553.3C466.149 553.371 466.13 553.44 466.105 553.507C462.442 568.707 449.752 581.494 434.454 584.79C419.088 588.109 401.931 581.402 393.271 568.29C385.646 556.748 384.853 541.761 387.897 528.267C389.138 522.918 390.824 517.682 392.938 512.614C396.062 504.896 399.898 497.42 403.619 489.967C405.433 486.326 406.995 481.342 403.919 478.689C402.358 477.345 400.13 477.189 398.074 477.089L394.927 476.951C379.447 476.263 363.966 475.566 348.484 474.861C341.49 474.539 333.957 474.378 327.939 477.755C327.41 478.047 326.897 478.365 326.4 478.708C321.186 482.348 318.361 488.492 316.2 494.487C313.785 501.189 311.918 508.075 310.618 515.079C305.037 544.915 309.562 576.704 324.79 602.911C339.696 628.325 363.697 647.13 391.939 655.521C399.879 657.843 408.069 659.201 416.332 659.564C453.737 661.137 490.602 639.764 507.909 606.575" stroke="#171717" stroke-width="3.445" stroke-linecap="round" stroke-linejoin="round"/>
<path d="M586.312 563.81C591.298 579.624 596.274 595.445 601.242 611.275C618.159 665.298 634.662 719.435 649.396 774.075C651.498 781.875 653.562 789.68 655.586 797.491C657.01 802.958 658.4 808.791 656.608 814.155C655.261 817.82 652.829 820.988 649.637 823.239C647.06 825.157 644.293 826.808 641.38 828.166C629.29 834.057 616.383 838.099 603.091 840.156C597.878 841.091 592.557 841.273 587.291 840.696C583.677 840.247 580.195 839.05 577.069 837.181C566.113 830.451 563.208 816.142 561.083 803.463C561.014 803.038 560.934 802.602 560.865 802.177C554.472 764.324 546.002 726.852 535.496 689.929C527.491 661.769 518.315 633.976 507.968 606.552L507.692 605.828" stroke="#171717" stroke-width="3.445" stroke-linecap="round" stroke-linejoin="round"/>
<path d="M394.937 476.666C395.028 471.578 396.751 466.666 397.452 461.621C398.153 456.576 397.612 450.895 393.995 447.311C391.847 445.175 388.895 444.073 386.048 443.039C383.613 442.166 381.167 441.294 378.721 440.444C361.414 434.392 343.9 428.936 326.145 424.308C325.778 424.216 325.399 424.113 325.031 424.021C318.887 422.436 312.111 421.012 306.415 423.826C301.109 426.456 298.115 432.095 295.459 437.389C293.575 441.144 291.695 444.903 289.82 448.667C288.876 450.196 288.353 451.947 288.304 453.743C288.423 454.739 288.757 455.697 289.283 456.552C289.808 457.406 290.512 458.137 291.347 458.693C293.014 459.796 294.822 460.67 296.722 461.293C307.46 465.417 317.747 470.631 327.422 476.854" stroke="#171717" stroke-width="3.445" stroke-linecap="round" stroke-linejoin="round"/>
<path d="M378.824 440.168C379.605 438.168 380.39 436.168 381.178 434.168L381.316 433.824" stroke="#171717" stroke-width="3.445" stroke-linecap="round" stroke-linejoin="round"/>
<path d="M326.18 424.182C327.064 422 327.925 419.806 328.798 417.624C328.81 417.578 328.832 417.544 328.844 417.498" stroke="#171717" stroke-width="3.445" stroke-linecap="round" stroke-linejoin="round"/>
<path d="M381.178 434.173C382.947 434.966 384.704 435.793 386.427 436.673C387.437 437.19 390.412 439.533 391.491 439.314C392.823 439.039 393.857 436.351 394.191 435.203C394.473 434.378 394.535 433.493 394.37 432.637C394.204 431.781 393.818 430.983 393.249 430.322C392.611 429.749 391.876 429.294 391.079 428.978C370.021 419.226 347.624 412.672 324.63 409.535C317.935 408.628 311.136 408.008 304.441 408.915C297.746 409.822 291.107 412.36 286.249 417.046C294.834 415.196 303.638 414.566 312.399 415.174C317.918 415.592 323.399 416.409 328.799 417.62C337.091 419.42 345.256 421.904 353.376 424.396C360.863 426.681 368.351 428.99 375.644 431.849C377.503 432.588 379.348 433.362 381.178 434.173Z" stroke="#171717" stroke-width="3.445" stroke-linecap="round" stroke-linejoin="round"/>
<path d="M587.369 840.4C587.347 840.501 587.321 840.601 587.289 840.7C585.233 848.716 583.154 856.858 583.545 865.115C583.945 873.476 587.231 882.124 594.03 887.005C600.163 891.415 608.11 892.184 615.63 892.793C616.13 892.839 616.641 892.873 617.146 892.919L670.571 897.295C671.387 897.352 672.202 897.421 673.017 897.495C685.96 898.551 700.017 899.344 710.817 892.12C717.112 887.861 721.512 881.328 723.093 873.894C723.805 870.461 723.771 866.544 721.52 863.846C719.441 861.346 716.02 860.504 712.849 859.792C700.607 857.058 688.307 854.003 677.064 848.433C665.821 842.863 655.588 834.533 649.777 823.42" stroke="#171717" stroke-width="3.445" stroke-linecap="round" stroke-linejoin="round"/>
<path d="M617.149 892.47V902.932C617.18 902.945 617.214 902.952 617.249 902.955C617.422 902.955 617.605 902.76 617.536 902.588C617.518 902.554 617.494 902.524 617.465 902.5C617.435 902.476 617.402 902.458 617.365 902.447C617.329 902.436 617.29 902.433 617.253 902.437C617.215 902.442 617.179 902.454 617.146 902.473C617.116 902.485 617.089 902.504 617.067 902.528C617.045 902.551 617.029 902.58 617.02 902.611" stroke="#171717" stroke-width="3.445" stroke-linecap="round" stroke-linejoin="round"/>
<path d="M670.619 896.787C670.596 896.96 670.585 897.12 670.573 897.293C670.252 900.359 669.93 903.448 669.62 906.526" stroke="#171717" stroke-width="3.445" stroke-linecap="round" stroke-linejoin="round"/>
<path d="M617.229 903.219C620.64 903.598 624.051 903.942 627.461 904.252C641.346 905.527 655.257 906.312 669.195 906.606C669.333 906.606 669.482 906.606 669.62 906.618C687.547 906.974 706.163 906.296 722.12 898.165C715.195 909.455 702.93 916.69 690.113 920.009C677.296 923.328 663.848 923.121 650.641 922.317C637.745 921.536 624.905 920.211 612.123 918.344C603.234 917.044 594.242 915.438 586.214 911.407C586.065 911.327 590.681 900.382 591.164 899.429C594.931 901.772 602.201 901.404 606.531 901.955C610.087 902.415 613.653 902.836 617.229 903.219Z" stroke="#171717" stroke-width="3.445" stroke-linecap="round" stroke-linejoin="round"/>
<path d="M310.044 515.289C310.239 515.22 310.423 515.151 310.618 515.082C337.127 505.683 365.913 504.82 392.938 512.613L393.294 512.713" stroke="#171717" stroke-width="3.445" stroke-linecap="round" stroke-linejoin="round"/>
<path d="M560.852 802.179H560.864C592.135 801.171 622.515 791.514 648.628 774.279" stroke="#171717" stroke-width="3.445" stroke-linecap="round" stroke-linejoin="round"/>
<path d="M391.847 655.822C331.152 705.01 274.638 737.809 203.538 770.183" stroke="#171717" stroke-width="3.445" stroke-linecap="round" stroke-linejoin="round"/>
<path d="M728.868 365.474C739.661 333.983 748.736 301.929 756.052 269.453C758.096 260.381 759.996 251.277 761.752 242.143C761.763 242.074 761.775 242.017 761.786 241.948" stroke="#171717" stroke-width="3.445" stroke-linecap="round" stroke-linejoin="round"/>
<path d="M601.2 611.343C601.212 611.32 601.235 611.297 601.246 611.274C641.028 557.137 675.746 495.649 702.435 433.703" stroke="#171717" stroke-width="3.445" stroke-linecap="round" stroke-linejoin="round"/>
<path d="M250.406 898.408C250.506 898.362 250.612 898.316 250.716 898.258C308.138 871.752 362.016 839.642 414.747 800.664C426.232 791.477 436.567 783.437 448.052 774.25C476.763 748.984 503.177 726.016 528.443 697.305C530.848 695.021 533.103 692.585 535.195 690.012" stroke="#171717" stroke-width="3.445" stroke-linecap="round" stroke-linejoin="round"/>
<path d="M202.8 770.241C202.834 770.31 202.857 770.39 202.892 770.459C220.892 812.17 238.953 854.077 250.586 897.993C250.736 897.593 250.896 897.193 251.057 896.787" stroke="#171717" stroke-width="3.445" stroke-linecap="round" stroke-linejoin="round"/>
<path d="M694.231 217.463C694.22 217.498 694.208 217.543 694.197 217.578C672.043 281.006 649.3 334.65 617.86 394.024C617.848 394.058 617.825 394.081 617.814 394.116" stroke="#171717" stroke-width="3.445" stroke-linecap="round" stroke-linejoin="round"/>
<path d="M772.692 133.57C772.555 133.65 772.428 133.719 772.292 133.788C725.795 159.874 675.085 177.607 622.465 186.18" stroke="#171717" stroke-width="3.445" stroke-linecap="round" stroke-linejoin="round"/>
<path d="M694.036 217.521C670.229 208.127 644.917 198.48 622.465 186.181" stroke="#171717" stroke-width="3.445" stroke-linecap="round" stroke-linejoin="round"/>
<path d="M772.313 133.822C789.391 184.135 810.993 233.07 839.118 278.135C839.244 278.33 839.36 278.526 839.487 278.721" stroke="#171717" stroke-width="3.445" stroke-linecap="round" stroke-linejoin="round"/>
<path d="M761.736 242.144H761.748C787.381 254.249 813.006 266.349 838.624 278.444" stroke="#171717" stroke-width="3.445" stroke-linecap="round" stroke-linejoin="round"/>
<path d="M346.608 690.126C305.794 679.866 264.944 668.8 226.808 650.669C192.154 634.195 158.098 611.442 135.164 580.108C129.404 572.239 124.852 562.99 126.501 552.985C128.001 543.865 133.911 535.949 140.953 530.232C157.086 517.132 179.273 514.332 197.278 504.505C214.659 495.018 229.893 480.183 234.473 460.32C238.599 442.42 231.702 425.327 218.606 413.031C205.906 401.105 189.455 393.731 173.062 388.409C151.171 381.314 128.563 376.655 105.65 374.518C100.055 373.996 94.4487 373.626 88.8301 373.407" stroke="#171717" stroke-width="3.445" stroke-linecap="round" stroke-linejoin="round"/>
<path d="M655.854 922.736C600.188 920.304 506.625 913.211 451.499 900.578C440.015 898.278 428.531 895.985 422.789 884.5C414.749 868.422 423.937 852.344 437.718 842.008C453.796 830.524 471.023 824.781 488.25 816.742C492.843 814.442 495.14 811 498.585 808.703C499.734 806.403 502.031 805.258 504.328 802.961C512.367 793.774 516.96 782.289 514.664 769.656C511.218 755.875 503.179 744.391 490.727 737.168" stroke="#171717" stroke-width="3.445" stroke-linecap="round" stroke-linejoin="round"/>
<path d="M587.015 278.664C584.015 270.566 580.138 262.819 575.452 255.564" stroke="#171717" stroke-width="3.445" stroke-linecap="round" stroke-linejoin="round"/>
<path d="M570.676 289.464C566.22 279.995 561.269 270.768 555.844 261.819" stroke="#171717" stroke-width="3.445" stroke-linecap="round" stroke-linejoin="round"/>
<path d="M552.501 300.79C547.457 291.38 541.942 282.23 535.977 273.376" stroke="#171717" stroke-width="3.445" stroke-linecap="round" stroke-linejoin="round"/>
<path d="M536.808 308.015L522.278 287.101" stroke="#171717" stroke-width="3.445" stroke-linecap="round" stroke-linejoin="round"/>
<path d="M523.534 312.758C519.731 308.783 516.374 304.404 513.522 299.7" stroke="#171717" stroke-width="3.445" stroke-linecap="round" stroke-linejoin="round"/>
<path d="M520.9 238.985C519.465 236.974 517.5 235.399 515.225 234.437C512.949 233.474 510.451 233.161 508.008 233.531C505.576 233.961 503.289 234.987 501.351 236.518C499.412 238.048 497.883 240.035 496.9 242.3C496.295 243.551 495.947 244.911 495.876 246.299C495.806 247.687 496.016 249.075 496.492 250.38C497.776 253.392 500.853 255.259 503.951 256.316C506.686 257.318 509.622 257.645 512.51 257.267C521.09 255.933 525.954 246.455 520.9 238.985Z" stroke="#171717" stroke-width="3.445" stroke-linecap="round" stroke-linejoin="round"/>
<path d="M579.648 377.556C578.803 383.664 578.195 389.797 577.824 395.956C577.847 395.77 577.871 395.584 577.894 395.399" stroke="#171717" stroke-width="3.445" stroke-linecap="round" stroke-linejoin="round"/>
<path d="M560.91 395.2C561.18 388.938 561.856 382.699 562.934 376.524" stroke="#171717" stroke-width="3.445" stroke-linecap="round" stroke-linejoin="round"/>
<path d="M531.154 393.578C531.104 387.907 531.638 382.246 532.747 376.685" stroke="#171717" stroke-width="3.445" stroke-linecap="round" stroke-linejoin="round"/>
<path d="M546.049 394.182C546.628 388.376 547.207 382.571 547.787 376.765" stroke="#171717" stroke-width="3.445" stroke-linecap="round" stroke-linejoin="round"/>
<path d="M389.389 336.375L376.4 334.044" stroke="url(#paint14_linear_38_4073)" stroke-width="3.445" stroke-linecap="round" stroke-linejoin="round"/>
<path d="M389.424 372.294C388.424 367.984 387.421 363.674 386.415 359.364" stroke="url(#paint15_linear_38_4073)" stroke-width="3.445" stroke-linecap="round" stroke-linejoin="round"/>
<path d="M414.879 362.543C416.511 357.842 417.52 352.947 417.879 347.983" stroke="url(#paint16_linear_38_4073)" stroke-width="3.445" stroke-linecap="round" stroke-linejoin="round"/>
<path d="M436.453 366.579L445.819 370.528" stroke="url(#paint17_linear_38_4073)" stroke-width="3.445" stroke-linecap="round" stroke-linejoin="round"/>
<path d="M425.972 390.885C423.285 387.2 421.126 383.158 419.556 378.876" stroke="url(#paint18_linear_38_4073)" stroke-width="3.445" stroke-linecap="round" stroke-linejoin="round"/>
<path d="M448.139 386.014L458.363 378.022" stroke="url(#paint19_linear_38_4073)" stroke-width="3.445" stroke-linecap="round" stroke-linejoin="round"/>
<path d="M465.747 400.994C468.294 405.023 470.841 409.052 473.389 413.081" stroke="url(#paint20_linear_38_4073)" stroke-width="3.445" stroke-linecap="round" stroke-linejoin="round"/>
<path d="M493.6 398.663L500.5 393" stroke="url(#paint21_linear_38_4073)" stroke-width="3.445" stroke-linecap="round" stroke-linejoin="round"/>
<path d="M517.484 438.782L512.216 430.269" stroke="url(#paint22_linear_38_4073)" stroke-width="3.445" stroke-linecap="round" stroke-linejoin="round"/>
<path d="M496.423 460.253L502.097 454.579" stroke="url(#paint23_linear_38_4073)" stroke-width="3.445" stroke-linecap="round" stroke-linejoin="round"/>
<path d="M550 429.834C548.981 426.441 547.298 423.284 545.05 420.547" stroke="url(#paint24_linear_38_4073)" stroke-width="3.445" stroke-linecap="round" stroke-linejoin="round"/>
<path d="M528.762 468.676L535.319 462.264" stroke="url(#paint25_linear_38_4073)" stroke-width="3.445" stroke-linecap="round" stroke-linejoin="round"/>
<path d="M561.529 462.814L554.719 454.641" stroke="url(#paint26_linear_38_4073)" stroke-width="3.445" stroke-linecap="round" stroke-linejoin="round"/>
<path d="M568.181 420.543C570.207 418.11 572.232 415.677 574.258 413.243" stroke="url(#paint27_linear_38_4073)" stroke-width="3.445" stroke-linecap="round" stroke-linejoin="round"/>
<path d="M761.856 406.7C764.422 403.321 766.988 399.942 769.556 396.564" stroke="url(#paint28_linear_38_4073)" stroke-width="3.445" stroke-linecap="round" stroke-linejoin="round"/>
<path d="M755.025 380L746.918 373.109" stroke="url(#paint29_linear_38_4073)" stroke-width="3.445" stroke-linecap="round" stroke-linejoin="round"/>
<path d="M716.112 403.912L725.435 392.563" stroke="url(#paint30_linear_38_4073)" stroke-width="3.445" stroke-linecap="round" stroke-linejoin="round"/>
<path d="M702.736 389.32L697.467 384.862" stroke="url(#paint31_linear_38_4073)" stroke-width="3.445" stroke-linecap="round" stroke-linejoin="round"/>
<path d="M680.89 425.421C683.523 421.258 686.378 417.24 689.442 413.383" stroke="url(#paint32_linear_38_4073)" stroke-width="3.445" stroke-linecap="round" stroke-linejoin="round"/>
<path d="M695.544 422.269L703.871 425.221" stroke="url(#paint33_linear_38_4073)" stroke-width="3.445" stroke-linecap="round" stroke-linejoin="round"/>
<path d="M641.481 414.008L649.987 402.249" stroke="url(#paint34_linear_38_4073)" stroke-width="3.445" stroke-linecap="round" stroke-linejoin="round"/>
<path d="M638.677 430.281L630.563 423.805" stroke="url(#paint35_linear_38_4073)" stroke-width="3.445" stroke-linecap="round" stroke-linejoin="round"/>
<path d="M586.038 442.033C588.584 437.562 591.13 433.091 593.677 428.622" stroke="url(#paint36_linear_38_4073)" stroke-width="3.445" stroke-linecap="round" stroke-linejoin="round"/>
<path d="M614.5 413.087L607.53 407.101" stroke="url(#paint37_linear_38_4073)" stroke-width="3.445" stroke-linecap="round" stroke-linejoin="round"/>
<path d="M593.3 482.953C591.187 480.791 588.717 479.008 586 477.684" stroke="url(#paint38_linear_38_4073)" stroke-width="3.445" stroke-linecap="round" stroke-linejoin="round"/>
<path d="M554.359 505.227C556.241 502.383 558.123 499.539 560.003 496.694" stroke="url(#paint39_linear_38_4073)" stroke-width="3.445" stroke-linecap="round" stroke-linejoin="round"/>
<path d="M533.333 498.743C531.95 496.789 529.934 495.373 527.626 494.735" stroke="url(#paint40_linear_38_4073)" stroke-width="3.445" stroke-linecap="round" stroke-linejoin="round"/>
<path d="M493.613 509.722L499.613 501.156" stroke="url(#paint41_linear_38_4073)" stroke-width="3.445" stroke-linecap="round" stroke-linejoin="round"/>
<path d="M498.45 481.736L491.457 476.936C491.399 476.93 491.345 476.908 491.299 476.872C491.254 476.836 491.219 476.788 491.2 476.734C491.18 476.679 491.176 476.62 491.189 476.564C491.201 476.507 491.229 476.455 491.269 476.414C491.31 476.372 491.361 476.343 491.417 476.329C491.473 476.315 491.532 476.318 491.587 476.336C491.642 476.354 491.691 476.387 491.728 476.432C491.765 476.476 491.789 476.53 491.797 476.587" stroke="url(#paint42_linear_38_4073)" stroke-width="3.445" stroke-linecap="round" stroke-linejoin="round"/>
<path d="M586.581 511.469L582.242 504.504" stroke="url(#paint43_linear_38_4073)" stroke-width="3.445" stroke-linecap="round" stroke-linejoin="round"/>
<path d="M602.35 724.394L606.944 707.37" stroke="url(#paint44_linear_38_4073)" stroke-width="3.445" stroke-linecap="round" stroke-linejoin="round"/>
<path d="M589.65 704.397L606.944 707.37" stroke="url(#paint45_linear_38_4073)" stroke-width="3.445" stroke-linecap="round" stroke-linejoin="round"/>
<path d="M602.35 724.394L589.65 704.397" stroke="url(#paint46_linear_38_4073)" stroke-width="3.445" stroke-linecap="round" stroke-linejoin="round"/>
<path d="M547.765 651.975L556.683 630.628" stroke="url(#paint47_linear_38_4073)" stroke-width="3.445" stroke-linecap="round" stroke-linejoin="round"/>
<path d="M569.383 650.894L556.683 630.628" stroke="url(#paint48_linear_38_4073)" stroke-width="3.445" stroke-linecap="round" stroke-linejoin="round"/>
<path d="M547.765 651.976L569.383 650.895" stroke="url(#paint49_linear_38_4073)" stroke-width="3.445" stroke-linecap="round" stroke-linejoin="round"/>
<path d="M570.464 693.859L576.138 679.537" stroke="url(#paint50_linear_38_4073)" stroke-width="3.445" stroke-linecap="round" stroke-linejoin="round"/>
<path d="M563.979 677.376L576.138 679.537" stroke="url(#paint51_linear_38_4073)" stroke-width="3.445" stroke-linecap="round" stroke-linejoin="round"/>
<path d="M570.464 693.859L563.979 677.376" stroke="url(#paint52_linear_38_4073)" stroke-width="3.445" stroke-linecap="round" stroke-linejoin="round"/>
<path d="M465.82 574.76L476.36 582.259" stroke="url(#paint53_linear_38_4073)" stroke-width="3.445" stroke-linecap="round" stroke-linejoin="round"/>
<path d="M480.007 570.099L476.156 582.867" stroke="url(#paint54_linear_38_4073)" stroke-width="3.445" stroke-linecap="round" stroke-linejoin="round"/>
<path d="M465.82 574.76L480.007 570.099" stroke="url(#paint55_linear_38_4073)" stroke-width="3.445" stroke-linecap="round" stroke-linejoin="round"/>
<path d="M434.813 639.41L421.438 613.874" stroke="url(#paint56_linear_38_4073)" stroke-width="3.445" stroke-linecap="round" stroke-linejoin="round"/>
<path d="M401.778 637.18L421.437 613.874" stroke="url(#paint57_linear_38_4073)" stroke-width="3.445" stroke-linecap="round" stroke-linejoin="round"/>
<path d="M434.813 639.411L401.778 637.181" stroke="url(#paint58_linear_38_4073)" stroke-width="3.445" stroke-linecap="round" stroke-linejoin="round"/>
<path d="M369.555 558.345L363.07 568.275" stroke="url(#paint59_linear_38_4073)" stroke-width="3.445" stroke-linecap="round" stroke-linejoin="round"/>
<path d="M374.215 569.895L363.07 568.274" stroke="url(#paint60_linear_38_4073)" stroke-width="3.445" stroke-linecap="round" stroke-linejoin="round"/>
<path d="M369.555 558.345L374.215 569.896" stroke="url(#paint61_linear_38_4073)" stroke-width="3.445" stroke-linecap="round" stroke-linejoin="round"/>
<path d="M321.727 536.456L337.939 539.495" stroke="url(#paint62_linear_38_4073)" stroke-width="3.445" stroke-linecap="round" stroke-linejoin="round"/>
<path d="M331.656 559.357L337.938 539.495" stroke="url(#paint63_linear_38_4073)" stroke-width="3.445" stroke-linecap="round" stroke-linejoin="round"/>
<path d="M321.727 536.456L331.657 559.357" stroke="url(#paint64_linear_38_4073)" stroke-width="3.445" stroke-linecap="round" stroke-linejoin="round"/>
<path d="M625.319 769.521L607.214 761.955" stroke="url(#paint65_linear_38_4073)" stroke-width="3.445" stroke-linecap="round" stroke-linejoin="round"/>
<path d="M603.971 783.302L607.214 761.955" stroke="url(#paint66_linear_38_4073)" stroke-width="3.445" stroke-linecap="round" stroke-linejoin="round"/>
<path d="M625.319 769.521L603.971 783.302" stroke="url(#paint67_linear_38_4073)" stroke-width="3.445" stroke-linecap="round" stroke-linejoin="round"/>
<path d="M554.791 577.395L568.842 584.961" stroke="url(#paint68_linear_38_4073)" stroke-width="3.445" stroke-linecap="round" stroke-linejoin="round"/>
<path d="M572.896 570.368L568.842 585.771" stroke="url(#paint69_linear_38_4073)" stroke-width="3.445" stroke-linecap="round" stroke-linejoin="round"/>
<path d="M554.791 577.394L572.896 570.368" stroke="url(#paint70_linear_38_4073)" stroke-width="3.445" stroke-linecap="round" stroke-linejoin="round"/>
<path d="M355.097 607.389L369.15 603.605" stroke="url(#paint71_linear_38_4073)" stroke-width="3.445" stroke-linecap="round" stroke-linejoin="round"/>
<path d="M368.069 620.899L369.15 603.605" stroke="url(#paint72_linear_38_4073)" stroke-width="3.445" stroke-linecap="round" stroke-linejoin="round"/>
<path d="M355.097 607.39L368.069 620.9" stroke="url(#paint73_linear_38_4073)" stroke-width="3.445" stroke-linecap="round" stroke-linejoin="round"/>
<path d="M777.331 111.841L795.995 42.8174" stroke="#171717" stroke-width="3.445" stroke-linecap="round" stroke-linejoin="round"/>
<path d="M792.551 127.592L810.112 110.747" stroke="#171717" stroke-width="3.445" stroke-linecap="round" stroke-linejoin="round"/>
<path d="M803.611 145.987L869.454 117.405" stroke="#171717" stroke-width="3.445" stroke-linecap="round" stroke-linejoin="round"/>
<path d="M758.227 114.825L749.395 97.6992" stroke="#171717" stroke-width="3.445" stroke-linecap="round" stroke-linejoin="round"/>
<path d="M743.807 126.673L703.018 84.8545" stroke="#171717" stroke-width="3.445" stroke-linecap="round" stroke-linejoin="round"/>
<path d="M320.5 472.364C324.033 471.868 327.424 470.642 330.457 468.764C333.49 466.886 336.099 464.397 338.117 461.455" stroke="#171717" stroke-width="3.445" stroke-linecap="round" stroke-linejoin="round"/>
<path d="M309.573 467.224C313.243 466.842 316.79 465.681 319.975 463.818C323.16 461.956 325.911 459.435 328.044 456.424" stroke="#171717" stroke-width="3.445" stroke-linecap="round" stroke-linejoin="round"/>
<path d="M300.021 462.573C306.913 461.29 313.174 457.729 317.801 452.461" stroke="#171717" stroke-width="3.445" stroke-linecap="round" stroke-linejoin="round"/>
<path d="M682.287 851.008C678.443 852.563 674.957 854.886 672.042 857.836C669.128 860.785 666.846 864.299 665.338 868.162" stroke="#171717" stroke-width="3.445" stroke-linecap="round" stroke-linejoin="round"/>
<path d="M667.206 842.488C662.918 844.351 659.173 847.271 656.322 850.976C653.471 854.682 651.608 859.05 650.906 863.672" stroke="#171717" stroke-width="3.445" stroke-linecap="round" stroke-linejoin="round"/>
<path d="M656.329 831.721C650.778 833.406 645.779 836.547 641.85 840.816C637.922 845.086 635.208 850.328 633.989 856.001" stroke="#171717" stroke-width="3.445" stroke-linecap="round" stroke-linejoin="round"/>
<path d="M609.844 158.122L600.918 153.309L591.894 157.935L593.712 147.958L586.525 140.804L596.575 139.451L601.158 130.405L605.55 139.545L615.57 141.108L608.235 148.11L609.844 158.122Z" fill="#171717"/>
<path d="M297.286 233.206L315.186 229.042" stroke="#171717" stroke-width="3.445" stroke-linecap="round" stroke-linejoin="round"/>
<path d="M303.516 222.26L308.874 240.001" stroke="#171717" stroke-width="3.445" stroke-linecap="round" stroke-linejoin="round"/>
<path d="M863.524 480.263L856.407 474.645L847.746 477.323L850.89 468.819L845.666 461.41L854.725 461.771L860.159 454.514L862.614 463.241L871.195 466.166L863.653 471.198L863.524 480.263Z" stroke="#171717" stroke-width="3.445" stroke-linecap="round" stroke-linejoin="round"/>
<path d="M773.654 460.343L787.829 470.493" stroke="#171717" stroke-width="3.445" stroke-linecap="round" stroke-linejoin="round"/>
<path d="M786.46 458.468L774.96 472.316" stroke="#171717" stroke-width="3.445" stroke-linecap="round" stroke-linejoin="round"/>
<path d="M815.477 420.2L837.277 435.81" stroke="#171717" stroke-width="3.445" stroke-linecap="round" stroke-linejoin="round"/>
<path d="M835.17 417.32C829.277 424.419 823.385 431.519 817.491 438.62" stroke="#171717" stroke-width="3.445" stroke-linecap="round" stroke-linejoin="round"/>
<path d="M347.766 201.245L340.65 195.627L331.988 198.305L335.132 189.801L329.909 182.391L338.967 182.753L344.401 175.496L346.856 184.223L355.437 187.148L347.895 192.179L347.766 201.245Z" stroke="#171717" stroke-width="3.445" stroke-linecap="round" stroke-linejoin="round"/>
<path d="M669.667 662.131L681.585 648.141" stroke="#171717" stroke-width="3.445" stroke-linecap="round" stroke-linejoin="round"/>
<path d="M668.167 649.623L683.023 660.7" stroke="#171717" stroke-width="3.445" stroke-linecap="round" stroke-linejoin="round"/>
<path d="M691.254 606.419L682.193 606.133L676.821 613.435L674.292 604.729L665.686 601.876L673.186 596.782L673.24 587.716L680.403 593.273L689.041 590.524L685.969 599.053L691.254 606.419Z" fill="#171717"/>
<path d="M286.593 479.107C280.99 475.246 276.69 469.776 274.261 463.42C271.833 457.064 271.391 450.12 272.993 443.507" stroke="#171717" stroke-width="3.445" stroke-linecap="round" stroke-linejoin="round"/>
<path d="M267.071 475.159C264.632 473.352 262.836 470.811 261.945 467.908C261.055 465.006 261.117 461.895 262.123 459.03" stroke="#171717" stroke-width="3.445" stroke-linecap="round" stroke-linejoin="round"/>
<path d="M861.2 373.08C874.714 361.743 883.757 345.97 886.713 328.58" stroke="#171717" stroke-width="3.445" stroke-linecap="round" stroke-linejoin="round"/>
<path d="M561.3 851.385C552.578 837.911 548.326 822.03 549.149 806" stroke="#171717" stroke-width="3.445" stroke-linecap="round" stroke-linejoin="round"/>
<path d="M542.567 839.27C539.514 832.972 538.422 825.903 539.431 818.978" stroke="#171717" stroke-width="3.445" stroke-linecap="round" stroke-linejoin="round"/>
<g opacity="0.1">
<path d="M321.417 361.21C335.426 369.728 351.832 373.72 367.264 379.077C382.31 384.3 397.228 389.877 412.018 395.808C426.484 401.608 440.798 407.77 454.959 414.293C462.338 417.685 469.606 421.308 476.972 424.725C484.572 428.252 492.626 432.917 501.046 433.684L491.661 424.298C491.434 429.637 489.11 433.355 487.061 438.126C484.952 443.026 483.486 448.249 481.84 453.326C478.84 462.588 476.191 471.968 473.58 481.347C468.186 500.727 463.006 520.165 458.371 539.747C455.149 553.359 476.463 559.098 479.254 545.504C483.106 526.74 487.246 508.02 492.108 489.49C496.964 470.984 503.547 452.546 505.757 433.576L504.707 437.457C506.009 434.561 507.494 431.751 509.153 429.044C511.574 425.401 510.318 420.718 507.686 417.671C502.535 411.709 493.553 408.034 486.595 404.571C479.328 400.956 471.942 397.559 464.559 394.188C449.476 387.302 434.234 380.775 418.834 374.606C403.762 368.557 388.551 362.874 373.201 357.557C357.756 352.208 342.085 346.157 325.631 345.669C317.157 345.416 314.546 357.037 321.42 361.218L321.417 361.21Z" fill="#171717"/>
</g>
<g opacity="0.1">
<path d="M617.272 443.4C623.448 450.251 635.228 447.221 643.139 446.268C652.482 445.142 661.793 443.699 671.079 442.183C688.525 439.335 705.871 435.967 723.118 432.078C758.23 424.232 792.856 414.347 826.818 402.473C832.165 400.592 835.729 395.297 834.151 389.557C832.723 384.357 826.614 380.348 821.235 382.223C787.593 394.052 753.326 404.022 718.588 412.086C701.373 416.033 684.059 419.523 666.645 422.555C657.945 424.071 649.219 425.382 640.502 426.78C632.602 428.047 620.714 427.993 616.326 436.072C615.684 437.235 615.43 438.573 615.6 439.891C615.77 441.209 616.356 442.438 617.272 443.4V443.4Z" fill="#171717"/>
</g>
</g>
<defs>
<linearGradient id="paint0_linear_38_4073" x1="728.487" y1="133.788" x2="728.487" y2="394.026" gradientUnits="userSpaceOnUse">
<stop stop-color="#42E670"/>
<stop offset="1" stop-color="#07AA50"/>
</linearGradient>
<linearGradient id="paint1_linear_38_4073" x1="797.749" y1="343.842" x2="797.749" y2="410.023" gradientUnits="userSpaceOnUse">
<stop stop-color="#42E670"/>
<stop offset="1" stop-color="#07AA50"/>
</linearGradient>
<linearGradient id="paint2_linear_38_4073" x1="653.5" y1="823.241" x2="653.5" y2="898.17" gradientUnits="userSpaceOnUse">
<stop stop-color="#42E670"/>
<stop offset="1" stop-color="#07AA50"/>
</linearGradient>
<linearGradient id="paint3_linear_38_4073" x1="644.366" y1="433.576" x2="644.366" y2="611.274" gradientUnits="userSpaceOnUse">
<stop stop-color="#42E670"/>
<stop offset="1" stop-color="#07AA50"/>
</linearGradient>
<linearGradient id="paint4_linear_38_4073" x1="584.725" y1="528.76" x2="584.725" y2="563.701" gradientUnits="userSpaceOnUse">
<stop stop-color="#42E670"/>
<stop offset="1" stop-color="#07AA50"/>
</linearGradient>
<linearGradient id="paint5_linear_38_4073" x1="553.731" y1="254.582" x2="553.731" y2="313.358" gradientUnits="userSpaceOnUse">
<stop stop-color="#42E670"/>
<stop offset="1" stop-color="#07AA50"/>
</linearGradient>
<linearGradient id="paint6_linear_38_4073" x1="560.742" y1="525.405" x2="560.742" y2="562.5" gradientUnits="userSpaceOnUse">
<stop stop-color="#42E670"/>
<stop offset="1" stop-color="#07AA50"/>
</linearGradient>
<linearGradient id="paint7_linear_38_4073" x1="530.711" y1="521.715" x2="530.711" y2="560.291" gradientUnits="userSpaceOnUse">
<stop stop-color="#42E670"/>
<stop offset="1" stop-color="#07AA50"/>
</linearGradient>
<linearGradient id="paint8_linear_38_4073" x1="369.195" y1="606.554" x2="369.195" y2="898.257" gradientUnits="userSpaceOnUse">
<stop stop-color="#42E670"/>
<stop offset="1" stop-color="#07AA50"/>
</linearGradient>
<linearGradient id="paint9_linear_38_4073" x1="539.345" y1="246.456" x2="539.345" y2="297.203" gradientUnits="userSpaceOnUse">
<stop stop-color="#42E670"/>
<stop offset="1" stop-color="#07AA50"/>
</linearGradient>
<linearGradient id="paint10_linear_38_4073" x1="500.019" y1="519.219" x2="500.019" y2="557.517" gradientUnits="userSpaceOnUse">
<stop stop-color="#42E670"/>
<stop offset="1" stop-color="#07AA50"/>
</linearGradient>
<linearGradient id="paint11_linear_38_4073" x1="472.681" y1="519.136" x2="472.681" y2="554.898" gradientUnits="userSpaceOnUse">
<stop stop-color="#42E670"/>
<stop offset="1" stop-color="#07AA50"/>
</linearGradient>
<linearGradient id="paint12_linear_38_4073" x1="343.014" y1="422.217" x2="343.014" y2="477.757" gradientUnits="userSpaceOnUse">
<stop stop-color="#42E670"/>
<stop offset="1" stop-color="#07AA50"/>
</linearGradient>
<linearGradient id="paint13_linear_38_4073" x1="346.098" y1="301.837" x2="346.098" y2="365.106" gradientUnits="userSpaceOnUse">
<stop stop-color="#42E670"/>
<stop offset="1" stop-color="#07AA50"/>
</linearGradient>
<linearGradient id="paint14_linear_38_4073" x1="382.895" y1="334.044" x2="382.895" y2="336.375" gradientUnits="userSpaceOnUse">
<stop stop-color="#42E670"/>
<stop offset="1" stop-color="#07AA50"/>
</linearGradient>
<linearGradient id="paint15_linear_38_4073" x1="387.92" y1="359.364" x2="387.92" y2="372.294" gradientUnits="userSpaceOnUse">
<stop stop-color="#42E670"/>
<stop offset="1" stop-color="#07AA50"/>
</linearGradient>
<linearGradient id="paint16_linear_38_4073" x1="416.379" y1="347.983" x2="416.379" y2="362.543" gradientUnits="userSpaceOnUse">
<stop stop-color="#42E670"/>
<stop offset="1" stop-color="#07AA50"/>
</linearGradient>
<linearGradient id="paint17_linear_38_4073" x1="441.136" y1="366.579" x2="441.136" y2="370.528" gradientUnits="userSpaceOnUse">
<stop stop-color="#42E670"/>
<stop offset="1" stop-color="#07AA50"/>
</linearGradient>
<linearGradient id="paint18_linear_38_4073" x1="422.764" y1="378.876" x2="422.764" y2="390.885" gradientUnits="userSpaceOnUse">
<stop stop-color="#42E670"/>
<stop offset="1" stop-color="#07AA50"/>
</linearGradient>
<linearGradient id="paint19_linear_38_4073" x1="453.251" y1="378.022" x2="453.251" y2="386.014" gradientUnits="userSpaceOnUse">
<stop stop-color="#42E670"/>
<stop offset="1" stop-color="#07AA50"/>
</linearGradient>
<linearGradient id="paint20_linear_38_4073" x1="469.568" y1="400.994" x2="469.568" y2="413.081" gradientUnits="userSpaceOnUse">
<stop stop-color="#42E670"/>
<stop offset="1" stop-color="#07AA50"/>
</linearGradient>
<linearGradient id="paint21_linear_38_4073" x1="497.05" y1="393" x2="497.05" y2="398.663" gradientUnits="userSpaceOnUse">
<stop stop-color="#42E670"/>
<stop offset="1" stop-color="#07AA50"/>
</linearGradient>
<linearGradient id="paint22_linear_38_4073" x1="514.85" y1="430.269" x2="514.85" y2="438.782" gradientUnits="userSpaceOnUse">
<stop stop-color="#42E670"/>
<stop offset="1" stop-color="#07AA50"/>
</linearGradient>
<linearGradient id="paint23_linear_38_4073" x1="499.26" y1="454.579" x2="499.26" y2="460.253" gradientUnits="userSpaceOnUse">
<stop stop-color="#42E670"/>
<stop offset="1" stop-color="#07AA50"/>
</linearGradient>
<linearGradient id="paint24_linear_38_4073" x1="547.525" y1="420.547" x2="547.525" y2="429.834" gradientUnits="userSpaceOnUse">
<stop stop-color="#42E670"/>
<stop offset="1" stop-color="#07AA50"/>
</linearGradient>
<linearGradient id="paint25_linear_38_4073" x1="532.04" y1="462.264" x2="532.04" y2="468.676" gradientUnits="userSpaceOnUse">
<stop stop-color="#42E670"/>
<stop offset="1" stop-color="#07AA50"/>
</linearGradient>
<linearGradient id="paint26_linear_38_4073" x1="558.124" y1="454.641" x2="558.124" y2="462.814" gradientUnits="userSpaceOnUse">
<stop stop-color="#42E670"/>
<stop offset="1" stop-color="#07AA50"/>
</linearGradient>
<linearGradient id="paint27_linear_38_4073" x1="571.219" y1="413.243" x2="571.219" y2="420.543" gradientUnits="userSpaceOnUse">
<stop stop-color="#42E670"/>
<stop offset="1" stop-color="#07AA50"/>
</linearGradient>
<linearGradient id="paint28_linear_38_4073" x1="765.706" y1="396.564" x2="765.706" y2="406.7" gradientUnits="userSpaceOnUse">
<stop stop-color="#42E670"/>
<stop offset="1" stop-color="#07AA50"/>
</linearGradient>
<linearGradient id="paint29_linear_38_4073" x1="750.971" y1="373.109" x2="750.971" y2="380" gradientUnits="userSpaceOnUse">
<stop stop-color="#42E670"/>
<stop offset="1" stop-color="#07AA50"/>
</linearGradient>
<linearGradient id="paint30_linear_38_4073" x1="720.774" y1="392.563" x2="720.774" y2="403.912" gradientUnits="userSpaceOnUse">
<stop stop-color="#42E670"/>
<stop offset="1" stop-color="#07AA50"/>
</linearGradient>
<linearGradient id="paint31_linear_38_4073" x1="700.101" y1="384.862" x2="700.101" y2="389.32" gradientUnits="userSpaceOnUse">
<stop stop-color="#42E670"/>
<stop offset="1" stop-color="#07AA50"/>
</linearGradient>
<linearGradient id="paint32_linear_38_4073" x1="685.166" y1="413.383" x2="685.166" y2="425.421" gradientUnits="userSpaceOnUse">
<stop stop-color="#42E670"/>
<stop offset="1" stop-color="#07AA50"/>
</linearGradient>
<linearGradient id="paint33_linear_38_4073" x1="699.707" y1="422.269" x2="699.707" y2="425.221" gradientUnits="userSpaceOnUse">
<stop stop-color="#42E670"/>
<stop offset="1" stop-color="#07AA50"/>
</linearGradient>
<linearGradient id="paint34_linear_38_4073" x1="645.734" y1="402.249" x2="645.734" y2="414.008" gradientUnits="userSpaceOnUse">
<stop stop-color="#42E670"/>
<stop offset="1" stop-color="#07AA50"/>
</linearGradient>
<linearGradient id="paint35_linear_38_4073" x1="634.62" y1="423.805" x2="634.62" y2="430.281" gradientUnits="userSpaceOnUse">
<stop stop-color="#42E670"/>
<stop offset="1" stop-color="#07AA50"/>
</linearGradient>
<linearGradient id="paint36_linear_38_4073" x1="589.858" y1="428.622" x2="589.858" y2="442.033" gradientUnits="userSpaceOnUse">
<stop stop-color="#42E670"/>
<stop offset="1" stop-color="#07AA50"/>
</linearGradient>
<linearGradient id="paint37_linear_38_4073" x1="611.015" y1="407.101" x2="611.015" y2="413.087" gradientUnits="userSpaceOnUse">
<stop stop-color="#42E670"/>
<stop offset="1" stop-color="#07AA50"/>
</linearGradient>
<linearGradient id="paint38_linear_38_4073" x1="589.65" y1="477.684" x2="589.65" y2="482.953" gradientUnits="userSpaceOnUse">
<stop stop-color="#42E670"/>
<stop offset="1" stop-color="#07AA50"/>
</linearGradient>
<linearGradient id="paint39_linear_38_4073" x1="557.181" y1="496.694" x2="557.181" y2="505.227" gradientUnits="userSpaceOnUse">
<stop stop-color="#42E670"/>
<stop offset="1" stop-color="#07AA50"/>
</linearGradient>
<linearGradient id="paint40_linear_38_4073" x1="530.479" y1="494.735" x2="530.479" y2="498.743" gradientUnits="userSpaceOnUse">
<stop stop-color="#42E670"/>
<stop offset="1" stop-color="#07AA50"/>
</linearGradient>
<linearGradient id="paint41_linear_38_4073" x1="496.613" y1="501.156" x2="496.613" y2="509.722" gradientUnits="userSpaceOnUse">
<stop stop-color="#42E670"/>
<stop offset="1" stop-color="#07AA50"/>
</linearGradient>
<linearGradient id="paint42_linear_38_4073" x1="494.816" y1="476.32" x2="494.816" y2="481.736" gradientUnits="userSpaceOnUse">
<stop stop-color="#42E670"/>
<stop offset="1" stop-color="#07AA50"/>
</linearGradient>
<linearGradient id="paint43_linear_38_4073" x1="584.412" y1="504.504" x2="584.412" y2="511.469" gradientUnits="userSpaceOnUse">
<stop stop-color="#42E670"/>
<stop offset="1" stop-color="#07AA50"/>
</linearGradient>
<linearGradient id="paint44_linear_38_4073" x1="604.647" y1="707.37" x2="604.647" y2="724.394" gradientUnits="userSpaceOnUse">
<stop stop-color="#42E670"/>
<stop offset="1" stop-color="#07AA50"/>
</linearGradient>
<linearGradient id="paint45_linear_38_4073" x1="598.297" y1="704.397" x2="598.297" y2="707.37" gradientUnits="userSpaceOnUse">
<stop stop-color="#42E670"/>
<stop offset="1" stop-color="#07AA50"/>
</linearGradient>
<linearGradient id="paint46_linear_38_4073" x1="596" y1="704.397" x2="596" y2="724.394" gradientUnits="userSpaceOnUse">
<stop stop-color="#42E670"/>
<stop offset="1" stop-color="#07AA50"/>
</linearGradient>
<linearGradient id="paint47_linear_38_4073" x1="552.224" y1="630.628" x2="552.224" y2="651.975" gradientUnits="userSpaceOnUse">
<stop stop-color="#42E670"/>
<stop offset="1" stop-color="#07AA50"/>
</linearGradient>
<linearGradient id="paint48_linear_38_4073" x1="563.033" y1="630.628" x2="563.033" y2="650.894" gradientUnits="userSpaceOnUse">
<stop stop-color="#42E670"/>
<stop offset="1" stop-color="#07AA50"/>
</linearGradient>
<linearGradient id="paint49_linear_38_4073" x1="558.574" y1="650.895" x2="558.574" y2="651.976" gradientUnits="userSpaceOnUse">
<stop stop-color="#42E670"/>
<stop offset="1" stop-color="#07AA50"/>
</linearGradient>
<linearGradient id="paint50_linear_38_4073" x1="573.301" y1="679.537" x2="573.301" y2="693.859" gradientUnits="userSpaceOnUse">
<stop stop-color="#42E670"/>
<stop offset="1" stop-color="#07AA50"/>
</linearGradient>
<linearGradient id="paint51_linear_38_4073" x1="570.059" y1="677.376" x2="570.059" y2="679.537" gradientUnits="userSpaceOnUse">
<stop stop-color="#42E670"/>
<stop offset="1" stop-color="#07AA50"/>
</linearGradient>
<linearGradient id="paint52_linear_38_4073" x1="567.222" y1="677.376" x2="567.222" y2="693.859" gradientUnits="userSpaceOnUse">
<stop stop-color="#42E670"/>
<stop offset="1" stop-color="#07AA50"/>
</linearGradient>
<linearGradient id="paint53_linear_38_4073" x1="471.09" y1="574.76" x2="471.09" y2="582.259" gradientUnits="userSpaceOnUse">
<stop stop-color="#42E670"/>
<stop offset="1" stop-color="#07AA50"/>
</linearGradient>
<linearGradient id="paint54_linear_38_4073" x1="478.082" y1="570.099" x2="478.082" y2="582.867" gradientUnits="userSpaceOnUse">
<stop stop-color="#42E670"/>
<stop offset="1" stop-color="#07AA50"/>
</linearGradient>
<linearGradient id="paint55_linear_38_4073" x1="472.914" y1="570.099" x2="472.914" y2="574.76" gradientUnits="userSpaceOnUse">
<stop stop-color="#42E670"/>
<stop offset="1" stop-color="#07AA50"/>
</linearGradient>
<linearGradient id="paint56_linear_38_4073" x1="428.125" y1="613.874" x2="428.125" y2="639.41" gradientUnits="userSpaceOnUse">
<stop stop-color="#42E670"/>
<stop offset="1" stop-color="#07AA50"/>
</linearGradient>
<linearGradient id="paint57_linear_38_4073" x1="411.608" y1="613.874" x2="411.608" y2="637.18" gradientUnits="userSpaceOnUse">
<stop stop-color="#42E670"/>
<stop offset="1" stop-color="#07AA50"/>
</linearGradient>
<linearGradient id="paint58_linear_38_4073" x1="418.296" y1="637.181" x2="418.296" y2="639.411" gradientUnits="userSpaceOnUse">
<stop stop-color="#42E670"/>
<stop offset="1" stop-color="#07AA50"/>
</linearGradient>
<linearGradient id="paint59_linear_38_4073" x1="366.313" y1="558.345" x2="366.313" y2="568.275" gradientUnits="userSpaceOnUse">
<stop stop-color="#42E670"/>
<stop offset="1" stop-color="#07AA50"/>
</linearGradient>
<linearGradient id="paint60_linear_38_4073" x1="368.643" y1="568.274" x2="368.643" y2="569.895" gradientUnits="userSpaceOnUse">
<stop stop-color="#42E670"/>
<stop offset="1" stop-color="#07AA50"/>
</linearGradient>
<linearGradient id="paint61_linear_38_4073" x1="371.885" y1="558.345" x2="371.885" y2="569.896" gradientUnits="userSpaceOnUse">
<stop stop-color="#42E670"/>
<stop offset="1" stop-color="#07AA50"/>
</linearGradient>
<linearGradient id="paint62_linear_38_4073" x1="329.833" y1="536.456" x2="329.833" y2="539.495" gradientUnits="userSpaceOnUse">
<stop stop-color="#42E670"/>
<stop offset="1" stop-color="#07AA50"/>
</linearGradient>
<linearGradient id="paint63_linear_38_4073" x1="334.797" y1="539.495" x2="334.797" y2="559.357" gradientUnits="userSpaceOnUse">
<stop stop-color="#42E670"/>
<stop offset="1" stop-color="#07AA50"/>
</linearGradient>
<linearGradient id="paint64_linear_38_4073" x1="326.692" y1="536.456" x2="326.692" y2="559.357" gradientUnits="userSpaceOnUse">
<stop stop-color="#42E670"/>
<stop offset="1" stop-color="#07AA50"/>
</linearGradient>
<linearGradient id="paint65_linear_38_4073" x1="616.266" y1="761.955" x2="616.266" y2="769.521" gradientUnits="userSpaceOnUse">
<stop stop-color="#42E670"/>
<stop offset="1" stop-color="#07AA50"/>
</linearGradient>
<linearGradient id="paint66_linear_38_4073" x1="605.592" y1="761.955" x2="605.592" y2="783.302" gradientUnits="userSpaceOnUse">
<stop stop-color="#42E670"/>
<stop offset="1" stop-color="#07AA50"/>
</linearGradient>
<linearGradient id="paint67_linear_38_4073" x1="614.645" y1="769.521" x2="614.645" y2="783.302" gradientUnits="userSpaceOnUse">
<stop stop-color="#42E670"/>
<stop offset="1" stop-color="#07AA50"/>
</linearGradient>
<linearGradient id="paint68_linear_38_4073" x1="561.816" y1="577.395" x2="561.816" y2="584.961" gradientUnits="userSpaceOnUse">
<stop stop-color="#42E670"/>
<stop offset="1" stop-color="#07AA50"/>
</linearGradient>
<linearGradient id="paint69_linear_38_4073" x1="570.869" y1="570.368" x2="570.869" y2="585.771" gradientUnits="userSpaceOnUse">
<stop stop-color="#42E670"/>
<stop offset="1" stop-color="#07AA50"/>
</linearGradient>
<linearGradient id="paint70_linear_38_4073" x1="563.844" y1="570.368" x2="563.844" y2="577.394" gradientUnits="userSpaceOnUse">
<stop stop-color="#42E670"/>
<stop offset="1" stop-color="#07AA50"/>
</linearGradient>
<linearGradient id="paint71_linear_38_4073" x1="362.123" y1="603.605" x2="362.123" y2="607.389" gradientUnits="userSpaceOnUse">
<stop stop-color="#42E670"/>
<stop offset="1" stop-color="#07AA50"/>
</linearGradient>
<linearGradient id="paint72_linear_38_4073" x1="368.61" y1="603.605" x2="368.61" y2="620.899" gradientUnits="userSpaceOnUse">
<stop stop-color="#42E670"/>
<stop offset="1" stop-color="#07AA50"/>
</linearGradient>
<linearGradient id="paint73_linear_38_4073" x1="361.583" y1="607.39" x2="361.583" y2="620.9" gradientUnits="userSpaceOnUse">
<stop stop-color="#42E670"/>
<stop offset="1" stop-color="#07AA50"/>
</linearGradient>
<clipPath id="clip0_38_4073">
<rect width="960" height="960" fill="white"/>
</clipPath>
</defs>
</svg>
