<svg width="960" height="960" viewBox="0 0 960 960" fill="none" xmlns="http://www.w3.org/2000/svg">
<g clip-path="url(#clip0_46_125)">
<g clip-path="url(#clip1_46_125)">
<path fill-rule="evenodd" clip-rule="evenodd" d="M831.217 321.969C832.11 311.861 832.892 301.186 828.462 292.061C823.327 281.481 813.012 275.927 801.324 272.93C793.091 270.992 784.693 269.844 776.242 269.503C755.337 268.302 731.5 268.489 713.791 277.68C706.603 281.298 700.501 286.754 696.104 293.494C689.547 303.665 687.811 315.909 687.211 328.152L687.795 328.174C730.858 326.105 774.009 327.04 816.932 330.968C817.922 320.718 818.016 310.589 814.047 301.584L815.56 300.917L814.047 301.584C807.533 286.804 789.36 278.185 773.793 282.493C772.913 282.737 772.002 282.221 771.759 281.341C771.515 280.461 772.031 279.551 772.911 279.307C790.06 274.561 809.897 283.969 817.073 300.251C821.375 310.011 821.235 320.866 820.227 331.276C823.117 331.551 826.007 331.839 828.895 332.141L830.317 332.262C830.52 329.898 830.728 327.53 830.936 325.164C831.03 324.098 831.124 323.033 831.217 321.969Z" fill="url(#paint0_linear_46_125)"/>
<path fill-rule="evenodd" clip-rule="evenodd" d="M816.932 330.972C774.007 327.044 730.856 326.109 687.792 328.178L687.208 328.156C687.042 331.407 686.965 334.658 686.899 337.876C686.04 378.359 685.18 418.84 684.32 459.317C683.571 494.471 682.193 531.752 662.787 561.087C644.295 589.028 611.764 605.2 578.803 611.228C545.842 617.256 520.507 615.768 487.127 612.837L486.334 612.705C481.922 616.612 475.116 617.305 469.022 617.505C453.144 618.028 442.427 617.478 428.973 616.788C424.838 616.576 420.445 616.351 415.564 616.139L415.013 616.326L415.266 617.053C415.787 618.564 416.005 620.163 415.908 621.758C415.81 623.354 415.4 624.914 414.699 626.351C413.999 627.788 413.022 629.072 411.825 630.132C410.628 631.191 409.234 632.004 407.723 632.524L323.1 661.661C320.046 662.713 316.699 662.509 313.795 661.093C310.892 659.677 308.669 657.166 307.617 654.112L297.434 624.523L296.96 623.723C293.853 625.568 290.778 627.36 287.736 629.101L286.656 629.52C292.166 643.725 295.042 656.398 292.893 663.748C289.422 675.66 277.796 682.978 267.062 689.204C260.153 693.209 253.243 697.216 246.333 701.227L245.308 699.453C229.862 655.294 209.933 612.832 185.833 572.734L184.852 570.934C118.578 607.543 63.7091 671.062 44.8871 743.409C40.0931 761.812 37.3051 781.737 44.0601 799.501C54.7101 827.492 92.1841 841.994 121.31 848.937C165.061 859.375 295.646 861.242 388.528 862.569C427.899 863.132 460.496 863.598 476.833 864.579C482.958 864.947 489.106 865.363 495.266 865.781C544.304 869.103 594.07 872.475 638.243 851.641C706.615 819.385 754.034 752.978 779.843 681.921C805.652 610.864 812.495 534.55 819.129 459.25C822.852 416.922 826.581 374.594 830.314 332.266L828.892 332.145C826.005 331.843 823.116 331.555 820.227 331.28C819.985 333.774 819.693 336.243 819.401 338.666C811.149 407.203 802.287 475.665 792.813 544.049C784.095 606.986 774.314 671.768 743.362 727.705C742.92 728.504 741.914 728.793 741.116 728.351C740.317 727.909 740.028 726.904 740.47 726.105C771.08 670.785 780.809 606.61 789.539 543.595C799.009 475.23 807.869 406.789 816.119 338.27L816.119 338.27C816.412 335.84 816.697 333.403 816.932 330.972Z" fill="url(#paint1_linear_46_125)"/>
<path d="M487.315 592.985C490.974 598.185 491.877 605.735 488.064 610.826C487.551 611.506 486.971 612.134 486.334 612.699C481.926 616.611 475.116 617.305 469.022 617.504C448.26 618.187 436.322 617.041 415.564 616.138L415.013 616.325L402.88 581.083L403.31 580.94C416.071 578.923 427.61 576.973 438.993 576.774C450.199 576.445 461.361 578.321 471.844 582.295C477.794 584.554 483.656 587.783 487.315 592.985Z" fill="url(#paint2_linear_46_125)"/>
<path d="M410.406 500.229L410.142 500.648C406.729 504.144 404.124 508.345 402.512 512.957C400.899 517.568 400.317 522.477 400.808 527.338C397.067 524.555 394.491 520.483 393.579 515.91C392.312 509.893 393.557 503.59 395.717 497.81C396.665 495.264 398.517 492.322 401.227 492.631C403.144 492.851 404.427 494.615 405.668 496.091C407.035 497.696 408.632 499.09 410.406 500.229V500.229Z" fill="#171717"/>
<path d="M398.087 390.128C375.518 402.041 356.087 421.833 357.214 447.333L356.872 447.454L356.839 447.344C355.788 444.291 353.567 441.781 350.666 440.365C347.764 438.95 344.419 438.745 341.367 439.795L324.22 445.7L324.088 445.3C314.788 415.3 326.931 379.951 352.696 361.989C377.513 344.689 413.978 341.095 428.073 314.327C432.503 305.897 433.958 296.188 438.112 287.627C442.266 279.066 450.763 271.251 460.174 272.662C466.125 276.001 457.86 302.196 450.174 314.648C466.869 292.939 502.288 260.448 517.165 269.576C525.43 276.585 500.348 317.557 478.044 328.026C492.756 322.163 507.464 316.301 522.168 310.438C526.389 308.752 531.392 307.132 535.238 309.545C541.138 313.259 538.838 322.416 534.951 328.191C523.226 345.625 504.128 356.204 484.027 363.246C479.718 364.756 475.354 366.1 471.012 367.323C446.432 374.226 420.667 378.215 398.087 390.128Z" fill="#171717"/>
<path d="M250.924 566.625C263.211 581.767 278.099 607.476 286.651 629.516C292.161 643.721 295.037 656.394 292.888 663.744C289.417 675.657 277.788 682.974 267.057 689.2C260.147 693.211 253.237 697.218 246.328 701.223L245.303 699.449C229.856 655.289 209.927 612.828 185.828 572.73L184.847 570.93C193.909 565.907 203.239 561.382 212.794 557.375C220.376 554.201 228.828 551.336 236.641 553.86C240.3 555.043 245.348 559.748 250.924 566.625Z" fill="url(#paint3_linear_46_125)"/>
<path d="M430.738 482.773C434.463 485.594 440.259 482.817 442.21 478.563C444.161 474.309 443.433 469.383 442.673 464.763L432.986 406.412C445.042 404.616 457.102 402.812 469.165 401.001" stroke="#171717" stroke-width="3.306" stroke-linecap="round" stroke-linejoin="round"/>
<path d="M391.925 427.85C393.093 430.365 395.082 432.408 397.564 433.644C400.047 434.879 402.876 435.234 405.586 434.65C408.297 434.065 410.729 432.576 412.482 430.428C414.235 428.279 415.205 425.598 415.233 422.825" stroke="#171717" stroke-width="3.306" stroke-linecap="round" stroke-linejoin="round"/>
<path d="M450.221 427.453C450.313 429.478 451.055 431.42 452.337 432.99C453.62 434.56 455.374 435.675 457.34 436.17C459.32 436.597 461.379 436.487 463.303 435.852C465.227 435.216 466.946 434.078 468.283 432.555C469.593 431.01 470.564 429.207 471.133 427.263C471.703 425.319 471.858 423.278 471.589 421.27" stroke="#171717" stroke-width="3.306" stroke-linecap="round" stroke-linejoin="round"/>
<path d="M419.828 503.612C416.469 503.224 413.245 502.066 410.406 500.229C408.632 499.091 407.035 497.698 405.667 496.096C404.422 494.619 403.143 492.856 401.226 492.636C398.515 492.327 396.664 495.27 395.716 497.815C393.556 503.59 392.311 509.893 393.578 515.915C394.49 520.488 397.066 524.56 400.807 527.343C402.052 528.243 403.438 528.932 404.907 529.382C410.792 531.167 418.107 528.082 419.883 522.182" stroke="#171717" stroke-width="3.306" stroke-linecap="round" stroke-linejoin="round"/>
<path d="M400.819 527.5C400.81 527.446 400.806 527.39 400.808 527.335C400.317 522.474 400.898 517.565 402.511 512.954C404.124 508.342 406.729 504.14 410.142 500.645" stroke="#171717" stroke-width="3.306" stroke-linecap="round" stroke-linejoin="round"/>
<path d="M438.982 576.08C430.001 567.815 436.613 552.211 446.454 545.004C456.295 537.797 468.99 534.039 476.44 524.363C482.732 516.175 484.011 505.32 484.87 495.028C488.47 451.686 488.366 408.117 484.561 364.793" stroke="#171717" stroke-width="3.306" stroke-linecap="round" stroke-linejoin="round"/>
<path d="M357.212 447.333C356.088 421.833 375.512 402.041 398.085 390.128C420.658 378.215 446.43 374.228 471.016 367.328C475.358 366.105 479.722 364.76 484.031 363.251C504.131 356.209 523.231 345.63 534.955 328.196C538.845 322.422 541.137 313.264 535.242 309.55C531.396 307.137 526.393 308.757 522.172 310.443C507.46 316.306 492.752 322.168 478.048 328.031C500.353 317.562 525.434 276.589 517.169 269.581C502.292 260.456 466.874 292.943 450.178 314.653C457.859 302.2 466.124 276.006 460.178 272.667C450.767 271.256 442.278 279.067 438.116 287.632C433.954 296.197 432.507 305.903 428.077 314.332C413.977 341.1 377.517 344.692 352.7 361.994C326.935 379.957 314.791 415.309 324.092 445.305" stroke="#171717" stroke-width="3.306" stroke-linecap="round" stroke-linejoin="round"/>
<path d="M403.31 580.94C416.071 578.923 427.61 576.973 438.993 576.774C450.199 576.445 461.36 578.321 471.844 582.295C477.795 584.554 483.657 587.783 487.316 592.984C490.975 598.185 491.878 605.734 488.065 610.825C487.552 611.505 486.972 612.133 486.335 612.698C481.927 616.61 475.117 617.304 469.023 617.503C448.261 618.186 436.323 617.04 415.565 616.137" stroke="#171717" stroke-width="3.306" stroke-linecap="round" stroke-linejoin="round"/>
<path d="M487.128 612.832C520.508 615.763 545.843 617.251 578.804 611.223C611.765 605.195 644.296 589.023 662.788 561.082C682.194 531.747 683.572 494.466 684.321 459.312C685.181 418.835 686.041 378.354 686.9 337.871C686.966 334.653 687.043 331.402 687.209 328.151C687.809 315.908 689.545 303.664 696.102 293.493C700.499 286.753 706.601 281.297 713.789 277.679C731.498 268.488 755.335 268.301 776.24 269.502C784.691 269.843 793.09 270.99 801.322 272.929C813.014 275.929 823.329 281.481 828.464 292.06C832.894 301.185 832.112 311.86 831.219 321.968C830.919 325.395 830.613 328.833 830.319 332.261C826.586 374.589 822.857 416.917 819.134 459.245C812.5 534.545 805.657 610.859 779.848 681.916C754.039 752.973 706.62 819.38 638.248 851.636C588.526 875.087 531.717 867.869 476.838 864.574C421.959 861.279 183.606 863.8 121.31 848.937C92.1841 841.994 54.7101 827.492 44.0601 799.501C37.3051 781.737 40.0931 761.812 44.8871 743.409C63.7091 671.062 118.578 607.543 184.852 570.934C193.915 565.911 203.245 561.386 212.8 557.379C220.382 554.205 228.834 551.34 236.647 553.864C240.306 555.043 245.353 559.749 250.929 566.625C263.216 581.767 278.104 607.476 286.656 629.516C292.166 643.721 295.042 656.394 292.893 663.744C289.422 675.657 277.793 682.974 267.062 689.2C260.152 693.211 253.242 697.218 246.333 701.223C217.516 717.94 188.695 734.658 159.87 751.375" stroke="#171717" stroke-width="3.306" stroke-linecap="round" stroke-linejoin="round"/>
<path d="M249.183 484.4C248.136 481.347 248.343 478.004 249.759 475.103C251.174 472.203 253.682 469.982 256.732 468.928L324.219 445.698L341.366 439.791C342.878 439.271 344.477 439.053 346.073 439.151C347.668 439.249 349.229 439.66 350.666 440.361C352.102 441.062 353.387 442.039 354.446 443.237C355.505 444.434 356.318 445.828 356.838 447.34L356.871 447.45L402.88 581.083L415.013 616.325L415.266 617.052C415.787 618.564 416.005 620.163 415.907 621.759C415.81 623.355 415.399 624.915 414.698 626.352C413.997 627.789 413.019 629.074 411.822 630.133C410.624 631.192 409.229 632.004 407.717 632.524L323.094 661.661C320.04 662.713 316.693 662.509 313.79 661.093C310.886 659.677 308.664 657.166 307.611 654.112" stroke="#171717" stroke-width="3.133" stroke-linecap="round" stroke-linejoin="round"/>
<path d="M258.055 510.147L249.184 484.404" stroke="#171717" stroke-width="3.133" stroke-linecap="round" stroke-linejoin="round"/>
<path d="M307.611 654.113L297.429 624.524" stroke="#171717" stroke-width="3.133" stroke-linecap="round" stroke-linejoin="round"/>
<path d="M324.053 580.532C327.481 578.725 330.904 576.925 334.324 575.132C337.652 573.38 341.443 571.584 345.013 572.741C349.939 574.328 351.57 580.995 349.586 585.778C347.602 590.561 343.186 593.823 338.941 596.787C325.761 606.011 311.159 615.312 296.955 623.72C293.847 625.56 290.773 627.353 287.731 629.098" stroke="#171717" stroke-width="3.133" stroke-linecap="round" stroke-linejoin="round"/>
<path d="M324.053 580.532C318.58 584.643 312.482 587.846 305.991 590.02C312.008 586.858 318.029 583.695 324.053 580.532Z" stroke="#171717" stroke-width="3.133" stroke-linecap="round" stroke-linejoin="round"/>
<path d="M295.06 566.823C304.558 562.128 314.194 557.713 323.966 553.577C328.44 551.693 334.104 550.018 337.73 553.257C342.215 557.246 339.361 564.685 335.614 569.368C332.247 573.562 328.363 577.313 324.054 580.531" stroke="#171717" stroke-width="3.133" stroke-linecap="round" stroke-linejoin="round"/>
<path d="M295.06 566.823C293.506 567.638 291.937 568.421 290.354 569.17C291.918 568.377 293.487 567.594 295.06 566.823Z" stroke="#171717" stroke-width="3.133" stroke-linecap="round" stroke-linejoin="round"/>
<path d="M251.168 567.385C251.08 567.132 251.003 566.878 250.926 566.625C246.198 551.99 246.055 538.116 248.92 522.925C249.934 517.558 253.086 511.112 258.111 510.682C258.64 510.639 259.173 510.661 259.698 510.748C263.72 511.398 266.024 515.586 267.566 519.355C272.452 531.312 275.638 543.894 277.032 556.735C288.145 545.838 301.888 537.999 316.925 533.979C319.867 533.197 323.317 532.657 325.708 534.541C328.077 536.403 328.386 540.041 327.185 542.817C325.984 545.593 323.637 547.655 321.3 549.561C313.169 556.202 304.376 561.988 295.061 566.829" stroke="#171717" stroke-width="3.133" stroke-linecap="round" stroke-linejoin="round"/>
<path d="M748.875 220.662C749.449 216.898 750.352 213.193 751.575 209.587C752.798 205.961 754.517 202.226 757.775 200.231C762.657 197.231 769.445 199.46 773.075 203.879C776.705 208.298 777.781 214.293 777.99 220.012C778.199 225.731 777.648 231.506 778.596 237.148C779.808 228.229 783.368 219.792 788.911 212.7C791.811 209.008 796.757 205.482 800.802 207.851C803.91 209.68 804.402 213.901 804.494 217.505C804.947 235.572 804.008 253.647 801.684 271.569" stroke="#171717" stroke-width="3.133" stroke-linecap="round" stroke-linejoin="round"/>
<path d="M748.875 220.662C748.742 226.514 748.613 232.366 748.489 238.217C747.841 232.374 747.971 226.471 748.875 220.662V220.662Z" stroke="#171717" stroke-width="3.133" stroke-linecap="round" stroke-linejoin="round"/>
<path d="M713.677 277.459C706.371 273.117 699.057 268.779 691.736 264.444C688.022 262.244 684.242 259.97 681.454 256.664C678.666 253.358 677.054 248.764 678.379 244.652C680.506 238.007 688.879 235.726 695.846 236.222C705.63 236.95 714.879 240.97 722.085 247.628C723.253 225.39 724.417 203.148 725.578 180.902C726.063 171.48 726.702 161.584 731.793 153.649C734.581 149.285 739.937 145.505 744.675 147.566C749.656 149.737 750.284 156.415 750.163 161.837C749.733 181.453 749.303 201.061 748.874 220.662" stroke="#171717" stroke-width="3.133" stroke-linecap="round" stroke-linejoin="round"/>
<path d="M245.3 699.449C229.855 655.29 209.928 612.828 185.829 572.73" stroke="#171717" stroke-width="3.306" stroke-linecap="round" stroke-linejoin="round"/>
<path d="M687.791 328.173C734.857 325.912 782.027 327.238 828.891 332.14" stroke="#171717" stroke-width="3.306" stroke-linecap="round" stroke-linejoin="round"/>
<path d="M266.045 445C266.258 436.442 266.471 427.884 266.685 419.326" stroke="#171717" stroke-width="3.306" stroke-linecap="round" stroke-linejoin="round"/>
<path d="M237.737 454.089L198.869 405.062" stroke="#171717" stroke-width="3.306" stroke-linecap="round" stroke-linejoin="round"/>
<path d="M231.228 480.682L211.781 475.235" stroke="#171717" stroke-width="3.306" stroke-linecap="round" stroke-linejoin="round"/>
<path d="M196.3 330.01C166.18 326.799 136.718 346.038 121.374 372.155C106.03 398.272 102.861 429.943 105.235 460.141C107.543 489.496 114.699 519.186 108.749 548.024C106.527 558.793 102.365 569.388 95.1229 577.662C87.8809 585.936 77.2699 591.653 66.2779 591.374C55.2859 591.095 44.3249 584.048 41.0089 573.564C37.6929 563.08 43.6269 550.098 54.2089 547.098C59.5669 545.579 66.2179 547.09 68.8769 551.984C71.5359 556.878 67.4359 564.44 61.9519 563.469" stroke="url(#paint4_linear_46_125)" stroke-width="3.306" stroke-linecap="round" stroke-linejoin="round"/>
<path d="M618.933 280.106C619.111 286.55 626.948 290.895 633.091 288.942C639.234 286.989 643.091 280.49 643.643 274.068C644.587 263.139 636.591 252.132 625.906 249.652C615.221 247.172 603.193 253.53 599.226 263.752C596.116 271.769 597.713 280.833 600.385 289.006C607.911 312.02 623.256 331.506 634.955 352.706C646.654 373.906 654.819 399.413 646.486 422.147C644.419 427.785 641.203 433.258 636.168 436.532C631.133 439.806 624.01 440.348 619.299 436.625C614.588 432.902 613.939 424.591 618.808 421.076" stroke="#171717" stroke-width="3.306" stroke-linecap="round" stroke-linejoin="round"/>
<path d="M881.491 354.319C896.386 374.977 908.097 397.753 916.233 421.886C919.222 430.761 921.711 440.51 918.604 449.345C913.184 464.757 889.18 468.937 878.869 456.264C875.458 452.072 873.696 445.749 876.783 441.313C882.075 433.707 894.352 439.03 900.066 446.325C910.62 459.801 914.219 477.945 911.836 494.895C909.453 511.845 901.5 527.658 891.124 541.27C882.844 552.128 872.692 562.321 869.292 575.546C863.604 597.671 878.473 619.331 892.504 637.359" stroke="url(#paint5_linear_46_125)" stroke-width="3.306" stroke-linecap="round" stroke-linejoin="round"/>
<path d="M829.191 235.422C836.353 212.707 827.556 185.888 808.332 171.827C808.611 170.833 808.89 169.839 809.17 168.846" stroke="#171717" stroke-width="3.306" stroke-linecap="round" stroke-linejoin="round"/>
<path d="M851.294 213.252C853.593 208.271 854.374 202.723 853.54 197.301C852.707 191.879 850.296 186.822 846.607 182.761" stroke="#171717" stroke-width="3.306" stroke-linecap="round" stroke-linejoin="round"/>
<path d="M766.048 111.743L788.233 93.0911" stroke="#171717" stroke-width="3.306" stroke-linecap="round" stroke-linejoin="round"/>
<path d="M781.914 115.433L767.8 92.166" stroke="#171717" stroke-width="3.306" stroke-linecap="round" stroke-linejoin="round"/>
<path d="M691.247 141.946L702.871 130.234" stroke="#171717" stroke-width="3.306" stroke-linecap="round" stroke-linejoin="round"/>
<path d="M701.644 144.476L690.027 128.1" stroke="#171717" stroke-width="3.306" stroke-linecap="round" stroke-linejoin="round"/>
<path d="M513.96 212.027L537.3 195.691" stroke="url(#paint6_linear_46_125)" stroke-width="3.306" stroke-linecap="round" stroke-linejoin="round"/>
<path d="M530.431 220.13C525.76 210.408 521.089 200.686 516.419 190.964" stroke="url(#paint7_linear_46_125)" stroke-width="3.306" stroke-linecap="round" stroke-linejoin="round"/>
<path d="M482.182 244.63C483.72 238.403 485.258 232.175 486.797 225.948" stroke="#171717" stroke-width="3.306" stroke-linecap="round" stroke-linejoin="round"/>
<path d="M471.912 233.286L494.053 236.959" stroke="#171717" stroke-width="3.306" stroke-linecap="round" stroke-linejoin="round"/>
<path d="M104.4 354.38L95.0654 339.211" stroke="#171717" stroke-width="3.306" stroke-linecap="round" stroke-linejoin="round"/>
<path d="M91.5693 352.046L105.569 340.378" stroke="#171717" stroke-width="3.306" stroke-linecap="round" stroke-linejoin="round"/>
<path d="M80.8231 421.318L59.9521 409.418" stroke="url(#paint8_linear_46_125)" stroke-width="3.306" stroke-linecap="round" stroke-linejoin="round"/>
<path d="M63.5654 425.556C64.3246 417.382 67.5842 409.641 72.9004 403.386" stroke="url(#paint9_linear_46_125)" stroke-width="3.306" stroke-linecap="round" stroke-linejoin="round"/>
<path d="M196.869 591.418L249.329 566.426" stroke="#171717" stroke-width="3.306" stroke-linecap="round" stroke-linejoin="round"/>
<path d="M207.135 611.977L263.9 587.808" stroke="#171717" stroke-width="3.306" stroke-linecap="round" stroke-linejoin="round"/>
<path d="M221.425 640.537L277.408 613.649" stroke="#171717" stroke-width="3.306" stroke-linecap="round" stroke-linejoin="round"/>
<path d="M234.625 670.042L291.6 643.226" stroke="#171717" stroke-width="3.306" stroke-linecap="round" stroke-linejoin="round"/>
<path d="M810.291 329.6L816.231 280.362" stroke="#171717" stroke-width="3.306" stroke-linecap="round" stroke-linejoin="round"/>
<path d="M784.545 328.062C786.136 309.495 788.43 291.006 791.428 272.597" stroke="#171717" stroke-width="3.306" stroke-linecap="round" stroke-linejoin="round"/>
<path d="M755.025 327.031C757.377 308.353 759.73 289.675 762.082 270.998" stroke="#171717" stroke-width="3.306" stroke-linecap="round" stroke-linejoin="round"/>
<path d="M726.71 327.572L732.944 273.121" stroke="#171717" stroke-width="3.306" stroke-linecap="round" stroke-linejoin="round"/>
<path d="M703.008 327.53L708.339 281.392" stroke="#171717" stroke-width="3.306" stroke-linecap="round" stroke-linejoin="round"/>
<path d="M423.972 616.127L405.438 860.393" stroke="#171717" stroke-width="3.306" stroke-linecap="round" stroke-linejoin="round"/>
<path d="M464.546 616.134C466.944 604.891 467.993 593.402 467.669 581.911" stroke="#171717" stroke-width="3.306" stroke-linecap="round" stroke-linejoin="round"/>
<path d="M436.955 616.818C440.279 603.838 442.501 590.601 443.596 577.247" stroke="#171717" stroke-width="3.306" stroke-linecap="round" stroke-linejoin="round"/>
<path d="M418.687 616.14C419.86 603.718 419.929 591.216 418.892 578.782" stroke="#171717" stroke-width="3.306" stroke-linecap="round" stroke-linejoin="round"/>
<path d="M780.419 388.245L792.078 374.235" stroke="#171717" stroke-width="3.306" stroke-linecap="round" stroke-linejoin="round"/>
<path d="M735.23 442.705L721.978 427.95" stroke="#171717" stroke-width="3.306" stroke-linecap="round" stroke-linejoin="round"/>
<path d="M757.272 521.438L770.219 507.184" stroke="#171717" stroke-width="3.306" stroke-linecap="round" stroke-linejoin="round"/>
<path d="M714.411 588.072C711.811 581.991 708.05 576.476 703.338 571.836" stroke="#171717" stroke-width="3.306" stroke-linecap="round" stroke-linejoin="round"/>
<path d="M730.5 669.718L745.354 653.407L744.524 654.168" stroke="#171717" stroke-width="3.306" stroke-linecap="round" stroke-linejoin="round"/>
<path d="M630.378 675.95L619.208 659.808" stroke="#171717" stroke-width="3.306" stroke-linecap="round" stroke-linejoin="round"/>
<path d="M663.7 753.825L649.7 739.045" stroke="#171717" stroke-width="3.306" stroke-linecap="round" stroke-linejoin="round"/>
<path d="M592.853 737.422L609.967 721.087" stroke="#171717" stroke-width="3.306" stroke-linecap="round" stroke-linejoin="round"/>
<path d="M510.52 696.994L498.379 680.435" stroke="#171717" stroke-width="3.306" stroke-linecap="round" stroke-linejoin="round"/>
<path d="M508.774 776.222L526.783 761.587" stroke="#171717" stroke-width="3.306" stroke-linecap="round" stroke-linejoin="round"/>
<path d="M571.249 836.967L560.249 823.048" stroke="#171717" stroke-width="3.306" stroke-linecap="round" stroke-linejoin="round"/>
<path d="M668.541 632.648L686.241 615.335" stroke="#171717" stroke-width="3.306" stroke-linecap="round" stroke-linejoin="round"/>
<path d="M455.317 836.17L441.352 825.233" stroke="#171717" stroke-width="3.306" stroke-linecap="round" stroke-linejoin="round"/>
<path d="M354.939 790.438L373.615 771" stroke="#171717" stroke-width="3.306" stroke-linecap="round" stroke-linejoin="round"/>
<path d="M339.747 724.514C336.229 719.509 332.711 714.503 329.192 709.498" stroke="#171717" stroke-width="3.306" stroke-linecap="round" stroke-linejoin="round"/>
<path d="M279.475 769.434L289.446 760.716" stroke="#171717" stroke-width="3.306" stroke-linecap="round" stroke-linejoin="round"/>
<path d="M375.886 692.371L390.718 679.988" stroke="#171717" stroke-width="3.306" stroke-linecap="round" stroke-linejoin="round"/>
<path d="M311.3 840.963L301.177 826.191" stroke="#171717" stroke-width="3.306" stroke-linecap="round" stroke-linejoin="round"/>
<path d="M232 821.484L220.328 803.6" stroke="#171717" stroke-width="3.306" stroke-linecap="round" stroke-linejoin="round"/>
<path d="M176.092 778.112L197.102 763.343" stroke="#171717" stroke-width="3.306" stroke-linecap="round" stroke-linejoin="round"/>
<path d="M136.3 820.722L126.965 803.609" stroke="#171717" stroke-width="3.306" stroke-linecap="round" stroke-linejoin="round"/>
<path d="M87.3516 778.821L107.606 767.2" stroke="#171717" stroke-width="3.306" stroke-linecap="round" stroke-linejoin="round"/>
<path d="M84.3573 733.522L77.3213 717.2" stroke="#171717" stroke-width="3.306" stroke-linecap="round" stroke-linejoin="round"/>
<path d="M125.377 704.768L142.365 694.449" stroke="#171717" stroke-width="3.306" stroke-linecap="round" stroke-linejoin="round"/>
<path d="M186.031 704.809L189.931 680.697" stroke="#171717" stroke-width="3.306" stroke-linecap="round" stroke-linejoin="round"/>
<path d="M150.3 630.918C156.841 627.747 164.032 626.149 171.3 626.251" stroke="#171717" stroke-width="3.306" stroke-linecap="round" stroke-linejoin="round"/>
<path d="M735.269 367.215L724.379 353.991" stroke="#171717" stroke-width="3.306" stroke-linecap="round" stroke-linejoin="round"/>
<g opacity="0.1">
<path d="M452.852 374.062C446.952 373.88 442.052 375.287 436.428 376.883C430.64 378.524 424.944 380.066 419.273 382.145C408.362 386.007 397.942 391.137 388.228 397.429C379.578 402.974 371.909 409.918 365.535 417.977C359.18 426.204 352.378 436.891 352.12 447.582C351.926 455.572 363.37 458.694 367.231 451.675C369.431 447.675 370.547 443.267 372.555 439.175C374.556 435.067 376.918 431.146 379.615 427.457C385.1 420.028 391.582 413.391 398.88 407.732C407.248 401.296 416.627 396.032 426.05 391.314C430.821 388.925 435.597 386.299 440.483 384.19C445.483 382.031 449.662 380.005 453.847 376.457C454.825 375.628 453.985 374.091 452.847 374.057L452.852 374.062Z" fill="#171717"/>
</g>
<g opacity="0.1">
<path d="M160.859 751.474C168.17 750.256 174.793 744.869 181.022 741.118C187.575 737.172 194.167 733.298 200.68 729.285C213.716 721.254 226.792 713.282 239.908 705.368C251.508 698.346 263.85 692.079 274.796 684.039C284.214 677.122 298.552 665.639 297.158 652.458C296.268 644.037 287.317 639.865 280.684 645.634C276.578 649.206 274.462 654.405 270.716 658.314C267.038 662.018 262.963 665.305 258.564 668.114C247.295 675.624 235.457 682.314 223.999 689.532C211.552 697.376 199.39 705.614 187.399 714.14C181.65 718.227 176.066 722.554 170.471 726.848C164.622 731.338 157.41 735.614 153.726 742.19C150.836 747.351 155.583 752.35 160.86 751.47L160.859 751.474Z" fill="#171717"/>
</g>
<g opacity="0.1">
<path d="M525.645 620.187C538.498 625.364 552.655 624.124 566.245 623.032C580.104 622.027 593.83 619.649 607.22 615.932C633.912 608.284 657.981 593.999 675.08 571.846C715.996 518.832 705.668 448.781 704.223 386.546C703.705 368.589 704.391 350.618 706.278 332.753C707.281 324.201 708.739 315.708 710.647 307.311C712.608 298.528 717.247 290.736 720.021 282.246C722.01 276.165 713.036 270.409 708.821 275.724C704.006 281.791 701.068 288.624 698.321 295.831C695.645 302.853 692.231 309.741 690.334 317.031C686.52 332.361 684.368 348.056 683.916 363.847C682.671 397.079 686.826 430.258 686.238 463.494C685.738 491.688 681.745 520.979 668.267 546.155C655.909 569.241 635.867 586.099 611.827 596.191C598.491 601.602 584.554 605.395 570.316 607.491C555.462 609.845 540.001 608.71 525.656 613.404C522.156 614.55 522.503 618.915 525.656 620.184L525.645 620.187Z" fill="#171717"/>
</g>
</g>
</g>
<defs>
<linearGradient id="paint0_linear_46_125" x1="759.56" y1="268.981" x2="759.56" y2="332.262" gradientUnits="userSpaceOnUse">
<stop stop-color="#42E670"/>
<stop offset="1" stop-color="#07AA50"/>
</linearGradient>
<linearGradient id="paint1_linear_46_125" x1="435.177" y1="327.109" x2="435.177" y2="868.26" gradientUnits="userSpaceOnUse">
<stop stop-color="#42E670"/>
<stop offset="1" stop-color="#07AA50"/>
</linearGradient>
<linearGradient id="paint2_linear_46_125" x1="446.703" y1="576.737" x2="446.703" y2="617.712" gradientUnits="userSpaceOnUse">
<stop stop-color="#42E670"/>
<stop offset="1" stop-color="#07AA50"/>
</linearGradient>
<linearGradient id="paint3_linear_46_125" x1="239.225" y1="552.894" x2="239.225" y2="701.223" gradientUnits="userSpaceOnUse">
<stop stop-color="#42E670"/>
<stop offset="1" stop-color="#07AA50"/>
</linearGradient>
<linearGradient id="paint4_linear_46_125" x1="118.194" y1="329.66" x2="118.194" y2="591.384" gradientUnits="userSpaceOnUse">
<stop stop-color="#42E670"/>
<stop offset="1" stop-color="#07AA50"/>
</linearGradient>
<linearGradient id="paint5_linear_46_125" x1="894.041" y1="354.319" x2="894.041" y2="637.359" gradientUnits="userSpaceOnUse">
<stop stop-color="#42E670"/>
<stop offset="1" stop-color="#07AA50"/>
</linearGradient>
<linearGradient id="paint6_linear_46_125" x1="525.63" y1="195.691" x2="525.63" y2="212.027" gradientUnits="userSpaceOnUse">
<stop stop-color="#42E670"/>
<stop offset="1" stop-color="#07AA50"/>
</linearGradient>
<linearGradient id="paint7_linear_46_125" x1="523.425" y1="190.964" x2="523.425" y2="220.13" gradientUnits="userSpaceOnUse">
<stop stop-color="#42E670"/>
<stop offset="1" stop-color="#07AA50"/>
</linearGradient>
<linearGradient id="paint8_linear_46_125" x1="70.3876" y1="409.418" x2="70.3876" y2="421.318" gradientUnits="userSpaceOnUse">
<stop stop-color="#42E670"/>
<stop offset="1" stop-color="#07AA50"/>
</linearGradient>
<linearGradient id="paint9_linear_46_125" x1="68.2329" y1="403.386" x2="68.2329" y2="425.556" gradientUnits="userSpaceOnUse">
<stop stop-color="#42E670"/>
<stop offset="1" stop-color="#07AA50"/>
</linearGradient>
<clipPath id="clip0_46_125">
<rect width="960" height="960" fill="white"/>
</clipPath>
<clipPath id="clip1_46_125">
<rect width="884" height="780" fill="white" transform="translate(38 90)"/>
</clipPath>
</defs>
</svg>
