<svg width="960" height="960" viewBox="0 0 960 960" fill="none" xmlns="http://www.w3.org/2000/svg">
<g clip-path="url(#clip0_435_1375)">
<path fill-rule="evenodd" clip-rule="evenodd" d="M587.341 288.648C586.169 293.45 582.63 297.293 578.969 300.631C578.397 301.152 577.818 301.67 577.237 302.188C574.11 304.979 570.953 307.796 568.848 311.401C564.837 318.288 565.419 326.428 566.005 334.617C566.543 342.142 567.084 349.707 564.067 356.377C562.506 359.82 560.072 362.795 557.006 365.007C553.94 367.218 550.349 368.589 546.59 368.983C542.83 369.377 539.033 368.781 535.575 367.254C532.117 365.727 529.119 363.322 526.878 360.277C525.481 358.376 524.41 356.274 523.338 354.168C522.448 352.42 521.557 350.669 520.478 349.031C518.098 345.42 514.306 342.233 509.989 342.475C506.612 342.663 503.611 344.855 500.693 346.987C497.075 349.631 493.584 352.181 489.664 350.695C486.346 349.435 484.752 345.743 483.501 342.414C480.744 335.055 477.984 327.699 475.22 320.345C474.091 317.304 472.941 313.95 474.05 310.904C475.574 306.718 480.516 305.075 484.843 303.975C486.182 303.636 487.555 303.228 488.947 302.816C492.429 301.783 496.028 300.716 499.509 300.586C500.735 300.541 501.908 300.649 503.072 300.755C504.762 300.91 506.436 301.064 508.234 300.747C512.401 299.836 516.34 298.09 519.813 295.613C520.466 295.171 521.917 293.638 523.466 292.002C525.626 289.721 527.974 287.241 528.608 287.241C528.875 286.879 529.144 286.506 529.415 286.131C531.573 283.135 533.897 279.909 537.464 279.541C540.948 279.181 543.562 281.644 546.246 284.172C548.378 286.182 550.555 288.233 553.249 288.941C558.525 290.323 563.51 286.187 567.441 282.415C571.372 278.643 576.556 274.648 581.741 276.363C586.433 277.927 588.513 283.846 587.341 288.648ZM592.805 400.877C595.338 394.127 597.675 387.9 598.587 383.37C600.957 371.579 603.737 359.022 612.371 350.64C621.005 342.258 637.577 341.128 643.7 351.487C645.383 354.323 646.054 357.561 646.728 360.814C647.182 363 647.636 365.192 648.4 367.272C650.3 372.447 655.907 377.298 660.9 374.958C662.482 374.072 663.848 372.846 664.9 371.368C677.213 356.215 685.337 338.098 688.462 318.824C688.588 318.033 688.708 317.236 688.828 316.436C689.647 310.974 690.483 305.397 693.607 300.901C697.036 295.958 706.305 293.194 711.218 296.594L711.47 296.271C663.167 258.636 603.674 238.22 542.441 238.264C504.036 238.132 466.041 246.164 430.975 261.826C435.232 267.968 437.259 274.726 435.968 282.059C435.561 284.379 435.221 287.296 434.836 290.608C433.942 298.3 432.799 308.121 429.987 317.533L430.693 317.745C447.123 319.639 461.477 333.4 464.059 349.739C466.641 366.078 457.26 383.589 442.211 390.478C436.055 393.3 429.322 394.421 422.63 395.536C421.521 395.721 420.414 395.905 419.311 396.097C411.545 397.448 403.586 399.313 397.252 404.004C390.918 408.695 386.57 416.885 388.557 424.51C389.666 428.807 392.538 432.321 395.379 435.797C396.013 436.573 396.646 437.347 397.257 438.127C400.606 442.404 403.531 447.78 402.22 453.045C401.05 457.745 396.743 461.064 392.234 462.839C391.146 463.268 390.015 463.643 388.882 464.018C385.436 465.158 381.976 466.303 379.676 469.012C376.6 472.653 376.66 478.171 378.587 482.528C380.514 486.885 383.963 490.355 387.342 493.713L387.292 495.813C422.715 496.661 459.138 492.878 470.515 489.6C484.525 485.566 491.162 493.161 491.162 493.161C491.162 493.161 491.596 493.917 492.312 495.279C492.312 495.279 486.167 456.144 497.212 451.514C508.257 446.884 511.101 492.092 511.101 492.092C511.101 492.092 565.92 452.573 571.62 461.832C575.987 468.919 543.368 491.674 527.875 501.932C544.528 491.331 582.08 468.536 586.215 475.717C591.147 484.271 538.213 515.075 530.255 519.644C537.705 515.513 584.476 489.964 589.055 498.144C594.038 507.041 506.477 542.293 506.477 542.293H506.417C505.949 549.636 503.098 555.728 496.149 558.663C474.2 567.923 385.6 602.1 302.471 597.619C302.652 609.431 302.995 621.565 307.705 632.387C312.517 643.452 323.087 652.921 335.151 652.621C339.714 652.51 344.079 651.054 348.423 649.605C349.197 649.346 349.97 649.088 350.744 648.838C355.86 647.184 361.335 645.847 366.56 647.073C371.785 648.299 376.606 652.833 376.425 658.199C376.307 661.774 374.181 664.715 372.03 667.691C370.315 670.064 368.583 672.459 367.841 675.215C366.378 680.631 369.071 686.36 372.733 690.607C382.214 701.607 398.968 705.624 412.403 700.107C414.866 699.099 417.254 697.798 419.637 696.501C424.641 693.776 429.619 691.066 435.208 691.1C438.781 691.126 442.173 692.291 445.578 693.46C447.901 694.258 450.23 695.059 452.628 695.5C458.463 696.582 464.357 695.506 470.252 694.429C472.437 694.03 474.623 693.631 476.805 693.342C484.874 692.273 494.265 693.281 499.147 699.797C502.304 704.013 502.828 709.793 501.517 714.897C500.206 720.001 497.26 724.529 493.982 728.655C490.372 733.192 486.315 737.351 482.26 741.509C477.408 746.485 472.559 751.457 468.482 757.068C461.25 767.014 456.64 780.135 460.675 791.635L459.989 793.813C474.257 798.308 488.871 801.62 503.684 803.713C508.145 804.342 512.64 804.863 517.169 805.277C521.132 797.276 526.731 790.196 533.602 784.494C540.474 778.792 548.466 774.596 557.061 772.177C567.46 769.312 578.414 769.171 589.176 769.827C608.28 771.006 628.191 775.101 642.746 787.527C653.866 783.164 664.691 778.083 675.153 772.317L675.022 772.075C673.001 768.916 668.99 768.702 665.203 768.5C664.928 768.485 664.653 768.47 664.381 768.454C663.741 768.417 663.094 768.391 662.446 768.364C659.029 768.224 655.555 768.082 652.63 766.386C650.231 764.998 648.497 762.724 646.776 760.466C644.758 757.819 642.756 755.194 639.72 754.04C639.05 753.788 638.318 753.591 637.584 753.393C635.441 752.817 633.277 752.234 632.579 750.258C632.135 748.994 632.543 747.691 632.955 746.373C633.171 745.681 633.389 744.985 633.486 744.287C634.122 739.788 629.442 736.056 624.913 735.632C621.48 735.311 618.123 736.247 614.775 737.18C613.706 737.478 612.637 737.776 611.568 738.032C607.151 739.091 601.987 739.273 598.587 736.257C594.407 732.565 594.831 726.049 595.587 720.532C596.259 715.698 596.928 710.86 597.595 706.018C597.988 703.113 598.492 699.986 600.57 697.898C602.968 695.485 606.54 695.273 610.111 695.06C613.674 694.848 617.237 694.636 619.634 692.239C621.676 690.194 622.139 687.283 622.605 684.346C622.831 682.924 623.058 681.496 623.466 680.156C624.757 675.869 628.036 672.389 631.798 669.969C635.505 667.578 639.703 666.087 643.863 664.609L643.912 664.592L643.831 664.371C668.609 650.773 695.373 641.16 723.141 635.886C723.8 635.761 724.463 635.638 725.128 635.514C734.506 633.764 744.289 631.939 751.363 625.628C758.938 618.87 760.78 604.78 752.18 599.394C749.388 597.648 745.822 596.909 742.351 596.19C736.842 595.049 731.573 593.958 730.02 588.964C728.045 582.591 734.809 577.351 740.111 573.246L740.288 573.108C750.859 564.918 758.242 549.062 750.203 538.38C745.208 531.736 736.757 530.039 728.304 528.342C725.08 527.695 721.856 527.047 718.824 526.125C717.988 525.872 717.143 525.593 716.293 525.313C711.892 523.861 707.333 522.357 703.15 524.048C696.26 526.848 695.221 536.458 697.743 543.448C698.747 546.233 700.128 548.883 701.506 551.527C703.586 555.519 705.659 559.498 706.418 563.903C707.769 571.781 704.611 579.93 699.528 586.093C694.445 592.256 687.606 596.715 680.657 600.648C679.151 601.662 677.411 602.273 675.603 602.423C671.623 602.403 668.909 597.854 669.303 593.88C669.697 589.906 672.198 586.507 674.558 583.3C679.44 576.7 684.207 569.798 686.426 561.89C688.645 553.982 687.918 544.804 682.613 538.54C677.308 532.276 666.848 530.309 660.675 535.726C657.875 538.184 656.28 541.68 654.695 545.155C652.888 549.115 651.094 553.048 647.543 555.384C643.077 558.322 637.646 557.654 632.139 556.977C627.434 556.398 622.674 555.812 618.413 557.462C612.049 559.923 608.509 566.771 606.804 573.378C606.246 575.539 605.818 577.742 605.39 579.944C604.51 584.473 603.631 588.995 601.629 593.128C595.91 604.939 581.194 611.062 568.394 608.187C555.594 605.312 545.306 594.53 541.494 581.972C537.308 568.184 542.906 549.978 556.926 546.639C561.683 545.509 566.898 546.136 572.01 546.752C579.623 547.668 587.009 548.557 592.319 543.573C596.908 539.259 597.285 532.865 597.67 526.326C597.935 521.826 598.205 517.258 599.854 513.253C602.227 507.493 607.15 503.533 612.093 499.557C614.335 497.754 616.581 495.947 618.595 493.968C627.945 484.769 632.373 471.498 633.321 458.413C634.269 445.328 632.07 432.249 629.881 419.328C631.281 418.031 632.681 416.736 634.081 415.444C638.328 411.138 635.573 402.958 630.006 400.567C624.439 398.176 617.811 400.395 613.182 404.309C612.648 404.76 612.141 405.179 611.654 405.58C607.921 408.659 605.436 410.708 602.027 418.561C601.384 420.041 600.937 422.846 600.425 426.062C599.017 434.904 597.113 446.861 589.267 442.97C578.933 437.837 586.481 417.726 592.805 400.877ZM538.287 248.122C537.46 248.073 536.75 248.705 536.702 249.532C536.653 250.359 537.285 251.068 538.112 251.117C589.146 254.103 638.721 269.274 682.686 295.36C683.398 295.783 684.319 295.548 684.741 294.836C685.164 294.123 684.929 293.203 684.217 292.78C639.84 266.45 589.799 251.136 538.287 248.122Z" fill="#171717"/>
<path fill-rule="evenodd" clip-rule="evenodd" d="M322.42 291.312L322.551 291.07C336.9 299.17 367.728 313.553 398.362 308.512C398.362 308.512 379.49 343.864 369.847 360.064C369.847 360.064 382.223 357.875 407.863 346.487C419.997 341.091 426.362 329.643 429.973 317.529C432.785 308.117 433.928 298.295 434.822 290.603C435.207 287.291 435.547 284.374 435.954 282.055C437.245 274.722 435.218 267.964 430.961 261.822C414.732 238.451 365.984 224.138 343.421 221.889C314.946 219.05 282.902 244.314 276.497 257.489C273.547 263.555 274.642 268.875 275.675 273.892C276.885 279.77 278.009 285.231 272.442 290.989C268.617 294.944 262.637 295.748 256.462 296.577C245.978 297.986 234.935 299.47 232.942 316.589C232.087 323.954 235.276 328.878 238.053 333.166C242.973 340.763 246.602 346.365 224.167 360.021C202.754 373.053 197.428 387.618 202.401 405.501C207.828 425.001 225.51 448.448 247.899 478.137L248.133 478.447C291.213 535.556 250.513 577.647 250.513 577.647C250.513 577.647 341.292 571.121 335.592 514.879C334.619 505.557 332.337 496.42 328.814 487.736C321.406 469.152 309.525 453.701 299.102 440.145C298.555 439.435 298.013 438.73 297.476 438.03C286.27 423.435 277.172 411.019 277.918 399.177C278.251 394.033 279.945 387.154 282.507 379.347C293.92 344.528 322.42 291.312 322.42 291.312ZM407.39 246.108C406.737 245.598 405.794 245.714 405.284 246.367C404.775 247.02 404.891 247.963 405.544 248.472C415.781 256.464 422.793 267.88 425.293 280.624C427.792 293.369 425.611 306.588 419.15 317.854C418.737 318.572 418.986 319.489 419.705 319.901C420.423 320.313 421.34 320.065 421.752 319.346C428.572 307.454 430.875 293.5 428.237 280.047C425.598 266.594 418.197 254.543 407.39 246.108Z" fill="#171717"/>
<path d="M442.135 227.7C442.135 227.7 397.411 180.989 385.842 162.925C382.221 157.276 378.479 146.615 389.842 136.377C404.023 123.587 433.304 136.135 435.715 156.802L435.957 156.772C436.723 135.872 468.057 123.9 479.49 135.923C490.03 146.998 483.898 167.907 480.69 173.798C470.417 192.635 442.135 227.7 442.135 227.7Z" fill="url(#paint0_linear_435_1375)"/>
<path d="M312.453 398.108L297.475 438.03C286.269 423.435 277.175 411.019 277.917 399.177C278.25 394.033 279.944 387.154 282.506 379.347L301.923 391.511L312.453 398.108Z" fill="url(#paint1_linear_435_1375)"/>
<path d="M459.988 793.829C474.257 798.324 488.871 801.635 503.683 803.729C503.683 803.729 324.557 880.008 158.899 771.79C158.899 771.79 148.842 766.273 143.759 752.838C142.594 749.763 141.782 746.565 141.338 743.306C138.494 722.891 152.738 714.348 152.738 714.348L165.689 701.689L185.63 682.223L189.755 678.188L190.804 677.199C169.764 654.777 154.089 629.571 155.582 604.999L155.592 604.252C197.149 605.089 275.329 604.999 275.329 604.999C302.175 695.012 371.731 766.112 459.988 793.829Z" fill="#171717"/>
<path d="M492.305 495.28C496.017 502.34 507.445 525.559 506.416 542.293C505.952 549.636 503.097 555.728 496.148 558.663C474.199 567.923 385.599 602.1 302.468 597.637C292.471 597.132 282.515 595.99 272.662 594.218C252.086 590.466 232.437 583.718 214.907 572.905C195.42 560.892 183.346 546.741 176.477 531.853C149.93 474.381 200.677 405.823 200.677 405.823L202.402 405.5C207.848 425.068 225.631 448.61 248.134 478.446C291.213 535.555 250.514 577.646 250.514 577.646C250.514 577.646 341.292 571.12 335.593 514.878C334.621 505.557 332.339 496.419 328.815 487.735H328.825C343.804 493.01 365.349 495.3 387.287 495.814C422.71 496.662 459.133 492.879 470.51 489.601C484.52 485.567 491.157 493.162 491.157 493.162C491.157 493.162 491.589 493.918 492.305 495.28Z" fill="url(#paint2_linear_435_1375)"/>
<path d="M275.326 605C275.326 605 197.146 605.09 155.589 604.253C139.653 603.93 129.102 603.466 130.424 602.811C135.164 600.43 176.478 531.852 176.478 531.852C183.347 546.74 195.421 560.891 214.908 572.904C232.438 583.717 252.087 590.465 272.663 594.217L272.522 594.943C273.399 598.323 274.334 601.675 275.326 605Z" fill="url(#paint3_linear_435_1375)"/>
<path d="M430.959 261.829C466.026 246.167 504.02 238.135 542.425 238.267C603.659 238.223 663.152 258.639 711.454 296.274C778.347 348.169 821.517 430.131 821.517 522.352C821.517 630.352 762.317 724.263 675.152 772.325C634.511 794.748 588.842 806.485 542.425 806.437C533.913 806.437 525.494 806.054 517.168 805.288C512.64 804.874 508.145 804.353 503.683 803.724C488.871 801.63 474.257 798.319 459.988 793.824C371.731 766.112 302.175 695.012 275.325 605C274.325 601.672 273.392 598.319 272.525 594.943" stroke="#171717" stroke-width="3" stroke-linecap="round" stroke-linejoin="round"/>
<path d="M442.135 227.7C442.135 227.7 397.411 180.989 385.842 162.925C382.221 157.276 378.479 146.615 389.842 136.377C404.023 123.587 433.304 136.135 435.715 156.802L435.745 157.014" stroke="#171717" stroke-width="3" stroke-linecap="round" stroke-linejoin="round"/>
<path d="M442.136 227.7C442.136 227.7 470.418 192.639 480.686 173.8C483.894 167.909 490.026 147 479.486 135.925C468.048 123.902 436.719 135.875 435.953 156.774" stroke="#171717" stroke-width="3" stroke-linecap="round" stroke-linejoin="round"/>
<path d="M369.846 360.071C369.846 360.071 382.222 357.882 407.862 346.494C419.996 341.094 426.362 329.65 429.972 317.536C433.996 304.071 434.601 289.768 435.953 282.062C437.244 274.729 435.217 267.971 430.96 261.829C414.731 238.458 365.983 224.145 343.42 221.896C314.945 219.052 282.901 244.318 276.496 257.496C270.091 270.674 282.77 280.312 272.441 290.996C262.112 301.68 236.11 289.396 232.941 316.596C230.571 337.011 259.267 338.665 224.166 360.028C202.753 373.06 197.427 387.628 202.4 405.508C207.846 425.076 225.629 448.618 248.132 478.454C291.211 535.563 250.512 577.654 250.512 577.654C250.512 577.654 341.29 571.128 335.591 514.886C334.618 505.565 332.336 496.427 328.813 487.743C321.013 468.186 308.267 452.098 297.475 438.037C286.269 423.442 277.175 411.026 277.917 399.184C278.25 394.04 279.944 387.161 282.506 379.354C293.914 344.535 322.419 291.319 322.419 291.319" stroke="#171717" stroke-width="3" stroke-linecap="round" stroke-linejoin="round"/>
<path d="M314.229 285.977C314.229 285.977 317.275 288.095 322.551 291.07C336.904 299.17 367.728 313.553 398.361 308.52C398.361 308.52 379.489 343.873 369.846 360.072C368.414 362.591 366.841 365.028 365.136 367.372C359.921 373.787 345.911 375.442 345.911 375.442C345.911 375.442 324.558 374.261 314.592 377.106C305.892 379.587 302.61 389.129 301.924 391.506C301.824 391.859 301.773 392.051 301.773 392.051" stroke="#171717" stroke-width="3" stroke-linecap="round" stroke-linejoin="round"/>
<path d="M282.508 379.347L301.925 391.511L312.455 398.108L297.477 438.03" stroke="#171717" stroke-width="3" stroke-linecap="round" stroke-linejoin="round"/>
<path d="M200.676 405.823C200.676 405.823 149.931 474.381 176.476 531.853C183.345 546.741 195.419 560.892 214.906 572.905C232.436 583.718 252.085 590.466 272.661 594.218C282.513 595.991 292.469 597.133 302.467 597.637C385.6 602.1 474.2 567.923 496.149 558.663C503.098 555.728 505.949 549.636 506.417 542.293C507.446 525.559 496.017 502.34 492.306 495.28C491.59 493.918 491.156 493.162 491.156 493.162C491.156 493.162 484.519 485.567 470.509 489.601C459.132 492.879 422.709 496.662 387.286 495.814C365.348 495.3 343.803 493.014 328.824 487.735" stroke="#171717" stroke-width="3" stroke-linecap="round" stroke-linejoin="round"/>
<path d="M176.478 531.854C176.478 531.854 135.164 600.431 130.424 602.812C129.102 603.467 139.653 603.932 155.589 604.255C197.146 605.092 275.326 605.001 275.326 605.001" stroke="#171717" stroke-width="3" stroke-linecap="round" stroke-linejoin="round"/>
<path d="M288.479 751.375C288.479 751.375 230.209 719.169 190.8 677.2C169.76 654.778 154.085 629.572 155.578 605" stroke="#171717" stroke-width="3" stroke-linecap="round" stroke-linejoin="round"/>
<path d="M503.683 803.724C503.683 803.724 324.557 880.007 158.899 771.789C158.899 771.789 148.842 766.273 143.759 752.838C142.594 749.762 141.782 746.564 141.338 743.306C138.494 722.891 152.738 714.348 152.738 714.348L165.689 701.689L185.63 682.223L189.755 678.188" stroke="#171717" stroke-width="3" stroke-linecap="round" stroke-linejoin="round"/>
<path d="M143.758 752.838C143.758 752.838 69.6579 763.238 55.9049 760.393C42.1519 757.548 36.8409 755.41 42.6109 747.1C43.5889 745.7 82.9569 691.574 100.517 688.719C104.895 688.013 111.128 688.457 118.027 689.536C138.836 692.774 165.686 701.69 165.686 701.69" stroke="#171717" stroke-width="3" stroke-linecap="round" stroke-linejoin="round"/>
<path d="M185.626 682.224C185.626 682.224 161.277 668.788 150.826 670.211C140.375 671.634 118.026 689.536 118.026 689.536" stroke="#171717" stroke-width="3" stroke-linecap="round" stroke-linejoin="round"/>
<path d="M332.385 302.347C332.385 302.347 342.118 298.312 348.291 309.236" stroke="#171717" stroke-width="3" stroke-linecap="round" stroke-linejoin="round"/>
<path d="M368.938 315.641C368.938 315.641 380.064 314.198 383.18 322.52" stroke="#171717" stroke-width="3" stroke-linecap="round" stroke-linejoin="round"/>
<path d="M352.559 331.778C352.559 331.778 360.396 334.623 356.594 339.02C352.792 343.417 347.576 341.512 344.258 337.477" stroke="#171717" stroke-width="3" stroke-linecap="round" stroke-linejoin="round"/>
<path d="M316.489 334.392C316.489 334.392 309.842 343.167 321.471 353.142" stroke="#171717" stroke-width="3" stroke-linecap="round" stroke-linejoin="round"/>
<path d="M529.989 519.8C530.079 519.755 530.166 519.705 530.251 519.649C537.705 515.513 584.476 489.964 589.051 498.149C594.034 507.049 506.473 542.298 506.473 542.298" stroke="#171717" stroke-width="3" stroke-linecap="round" stroke-linejoin="round"/>
<path d="M529.252 520.215C529.26 520.214 529.267 520.21 529.272 520.205C529.336 520.164 529.403 520.127 529.472 520.094C529.487 520.081 529.504 520.071 529.522 520.063C529.622 520.013 529.744 519.942 529.895 519.852" stroke="#171717" stroke-width="3" stroke-linecap="round" stroke-linejoin="round"/>
<path d="M529.9 519.852C529.749 519.932 529.628 520.003 529.527 520.063" stroke="#171717" stroke-width="3" stroke-linecap="round" stroke-linejoin="round"/>
<path d="M529.9 519.852C529.933 519.838 529.963 519.821 529.991 519.801" stroke="#171717" stroke-width="3" stroke-linecap="round" stroke-linejoin="round"/>
<path d="M527.871 501.938C544.524 491.338 582.076 468.538 586.211 475.723C591.143 484.277 538.211 515.081 530.251 519.65C530.151 519.7 530.07 519.75 529.989 519.801" stroke="#171717" stroke-width="3" stroke-linecap="round" stroke-linejoin="round"/>
<path d="M519.992 507.04C520.004 507.031 520.018 507.024 520.033 507.02C520.068 506.993 520.105 506.969 520.144 506.949C520.799 506.505 523.613 504.649 527.729 502.027" stroke="#171717" stroke-width="3" stroke-linecap="round" stroke-linejoin="round"/>
<path d="M527.729 502.027C523.664 504.72 520.81 506.527 520.145 506.949" stroke="#171717" stroke-width="3" stroke-linecap="round" stroke-linejoin="round"/>
<path d="M527.73 502.029C527.78 501.998 527.83 501.967 527.871 501.938" stroke="#171717" stroke-width="3" stroke-linecap="round" stroke-linejoin="round"/>
<path d="M492.305 495.28C492.305 495.28 486.172 456.134 497.205 451.515C508.238 446.896 511.099 492.093 511.099 492.093C511.099 492.093 565.919 452.574 571.618 461.833C575.985 468.924 543.366 491.679 527.873 501.933" stroke="#171717" stroke-width="3" stroke-linecap="round" stroke-linejoin="round"/>
<path d="M430.678 317.748C447.108 319.648 461.451 333.402 464.044 349.742C466.637 366.082 457.244 383.592 442.196 390.481C435.025 393.77 427.067 394.748 419.296 396.1C411.525 397.452 403.571 399.317 397.237 404.007C390.903 408.697 386.555 416.888 388.542 424.513C389.904 429.768 393.908 433.853 397.242 438.13C400.576 442.407 403.516 447.783 402.205 453.048C401.035 457.748 396.728 461.067 392.219 462.842C387.819 464.577 382.719 465.414 379.661 469.015C376.585 472.656 376.661 478.173 378.572 482.531C380.483 486.889 383.948 490.358 387.327 493.716" stroke="#171717" stroke-width="3" stroke-linecap="round" stroke-linejoin="round"/>
<path d="M528.606 287.237C531.006 283.99 533.448 279.955 537.462 279.537C543.716 278.892 547.162 287.337 553.247 288.937C558.523 290.319 563.495 286.173 567.439 282.411C571.383 278.649 576.557 274.644 581.739 276.359C586.429 277.923 588.507 283.833 587.339 288.644C586.171 293.455 582.628 297.289 578.967 300.627C575.306 303.965 571.342 307.127 568.85 311.389C561.15 324.603 570.373 342.436 564.069 356.365C562.509 359.808 560.074 362.783 557.009 364.994C553.943 367.205 550.352 368.576 546.592 368.97C542.832 369.365 539.035 368.769 535.577 367.241C532.119 365.714 529.121 363.309 526.88 360.265C524.318 356.786 522.856 352.62 520.48 349.019C518.104 345.418 514.308 342.219 509.991 342.463C502.426 342.886 496.747 353.363 489.666 350.683C486.348 349.423 484.754 345.731 483.503 342.402C480.74 335.049 477.98 327.693 475.222 320.333C474.093 317.297 472.943 313.938 474.052 310.892C475.576 306.706 480.518 305.062 484.845 303.963C489.535 302.773 494.639 300.755 499.511 300.574C502.511 300.463 505.199 301.274 508.236 300.735C512.403 299.824 516.342 298.077 519.815 295.601C521.374 294.55 527.517 287.237 528.606 287.237Z" stroke="#171717" stroke-width="3" stroke-linecap="round" stroke-linejoin="round"/>
<path d="M711.827 297.082C711.628 296.909 711.419 296.748 711.202 296.598C706.289 293.198 697.02 295.962 693.591 300.905C690.01 306.059 689.435 312.635 688.446 318.828C685.326 338.099 677.207 356.215 664.899 371.369C663.848 372.846 662.482 374.072 660.899 374.959C655.906 377.299 650.299 372.448 648.399 367.273C646.499 362.098 646.513 356.229 643.699 351.488C637.576 341.129 621.004 342.259 612.37 350.641C603.736 359.023 600.962 371.58 598.592 383.371C595.405 399.207 574.798 435.781 589.272 442.971C599.972 448.277 599.621 424.11 602.032 418.562C605.885 409.686 608.558 408.224 613.187 404.31C617.816 400.396 624.444 398.177 630.011 400.568C635.578 402.959 638.333 411.139 634.086 415.445C632.686 416.737 631.286 418.031 629.886 419.329C632.075 432.25 634.274 445.329 633.326 458.414C632.378 471.499 627.95 484.77 618.6 493.969C612.144 500.313 603.309 504.882 599.859 513.254C595.814 523.078 600.071 536.291 592.324 543.574C583.448 551.905 568.772 543.826 556.931 546.64C542.911 549.979 537.313 568.185 541.499 581.973C545.311 594.531 555.599 605.313 568.399 608.188C581.199 611.063 595.915 604.94 601.634 593.129C604.61 586.986 605.104 579.986 606.809 573.379C608.514 566.772 612.054 559.924 618.418 557.463C627.667 553.882 639.267 560.832 647.548 555.385C654.215 550.998 654.689 540.985 660.68 535.727C666.853 530.31 677.313 532.277 682.618 538.541C687.923 544.805 688.65 553.983 686.431 561.891C684.212 569.799 679.439 576.701 674.557 583.301C672.197 586.508 669.696 589.907 669.302 593.881C668.908 597.855 671.622 602.404 675.602 602.424C677.411 602.273 679.151 601.662 680.656 600.649C687.605 596.716 694.444 592.257 699.527 586.094C704.61 579.931 707.768 571.782 706.417 563.904C705.156 556.581 700.264 550.439 697.742 543.449C695.22 536.459 696.259 526.849 703.149 524.049C708.141 522.031 713.669 524.563 718.823 526.126C729.807 529.465 743.303 529.203 750.202 538.381C758.241 549.063 750.858 564.919 740.287 573.109C734.961 577.235 728.022 582.52 730.019 588.965C732.551 597.105 744.957 594.876 752.179 599.395C760.779 604.781 758.937 618.871 751.362 625.629C743.787 632.387 733.105 634.001 723.14 635.887C695.373 641.161 668.608 650.773 643.83 664.372" stroke="#171717" stroke-width="3" stroke-linecap="round" stroke-linejoin="round"/>
<path d="M675.022 772.084C672.854 768.695 668.396 768.695 664.381 768.463C660.366 768.231 656.11 768.412 652.63 766.395C647.416 763.379 645.348 756.188 639.72 754.049C637.097 753.061 633.52 752.92 632.579 750.267C631.903 748.34 633.205 746.323 633.487 744.296C634.123 739.796 629.443 736.065 624.914 735.641C620.385 735.217 615.986 736.983 611.568 738.041C607.15 739.099 601.986 739.282 598.587 736.266C594.411 732.574 594.835 726.058 595.587 720.541C596.254 715.7 596.923 710.862 597.595 706.027C597.988 703.122 598.495 699.995 600.57 697.907C605.361 693.086 614.832 697.05 619.634 692.248C622.67 689.212 622.216 684.27 623.466 680.165C624.757 675.878 628.036 672.398 631.798 669.978C635.52 667.578 639.736 666.084 643.912 664.601C643.964 664.589 644.015 664.572 644.063 664.551" stroke="#171717" stroke-width="3" stroke-linecap="round" stroke-linejoin="round"/>
<path d="M517 805.631C517.05 805.521 517.111 805.399 517.171 805.289C521.134 797.288 526.733 790.207 533.604 784.506C540.476 778.804 548.468 774.608 557.063 772.189C567.463 769.324 578.416 769.183 589.178 769.839C608.278 771.019 628.193 775.114 642.748 787.539C642.768 787.56 642.788 787.57 642.808 787.59" stroke="#171717" stroke-width="3" stroke-linecap="round" stroke-linejoin="round"/>
<path d="M302.457 596.842C302.457 597.104 302.468 597.376 302.468 597.642C302.649 609.454 302.992 621.588 307.702 632.41C312.514 643.475 323.084 652.947 335.148 652.644C340.524 652.513 345.638 650.516 350.741 648.861C355.844 647.206 361.322 645.876 366.557 647.096C371.792 648.316 376.603 652.856 376.422 658.222C376.21 664.647 369.512 669.022 367.838 675.238C366.375 680.654 369.068 686.383 372.73 690.63C382.211 701.63 398.965 705.648 412.4 700.13C420.035 697.003 426.955 691.072 435.205 691.123C441.217 691.163 446.714 694.431 452.625 695.523C460.625 697.006 468.743 694.423 476.802 693.365C484.861 692.307 494.262 693.304 499.144 699.82C502.301 704.036 502.825 709.82 501.514 714.92C500.203 720.02 497.257 724.552 493.979 728.678C486.051 738.643 475.965 746.793 468.479 757.091C461.247 767.037 456.637 780.159 460.672 791.658C460.813 792.071 460.972 792.495 461.146 792.908" stroke="#171717" stroke-width="3" stroke-linecap="round" stroke-linejoin="round"/>
<path d="M501.652 178.7C505.518 172.784 508.114 166.13 509.277 159.159C510.44 152.188 510.144 145.051 508.407 138.2" stroke="#171717" stroke-width="3" stroke-linecap="round" stroke-linejoin="round"/>
<path d="M360.115 170.942C355.623 167.328 352.181 162.576 350.146 157.182C348.112 151.787 347.56 145.946 348.547 140.266" stroke="#171717" stroke-width="3" stroke-linecap="round" stroke-linejoin="round"/>
<path d="M703.467 244.443L744.301 155.338" stroke="#171717" stroke-width="3" stroke-linecap="round" stroke-linejoin="round"/>
<path d="M687.586 225.825L682.242 195.925" stroke="#171717" stroke-width="3" stroke-linecap="round" stroke-linejoin="round"/>
<path d="M738.957 266.446L760.332 255.8" stroke="#171717" stroke-width="3" stroke-linecap="round" stroke-linejoin="round"/>
<path d="M816.9 345.424L817.968 325.133" stroke="#171717" stroke-width="3" stroke-linecap="round" stroke-linejoin="round"/>
<path d="M808.352 335.813L824.372 334.745" stroke="#171717" stroke-width="3" stroke-linecap="round" stroke-linejoin="round"/>
<path d="M850.7 331.128C873 343.098 884.244 372.352 875.7 396.176C873.214 403.108 868.626 410.029 861.534 412.014C854.442 413.999 845.41 408.114 846.797 400.884C847.985 394.689 856.044 391.748 861.902 394.084C867.76 396.42 871.437 402.352 873.386 408.352C875.383 414.662 875.94 421.34 875.015 427.894C874.091 434.448 871.709 440.711 868.045 446.223C862.945 453.773 855.624 459.523 849.775 466.514C843.926 473.505 839.437 482.714 841.687 491.548C842.548 494.93 844.344 498 846.87 500.409C849.395 502.817 852.547 504.466 855.965 505.167C859.384 505.868 862.931 505.592 866.2 504.371C869.469 503.15 872.328 501.033 874.45 498.263" stroke="#171717" stroke-width="3" stroke-linecap="round" stroke-linejoin="round"/>
<path d="M904.391 450.077L907.591 423.377" stroke="#171717" stroke-width="3" stroke-linecap="round" stroke-linejoin="round"/>
<path d="M896.992 436.068L919.809 435.891L920.309 433.891" stroke="#171717" stroke-width="3" stroke-linecap="round" stroke-linejoin="round"/>
<path d="M721.672 767.913C750.714 756.037 773.958 733.272 786.438 704.484" stroke="#171717" stroke-width="3" stroke-linecap="round" stroke-linejoin="round"/>
<path d="M761.332 762.952C766.818 760.103 771.323 755.673 774.265 750.236" stroke="#171717" stroke-width="3" stroke-linecap="round" stroke-linejoin="round"/>
<path d="M82.1244 624.168C80.9611 619.248 78.3584 614.786 74.6484 611.352" stroke="#171717" stroke-width="3" stroke-linecap="round" stroke-linejoin="round"/>
<path d="M71.4453 622.032L85.3293 612.42" stroke="#171717" stroke-width="3" stroke-linecap="round" stroke-linejoin="round"/>
<path d="M145.136 537.661L140.864 523.777" stroke="#171717" stroke-width="3" stroke-linecap="round" stroke-linejoin="round"/>
<path d="M135.612 534.657L147.417 529.445" stroke="#171717" stroke-width="3" stroke-linecap="round" stroke-linejoin="round"/>
<path d="M75.7165 426.591C73.6159 420.978 70.3385 415.88 66.1045 411.639" stroke="#171717" stroke-width="3" stroke-linecap="round" stroke-linejoin="round"/>
<path d="M60.8262 424.532L80.0262 409.555" stroke="#171717" stroke-width="3" stroke-linecap="round" stroke-linejoin="round"/>
<path d="M105 381.528C116.324 394.2 128.023 407.557 132.2 424.028C136.377 440.499 130.258 460.928 114.448 467.159C107.168 470.029 97.9177 469.098 92.8037 463.174C87.6897 457.25 89.2527 446.25 96.5957 443.544C105.914 440.11 114.419 450.99 116.123 460.773C117.26 467.55 116.968 474.49 115.265 481.147C113.562 487.805 110.487 494.033 106.236 499.431C101.481 505.394 95.4097 510.14 89.8077 515.316C84.2057 520.492 78.8997 526.357 76.3647 533.55C73.8297 540.743 74.6117 549.535 79.9997 554.934C85.3877 560.333 95.7347 560.484 100.017 554.172" stroke="#171717" stroke-width="3" stroke-linecap="round" stroke-linejoin="round"/>
<path d="M460.023 556.642L468.915 541.9" stroke="#171717" stroke-width="3" stroke-linecap="round" stroke-linejoin="round"/>
<path d="M433.559 522.272L420.016 510.9" stroke="#171717" stroke-width="3" stroke-linecap="round" stroke-linejoin="round"/>
<path d="M391.482 560.8L399.314 549.408" stroke="#171717" stroke-width="3" stroke-linecap="round" stroke-linejoin="round"/>
<path d="M368.81 529.339L360.285 522.197" stroke="#171717" stroke-width="3" stroke-linecap="round" stroke-linejoin="round"/>
<path d="M321.717 580.745L333.9 568.719" stroke="#171717" stroke-width="3" stroke-linecap="round" stroke-linejoin="round"/>
<path d="M230.537 557.973L224.125 545.873" stroke="#171717" stroke-width="3" stroke-linecap="round" stroke-linejoin="round"/>
<path d="M234.135 510.249L241.967 504.549" stroke="#171717" stroke-width="3" stroke-linecap="round" stroke-linejoin="round"/>
<path d="M200.146 500.825C196.954 497.276 194.721 492.969 193.661 488.314" stroke="#171717" stroke-width="3" stroke-linecap="round" stroke-linejoin="round"/>
<path d="M197.229 450.532L201.498 444.832" stroke="#171717" stroke-width="3" stroke-linecap="round" stroke-linejoin="round"/>
<path d="M293.941 410.572L290.381 399.892" stroke="#171717" stroke-width="3" stroke-linecap="round" stroke-linejoin="round"/>
<path d="M202.1 591.416C201.495 587.581 200.035 583.931 197.828 580.736" stroke="#171717" stroke-width="3" stroke-linecap="round" stroke-linejoin="round"/>
<path d="M166.523 574.38L172.933 570.824" stroke="#171717" stroke-width="3" stroke-linecap="round" stroke-linejoin="round"/>
<path d="M162.77 595.1L157.823 588.664" stroke="#171717" stroke-width="3" stroke-linecap="round" stroke-linejoin="round"/>
<path d="M123.841 754.074C119.728 745.823 118.738 736.362 121.051 727.438" stroke="#171717" stroke-width="3" stroke-linecap="round" stroke-linejoin="round"/>
<path d="M101.366 756.765C98.2008 750.294 97.5823 742.87 99.6331 735.965" stroke="#171717" stroke-width="3" stroke-linecap="round" stroke-linejoin="round"/>
<path d="M74.6753 759.435C73.8273 756.673 73.6354 753.752 74.1151 750.903C74.5948 748.053 75.7327 745.356 77.4383 743.023" stroke="#171717" stroke-width="3" stroke-linecap="round" stroke-linejoin="round"/>
<path d="M46.0166 757.908C67.6578 728.604 97.0033 705.876 130.79 692.254" stroke="#171717" stroke-width="3" stroke-linecap="round" stroke-linejoin="round"/>
<path d="M137.844 693.525L175.017 678.225" stroke="#171717" stroke-width="3" stroke-linecap="round" stroke-linejoin="round"/>
<g opacity="0.1">
<path d="M195.377 407.519C180.319 436.061 168.177 468.511 170.136 501.278C171.072 516.958 174.874 532.589 182.609 546.351C189.977 559.46 201.065 570.204 213.663 578.273C241.503 596.105 275.512 599.439 307.798 599.393C340.351 599.494 372.839 596.461 404.811 590.337C440.185 583.386 474.661 571.554 506.249 554.082C518.711 547.189 507.562 528.07 495.082 534.977C443.657 563.442 384.793 574.97 326.502 576.986C297.336 577.995 265.917 578.513 238.619 566.653C226.938 561.759 216.524 554.273 208.165 544.76C199.731 534.919 194.933 522.39 192.595 509.776C186.484 476.798 199.777 444.427 211.912 414.49C215.772 404.968 200.112 398.55 195.377 407.519V407.519Z" fill="#171717"/>
</g>
<g opacity="0.1">
<path d="M171.913 537.8C166.956 541.361 164.583 546.18 161.63 551.368C158.896 556.168 156.076 560.921 153.263 565.678C147.647 575.178 140.827 584.043 135.412 593.616H153.168L152.683 592.94C150.436 589.809 146.224 587.14 142.169 588.662L141.557 588.891C135.427 591.191 131.857 597.919 135.412 603.991C138.547 609.349 147.236 611.216 151.561 606.072C158.961 597.272 164.813 586.778 170.561 576.851C173.333 572.064 175.891 567.158 178.361 562.208C181.052 556.808 184.479 551.066 184.266 544.883C184.066 539.183 177.245 533.968 171.917 537.796L171.913 537.8Z" fill="#171717"/>
</g>
<g opacity="0.1">
<path d="M421.823 137.122C419.746 132.373 413.087 130.336 408.323 129.507C403.085 128.595 397 129.097 392.391 131.912C381.209 138.741 380.049 153.424 385.952 164.237C391.864 175.067 401.011 184.815 408.826 194.295C417.394 204.687 426.199 214.875 435.242 224.86C444.123 234.686 458.584 220.138 449.76 210.342C436.65 195.789 424.274 180.693 411.907 165.515C409.247 162.251 406.407 159.059 404.058 155.561C402.336 153.002 399.33 149.495 400.009 146.161C401.757 137.576 414.495 143.961 419.636 142.489C422.112 141.782 422.758 139.258 421.821 137.118L421.823 137.122Z" fill="#171717"/>
</g>
</g>
<defs>
<linearGradient id="paint0_linear_435_1375" x1="433.811" y1="131.135" x2="433.811" y2="227.7" gradientUnits="userSpaceOnUse">
<stop stop-color="#42E670"/>
<stop offset="1" stop-color="#07AA50"/>
</linearGradient>
<linearGradient id="paint1_linear_435_1375" x1="295.164" y1="379.347" x2="295.164" y2="438.03" gradientUnits="userSpaceOnUse">
<stop stop-color="#42E670"/>
<stop offset="1" stop-color="#07AA50"/>
</linearGradient>
<linearGradient id="paint2_linear_435_1375" x1="337.637" y1="405.5" x2="337.637" y2="598.037" gradientUnits="userSpaceOnUse">
<stop stop-color="#42E670"/>
<stop offset="1" stop-color="#07AA50"/>
</linearGradient>
<linearGradient id="paint3_linear_435_1375" x1="202.819" y1="531.852" x2="202.819" y2="605.002" gradientUnits="userSpaceOnUse">
<stop stop-color="#42E670"/>
<stop offset="1" stop-color="#07AA50"/>
</linearGradient>
<clipPath id="clip0_435_1375">
<rect width="884" height="703" fill="white" transform="translate(38 129)"/>
</clipPath>
</defs>
</svg>
